SplineFontDB: 3.2
FontName: Giphurs-Regular
FullName: Giphurs Regular
FamilyName: Giphurs
Weight: Regular
Copyright: Copyright 2023 The Giphurs Project Authors (https://github.com/Corne2Plum3/Giphurs)
UComments: "2023-01-20: Finally found a name for the font lol+AAoA-2022-06-21: Created with FontForge (http://fontforge.org)"
Version: 000.500
ItalicAngle: 0
UnderlinePosition: -204
UnderlineWidth: 102
Ascent: 1668
Descent: 380
InvalidEm: 0
LayerCount: 4
Layer: 0 0 "Back" 1
Layer: 1 0 "Fore" 0
Layer: 2 0 "Back 3" 1
Layer: 3 0 "Back 8" 1
XUID: [1021 347 -1220005877 17853]
StyleMap: 0x0040
FSType: 0
OS2Version: 0
OS2_WeightWidthSlopeOnly: 0
OS2_UseTypoMetrics: 0
CreationTime: 1655845567
ModificationTime: 1675514912
PfmFamily: 33
TTFWeight: 400
TTFWidth: 5
LineGap: 0
VLineGap: 0
OS2TypoAscent: 0
OS2TypoAOffset: 1
OS2TypoDescent: 0
OS2TypoDOffset: 1
OS2TypoLinegap: 0
OS2WinAscent: 0
OS2WinAOffset: 1
OS2WinDescent: 0
OS2WinDOffset: 1
HheadAscent: 0
HheadAOffset: 1
HheadDescent: 0
HheadDOffset: 1
OS2Vendor: 'PfEd'
Lookup: 1 0 0 "'smcp' Bas-de-casse vers petites capitales lookups0" { "'smcp' Bas-de-casse vers petites capitales lookups0-1"  } ['smcp' ('DFLT' <'dflt' > 'copt' <'dflt' > 'cyrl' <'dflt' > 'grek' <'dflt' > 'latn' <'dflt' > ) ]
Lookup: 1 0 0 "'cv03' Centered asterisk lookup0" { "'cv03' Centered asterisk lookup0-1"  } ['cv03' ('DFLT' <'dflt' > 'copt' <'dflt' > 'cyrl' <'dflt' > 'grek' <'dflt' > 'latn' <'dflt' > ) ]
Lookup: 1 0 0 "'cv02' Centered colon lookup0" { "'cv02' Centered colon lookup0-1"  } ['cv02' ('DFLT' <'dflt' > 'copt' <'dflt' > 'cyrl' <'dflt' > 'grek' <'dflt' > 'latn' <'dflt' > ) ]
Lookup: 1 0 0 "'cv01' x to multiply sign lookup0" { "'cv01' Character Variants 99 lookup0-1"  } ['cv01' ('DFLT' <'dflt' > 'copt' <'dflt' > 'cyrl' <'dflt' > 'grek' <'dflt' > 'latn' <'dflt' > ) ]

StartChar: o
Encoding: 111 111 0
Width: 1196
VWidth: 1000
Flags: HMW
AnchorPoint: "bottom_right" 738 0 basechar 0
AnchorPoint: "top_right" 1048 1040 basechar 0
AnchorPoint: "bottom_center" 598 0 basechar 0
AnchorPoint: "top_center" 598 1040 basechar 0
LayerCount: 3
Fore
SplineSet
280 520 m 0
 280 300 407 140 598 140 c 0
 789 140 916 300 916 520 c 0
 916 740 789 900 598 900 c 0
 407 900 280 740 280 520 c 0
100 520 m 0
 100 832 317 1060 598 1060 c 0
 879 1060 1096 832 1096 520 c 0
 1096 208 879 -20 598 -20 c 0
 317 -20 100 208 100 520 c 0
EndSplineSet
Substitution2: "'smcp' Bas-de-casse vers petites capitales lookups0-1" o.sc
Colour: ff00
EndChar

StartChar: n
Encoding: 110 110 1
Width: 1156
VWidth: 1000
Flags: HMW
AnchorPoint: "bottom_center" 578 0 basechar 0
AnchorPoint: "top_center" 578 1040 basechar 0
LayerCount: 3
Fore
SplineSet
836 0 m 1
 836 572 l 2
 836 791 758 900 578 900 c 0
 398 900 320 791 320 572 c 2
 320 0 l 1
 140 0 l 1
 140 1040 l 1
 308 1040 l 1
 308 920 l 1
 393 1005 493 1060 618 1060 c 0
 888 1060 1016 892 1016 572 c 1
 1016 0 l 1
 836 0 l 1
EndSplineSet
Substitution2: "'smcp' Bas-de-casse vers petites capitales lookups0-1" n.sc
Colour: ff00
EndChar

StartChar: u
Encoding: 117 117 2
Width: 1156
VWidth: 1000
Flags: HMW
AnchorPoint: "top_right" 1016 1040 basechar 0
AnchorPoint: "bottom_right" 1036 0 basechar 0
AnchorPoint: "bottom_center" 578 0 basechar 0
AnchorPoint: "top_center" 578 1040 basechar 0
LayerCount: 3
Fore
SplineSet
320 1040 m 1
 320 468 l 2
 320 249 398 140 578 140 c 0
 758 140 836 249 836 468 c 2
 836 1040 l 1
 1016 1040 l 1
 1016 168 l 1
 1016 66 1036 0 1036 0 c 1
 864 0 l 1
 864 0 848 60 848 120 c 1
 763 35 663 -20 538 -20 c 0
 268 -20 140 148 140 468 c 1
 140 1040 l 1
 320 1040 l 1
EndSplineSet
Substitution2: "'smcp' Bas-de-casse vers petites capitales lookups0-1" u.sc
Colour: ff00
EndChar

StartChar: d
Encoding: 100 100 3
Width: 1184
VWidth: 1000
Flags: HMW
AnchorPoint: "top_right" 1044 1480 basechar 0
AnchorPoint: "bottom_cedilla" 578 -20 basechar 0
AnchorPoint: "bottom_center" 578 0 basechar 0
AnchorPoint: "top_center" 954 1400 basechar 0
LayerCount: 3
Fore
SplineSet
876 520 m 0
 876 750 758 900 578 900 c 0
 398 900 280 750 280 520 c 0
 280 290 398 140 578 140 c 0
 758 140 876 290 876 520 c 0
1044 168 m 1
 1044 66 1064 0 1064 0 c 1
 892 0 l 1
 892 0 876 60 876 120 c 1
 791 35 703 -20 578 -20 c 0
 297 -20 100 208 100 520 c 0
 100 832 297 1060 578 1060 c 0
 703 1060 779 1005 864 920 c 1
 864 1480 l 1
 1044 1480 l 1
 1044 168 l 1
EndSplineSet
Substitution2: "'smcp' Bas-de-casse vers petites capitales lookups0-1" d.sc
Colour: ff00
EndChar

StartChar: b
Encoding: 98 98 4
Width: 1184
VWidth: 1000
Flags: HMW
AnchorPoint: "bottom_center" 606 0 basechar 0
AnchorPoint: "top_center" 230 1400 basechar 0
LayerCount: 3
Fore
SplineSet
308 520 m 0
 308 290 426 140 606 140 c 0
 786 140 904 290 904 520 c 0
 904 750 786 900 606 900 c 0
 426 900 308 750 308 520 c 0
140 168 m 1
 140 1480 l 1
 320 1480 l 1
 320 920 l 1
 405 1005 481 1060 606 1060 c 0
 887 1060 1084 832 1084 520 c 0
 1084 208 887 -20 606 -20 c 0
 481 -20 397 35 312 120 c 1
 312 60 312 0 312 0 c 1
 140 0 l 1
 140 0 140 66 140 168 c 1
EndSplineSet
Substitution2: "'smcp' Bas-de-casse vers petites capitales lookups0-1" b.sc
Colour: ff00
EndChar

StartChar: p
Encoding: 112 112 5
Width: 1184
VWidth: 1000
Flags: HMW
AnchorPoint: "bottom_center" 230 -360 basechar 0
AnchorPoint: "top_center" 606 1040 basechar 0
LayerCount: 3
Fore
SplineSet
308 520 m 0
 308 290 426 140 606 140 c 0
 786 140 904 290 904 520 c 0
 904 750 786 900 606 900 c 0
 426 900 308 750 308 520 c 0
140 872 m 1
 140 974 140 1040 140 1040 c 1
 312 1040 l 1
 312 1040 312 980 312 920 c 1
 397 1005 481 1060 606 1060 c 0
 887 1060 1084 832 1084 520 c 0
 1084 208 887 -20 606 -20 c 0
 481 -20 405 35 320 120 c 1
 320 -440 l 1
 140 -440 l 1
 140 872 l 1
EndSplineSet
Substitution2: "'smcp' Bas-de-casse vers petites capitales lookups0-1" p.sc
Colour: ff00
EndChar

StartChar: q
Encoding: 113 113 6
Width: 1184
VWidth: 1000
Flags: HMW
AnchorPoint: "bottom_center" 954 -360 basechar 0
AnchorPoint: "top_center" 578 1040 basechar 0
LayerCount: 3
Fore
SplineSet
876 520 m 0
 876 750 758 900 578 900 c 0
 398 900 280 750 280 520 c 0
 280 290 398 140 578 140 c 0
 758 140 876 290 876 520 c 0
1044 872 m 1
 1044 -440 l 1
 864 -440 l 1
 864 120 l 1
 779 35 703 -20 578 -20 c 0
 297 -20 100 208 100 520 c 0
 100 832 297 1060 578 1060 c 0
 703 1060 787 1005 872 920 c 1
 872 980 872 1040 872 1040 c 1
 1044 1040 l 1
 1044 1040 1044 974 1044 872 c 1
EndSplineSet
Substitution2: "'smcp' Bas-de-casse vers petites capitales lookups0-1" q.sc
Colour: ff00
EndChar

StartChar: h
Encoding: 104 104 7
Width: 1156
VWidth: 1000
Flags: HMW
AnchorPoint: "bottom_cedilla" 230 -20 basechar 0
AnchorPoint: "bottom_center" 598 0 basechar 0
AnchorPoint: "top_center" 230 1400 basechar 0
LayerCount: 3
Fore
SplineSet
836 0 m 1
 836 572 l 2
 836 791 758 900 578 900 c 0
 398 900 320 791 320 572 c 2
 320 0 l 1
 140 0 l 1
 140 1480 l 1
 312 1480 l 1
 312 920 l 1
 397 1005 493 1060 618 1060 c 0
 888 1060 1016 892 1016 572 c 1
 1016 0 l 1
 836 0 l 1
EndSplineSet
Substitution2: "'smcp' Bas-de-casse vers petites capitales lookups0-1" h.sc
Colour: ff00
EndChar

StartChar: m
Encoding: 109 109 8
Width: 1671
VWidth: 1000
Flags: HMW
AnchorPoint: "bottom_center" 836 0 basechar 0
AnchorPoint: "top_center" 836 1040 basechar 0
LayerCount: 3
Fore
SplineSet
791 572 m 1
 791 892 940 1060 1170 1060 c 0
 1400 1060 1530 912 1530 572 c 1
 1531 0 l 1
 1351 0 l 1
 1351 572 l 1
 1351 791 1298 900 1138 900 c 0
 978 900 925 791 925 572 c 1
 791 572 l 1
746 0 m 1
 746 572 l 1
 746 791 693 900 533 900 c 0
 373 900 320 791 320 572 c 2
 320 0 l 1
 140 0 l 1
 140 1040 l 1
 308 1040 l 1
 308 920 l 1
 393 1005 440 1060 565 1060 c 0
 795 1060 925 912 925 572 c 1
 926 0 l 1
 746 0 l 1
EndSplineSet
Substitution2: "'smcp' Bas-de-casse vers petites capitales lookups0-1" m.sc
Colour: ff00
EndChar

StartChar: e
Encoding: 101 101 9
Width: 1196
VWidth: 1000
Flags: HW
AnchorPoint: "bottom_cedilla" 598 -20 basechar 0
AnchorPoint: "bottom_right" 752 0 basechar 0
AnchorPoint: "bottom_center" 598 0 basechar 0
AnchorPoint: "top_center" 598 1040 basechar 0
LayerCount: 4
Fore
SplineSet
174 600 m 5
 980 600 l 5
 980 440 l 5
 174 440 l 5
 174 600 l 5
910 340 m 5
 1063 252 l 5
 980 74 797 -20 598 -20 c 4
 317 -20 100 208 100 520 c 4
 100 832 317 1060 598 1060 c 4
 879 1060 1096 832 1096 520 c 4
 1096 493 1094 466 1091 440 c 5
 910 440 l 5
 914 466 916 492 916 520 c 4
 916 740 789 900 598 900 c 4
 407 900 280 740 280 520 c 4
 280 300 407 140 598 140 c 4
 739 140 861 207 910 340 c 5
EndSplineSet
Substitution2: "'smcp' Bas-de-casse vers petites capitales lookups0-1" e.sc
Colour: ff00
EndChar

StartChar: c
Encoding: 99 99 10
Width: 1142
VWidth: 1000
Flags: HW
AnchorPoint: "bottom_cedilla" 598 -20 basechar 0
AnchorPoint: "bottom_center" 598 0 basechar 0
AnchorPoint: "top_center" 598 1040 basechar 0
LayerCount: 4
Fore
SplineSet
280 520 m 0
 280 300 407 140 598 140 c 0
 739 140 840 207 889 340 c 1
 1042 252 l 1
 959 74 797 -20 598 -20 c 0
 317 -20 100 208 100 520 c 0
 100 832 317 1060 598 1060 c 0
 797 1060 959 966 1042 788 c 1
 889 700 l 1
 840 833 739 900 598 900 c 0
 407 900 280 740 280 520 c 0
EndSplineSet
Substitution2: "'smcp' Bas-de-casse vers petites capitales lookups0-1" c.sc
Colour: ff00
EndChar

StartChar: f
Encoding: 102 102 11
Width: 815
VWidth: 1000
Flags: HMW
AnchorPoint: "bottom_center" 350 -0 basechar 0
AnchorPoint: "top_center" 510 1400 basechar 0
LayerCount: 3
Fore
SplineSet
720 1305 m 1
 694 1324 643 1340 600 1340 c 0
 498 1340 440 1282 440 1180 c 2
 440 1040 l 1
 720 1040 l 1
 720 880 l 1
 440 880 l 1
 440 0 l 1
 260 0 l 1
 260 880 l 1
 50 880 l 1
 50 926 50 994 50 1040 c 1
 260 1040 l 1
 260 1180 l 2
 260 1380 400 1500 600 1500 c 0
 656 1500 720 1486 765 1468 c 1
 720 1305 l 1
EndSplineSet
Substitution2: "'ss05' Latin f ligatures lookups0-1" f.ss05
Substitution2: "'smcp' Bas-de-casse vers petites capitales lookups0-1" f.sc
Colour: ff00
EndChar

StartChar: r
Encoding: 114 114 12
Width: 842
VWidth: 1000
Flags: HMW
AnchorPoint: "bottom_center" 230 -0 basechar 0
AnchorPoint: "top_center" 488 1040 basechar 0
LayerCount: 3
Fore
SplineSet
744 849 m 1
 701 883 649 900 578 900 c 0
 398 900 320 791 320 572 c 2
 320 0 l 1
 140 0 l 1
 140 1040 l 1
 308 1040 l 1
 308 920 l 1
 393 1005 493 1060 618 1060 c 0
 686 1060 741 1049 792 1028 c 1
 744 849 l 1
EndSplineSet
Substitution2: "'smcp' Bas-de-casse vers petites capitales lookups0-1" r.sc
Colour: ff00
EndChar

StartChar: t
Encoding: 116 116 13
Width: 815
VWidth: 1000
Flags: HMW
AnchorPoint: "bottom_cedilla" 540 -20 basechar 0
AnchorPoint: "bottom_center" 480 0 basechar 0
AnchorPoint: "top_center" 350 1400 basechar 0
LayerCount: 3
Fore
SplineSet
122 1028 m 17
 212 1028 272 1092 272 1182 c 9
 272 1320 l 1
 440 1320 l 1
 440 1040 l 1
 720 1040 l 1
 720 880 l 1
 440 880 l 1
 440 300 l 2
 440 198 498 140 600 140 c 0
 643 140 694 156 720 175 c 1
 765 12 l 1
 720 -6 656 -20 600 -20 c 0
 400 -20 260 101 260 300 c 2
 260 880 l 1
 50 880 l 1
 50 926 50 982 50 1028 c 1
 122 1028 l 17
EndSplineSet
Substitution2: "'smcp' Bas-de-casse vers petites capitales lookups0-1" t.sc
Substitution2: "'ss05' Latin f ligatures lookups0-1" t.ss05
Colour: ff00
EndChar

StartChar: v
Encoding: 118 118 14
Width: 1060
VWidth: 1000
Flags: HMW
AnchorPoint: "bottom_center" 530 0 basechar 0
AnchorPoint: "top_center" 530 1040 basechar 0
LayerCount: 3
Fore
SplineSet
431 0 m 1
 70 1040 l 1
 262 1040 l 1
 530 224 l 1
 798 1040 l 1
 990 1040 l 1
 629 0 l 1
 431 0 l 1
EndSplineSet
Substitution2: "'smcp' Bas-de-casse vers petites capitales lookups0-1" v.sc
Colour: ff00
EndChar

StartChar: w
Encoding: 119 119 15
Width: 1594
VWidth: 1000
Flags: HMW
AnchorPoint: "bottom_center" 796 0 basechar 0
AnchorPoint: "top_center" 796 1040 basechar 0
LayerCount: 3
Fore
SplineSet
391 0 m 1
 70 1040 l 1
 260 1040 l 1
 483 250 l 1
 706 1040 l 1
 886 1040 l 1
 1109 250 l 1
 1332 1040 l 1
 1524 1040 l 1
 1201 0 l 1
 1017 0 l 1
 800 770 l 1
 575 0 l 1
 391 0 l 1
EndSplineSet
Substitution2: "'smcp' Bas-de-casse vers petites capitales lookups0-1" w.sc
Colour: ff00
EndChar

StartChar: x
Encoding: 120 120 16
Width: 1092
Flags: HMW
AnchorPoint: "bottom_center" 546 0 basechar 0
AnchorPoint: "top_center" 546 1040 basechar 0
LayerCount: 3
Fore
SplineSet
407 520 m 1
 70 1040 l 5
 278 1040 l 1
 546 613 l 1
 814 1040 l 1
 1022 1040 l 1
 684 520 l 1
 1022 0 l 1
 814 0 l 1
 544 430 l 1
 280 0 l 1
 70 0 l 1
 407 520 l 1
EndSplineSet
Substitution2: "'cv01' Character Variants 99 lookup0-1" multiply
Substitution2: "'smcp' Bas-de-casse vers petites capitales lookups0-1" x.sc
Colour: ff00
EndChar

StartChar: y
Encoding: 121 121 17
Width: 1077
VWidth: 1000
Flags: HMW
AnchorPoint: "bottom_center" 294 -360 basechar 0
AnchorPoint: "top_center" 530 1040 basechar 0
LayerCount: 3
Back
SplineSet
691 680 m 1
 880 680 l 1
 515 -360 l 1
 331 -360 l 1
 691 680 l 1
EndSplineSet
Fore
SplineSet
552 -255 m 1
 507 -385 393 -460 235 -460 c 0
 179 -460 115 -446 70 -428 c 1
 115 -265 l 1
 141 -284 192 -300 235 -300 c 0
 312 -300 364 -267 385 -206 c 1
 458 0 l 1
 93 1040 l 1
 282 1040 l 1
 550 224 l 1
 818 1040 l 1
 1007 1040 l 1
 642 0 l 1
 552 -255 l 1
EndSplineSet
Substitution2: "'smcp' Bas-de-casse vers petites capitales lookups0-1" y.sc
Colour: ff00
EndChar

StartChar: i
Encoding: 105 105 18
Width: 500
Flags: HMW
AnchorPoint: "bottom_right" 340 0 basechar 0
AnchorPoint: "bottom_center" 250 -0 basechar 0
AnchorPoint: "top_center" 250 1040 basechar 0
LayerCount: 3
Fore
SplineSet
122 1372 m 0
 122 1444 178 1500 250 1500 c 0
 322 1500 378 1444 378 1372 c 0
 378 1300 322 1244 250 1244 c 0
 178 1244 122 1300 122 1372 c 0
160 0 m 5
 160 1040 l 1
 340 1040 l 1
 340 0 l 5
 160 0 l 5
EndSplineSet
Substitution2: "'ss05' Latin f ligatures lookups0-1" i.ss05
Substitution2: "'smcp' Bas-de-casse vers petites capitales lookups0-1" i.sc
Colour: ff00
EndChar

StartChar: j
Encoding: 106 106 19
Width: 529
Flags: HMW
AnchorPoint: "bottom_center" 219 -360 basechar 0
AnchorPoint: "top_center" 279 1040 basechar 0
LayerCount: 3
Fore
SplineSet
151 1372 m 0
 151 1444 207 1500 279 1500 c 0
 351 1500 407 1444 407 1372 c 0
 407 1300 351 1244 279 1244 c 0
 207 1244 151 1300 151 1372 c 0
47 -284 m 1
 59 -291 83 -300 99 -300 c 0
 159 -300 189 -270 189 -210 c 2
 189 0 l 1
 189 138 l 1
 189 1040 l 1
 369 1040 l 1
 369 138 l 1
 369 0 l 1
 369 -210 l 2
 369 -380 269 -460 99 -460 c 4
 67 -460 27 -449 5 -436 c 1
 47 -284 l 1
EndSplineSet
Substitution2: "'ss05' Latin f ligatures lookups0-1" j.ss05
Substitution2: "'smcp' Bas-de-casse vers petites capitales lookups0-1" j.sc
Colour: ff00
EndChar

StartChar: l
Encoding: 108 108 20
Width: 509
Flags: HMW
AnchorPoint: "bottom_center" 290 0 basechar 0
AnchorPoint: "top_center" 230 1400 basechar 0
LayerCount: 3
Fore
SplineSet
462 156 m 1
 504 4 l 1
 482 -9 442 -20 410 -20 c 0
 240 -20 140 60 140 230 c 2
 140 440 l 1
 140 578 l 1
 140 1480 l 1
 320 1480 l 1
 320 578 l 1
 320 440 l 1
 320 230 l 2
 320 170 350 140 410 140 c 0
 426 140 450 149 462 156 c 1
EndSplineSet
Substitution2: "'ss05' Latin f ligatures lookups0-1" l.ss05
Substitution2: "'smcp' Bas-de-casse vers petites capitales lookups0-1" l.sc
Colour: ff00
EndChar

StartChar: k
Encoding: 107 107 21
Width: 1059
Flags: HMW
AnchorPoint: "bottom_center" 568 -0 basechar 0
AnchorPoint: "top_center" 230 1400 basechar 0
LayerCount: 3
Fore
SplineSet
417 562 m 1
 526 702 l 1
 1024 0 l 1
 816 0 l 1
 417 562 l 1
320 340 m 1
 320 0 l 1
 140 0 l 1
 140 1480 l 1
 320 1480 l 1
 320 572 l 1
 788 1040 l 1
 848 1040 960 1040 1020 1040 c 1
 320 340 l 1
EndSplineSet
Substitution2: "'smcp' Bas-de-casse vers petites capitales lookups0-1" k.sc
Colour: ff00
EndChar

StartChar: s
Encoding: 115 115 22
Width: 1032
VWidth: 1000
Flags: HMW
AnchorPoint: "bottom_center" 532 0 basechar 0
AnchorPoint: "top_center" 532 1040 basechar 0
LayerCount: 3
Fore
SplineSet
312 755 m 0
 312 674 379 651 532 613 c 0
 755 557 932 473 932 285 c 0
 932 97 762 -20 532 -20 c 0
 302 -20 151 63 100 252 c 1
 253 340 l 1
 278 200 392 140 532 140 c 0
 708 140 752 204 752 285 c 0
 752 366 685 391 532 431 c 0
 309 489 132 567 132 755 c 0
 132 942 302 1060 532 1060 c 0
 762 1060 862 957 924 788 c 1
 771 700 l 1
 735 799 690 900 532 900 c 0
 356 900 312 836 312 755 c 0
EndSplineSet
Substitution2: "'smcp' Bas-de-casse vers petites capitales lookups0-1" s.sc
Colour: ff00
EndChar

StartChar: a
Encoding: 97 97 23
Width: 1140
VWidth: 1000
Flags: HMW
AnchorPoint: "top_right" 980 1040 basechar 0
AnchorPoint: "bottom_right" 1033 0 basechar 0
AnchorPoint: "bottom_center" 540 0 basechar 0
AnchorPoint: "top_center" 540 1040 basechar 0
LayerCount: 3
Fore
SplineSet
890 340 m 0
 800 340 l 0
 800 460 720 540 540 540 c 0
 360 540 280 460 280 340 c 0
 280 220 360 140 540 140 c 0
 690 140 800 220 800 340 c 2
 800 640 l 2
 800 820 707 901 539 901 c 0
 359 901 222 795 222 795 c 1
 140 936 l 1
 140 936 285 1060 540 1060 c 0
 786 1060 980 958 980 608 c 1
 980 458 l 1
 980 458 980 281 980 168 c 9
 818 120 l 1
 733 35 625 -20 500 -20 c 0
 245 -20 100 140 100 340 c 0
 100 540 285 700 540 700 c 0
 765 700 890 540 890 340 c 0
1028 -20 m 1
 884 -7 800 72 800 227 c 2
 800 507 l 1
 980 507 l 1
 980 227 l 2
 980 167 1010 138 1070 138 c 0
 1028 -20 l 1
EndSplineSet
Substitution2: "'ss04' Simplified a and g lookups0-1" a.ss04
Substitution2: "'smcp' Bas-de-casse vers petites capitales lookups0-1" a.sc
Colour: ff00
EndChar

StartChar: g
Encoding: 103 103 24
Width: 1085
VWidth: 1000
Flags: HMW
AnchorPoint: "bottom_center" 520 -360 basechar 0
AnchorPoint: "top_center" 520 1040 basechar 0
LayerCount: 4
Fore
SplineSet
50 -150 m 4
 50 50 260 80 520 80 c 4
 520 0 l 4
 272 0 230 -75 230 -150 c 4
 50 -150 l 4
604 968 m 5
 677 1024 761 1060 861 1060 c 4
 929 1060 984 1049 1035 1028 c 5
 987 849 l 5
 944 883 892 900 821 900 c 4
 774 900 734 892 700 877 c 5
 604 968 l 5
520 160 m 4
 520 0 l 4
 280 0 140 70 140 230 c 4
 140 390 360 415 520 415 c 4
 520 300 l 4
 362 300 320 270 320 230 c 4
 320 190 362 160 520 160 c 4
520 160 m 4
 880 160 1035 30 1035 -150 c 4
 1035 -330 880 -460 520 -460 c 4
 160 -460 50 -310 50 -150 c 4
 230 -150 l 4
 230 -225 272 -300 520 -300 c 4
 768 -300 855 -250 855 -150 c 4
 855 -50 768 0 520 0 c 4
 520 160 l 4
320 680 m 4
 320 560 400 460 520 460 c 4
 640 460 720 560 720 680 c 4
 720 800 640 900 520 900 c 4
 400 900 320 800 320 680 c 4
140 680 m 4
 140 899 301 1060 520 1060 c 4
 739 1060 900 899 900 680 c 4
 900 461 739 300 520 300 c 4
 301 300 140 461 140 680 c 4
EndSplineSet
Layer: 2
SplineSet
520 -460 m 4
 880 -460 1035 -330 1035 -150 c 4
 1035 30 880 160 520 160 c 4
 200 160 50 10 50 -150 c 4
 50 -310 160 -460 520 -460 c 4
520 0 m 4
 768 0 855 -50 855 -150 c 4
 855 -250 768 -300 520 -300 c 4
 272 -300 230 -225 230 -150 c 4
 230 -75 272 0 520 0 c 4
320 680 m 4
 320 560 400 460 520 460 c 4
 640 460 720 560 720 680 c 4
 720 800 640 900 520 900 c 4
 400 900 320 800 320 680 c 4
140 680 m 4
 140 899 301 1060 520 1060 c 4
 739 1060 900 899 900 680 c 4
 900 461 739 300 520 300 c 4
 301 300 140 461 140 680 c 4
EndSplineSet
Layer: 3
SplineSet
604.309570312 967.538085938 m 5
 677.329101562 1023.9375 761.196289062 1060 861 1060 c 4
 929 1060 984 1049 1035 1028 c 5
 987 849 l 5
 944 883 892 900 821 900 c 4
 773.765625 900 733.5546875 892.494140625 699.93359375 877.463867188 c 5
 604.309570312 967.538085938 l 5
520 160 m 4
 520 0 l 4
 280 0 140 70 140 230 c 4
 140 390 280 460 520 460 c 4
 520 300 l 4
 362 300 320 270 320 230 c 4
 320 190 362 160 520 160 c 4
EndSplineSet
Substitution2: "'ss04' Simplified a and g lookups0-1" g.ss04
Substitution2: "'smcp' Bas-de-casse vers petites capitales lookups0-1" g.sc
Colour: ff00
EndChar

StartChar: z
Encoding: 122 122 25
Width: 1024
Flags: HMW
AnchorPoint: "bottom_center" 512 0 basechar 0
AnchorPoint: "top_center" 512 1040 basechar 0
LayerCount: 3
Fore
SplineSet
140 1040 m 1
 140 880 l 1
 680 880 l 1
 884 896 l 1
 884 1040 l 1
 140 1040 l 1
880 160 m 1
 344 160 l 1
 140 144 l 1
 140 0 l 1
 880 0 l 1
 880 160 l 1
344 160 m 1
 884 896 l 1
 680 880 l 1
 140 144 l 1
 344 160 l 1
EndSplineSet
Substitution2: "'smcp' Bas-de-casse vers petites capitales lookups0-1" z.sc
Colour: ff00
EndChar

StartChar: A
Encoding: 65 65 27
Width: 1356
VWidth: 1000
Flags: HMW
AnchorPoint: "bottom_ypogegrammeni" 678 -90 basechar 0
AnchorPoint: "top_left" 490 1480 basechar 0
AnchorPoint: "bottom_center" 678 -0 basechar 0
AnchorPoint: "bottom_right" 1286 0 basechar 0
AnchorPoint: "top_center" 678 1400 basechar 0
LayerCount: 4
Fore
SplineSet
304 604 m 1
 1030 604 l 1
 1030 436 l 1
 304 436 l 1
 304 604 l 1
678 1230 m 1
 266 0 l 1
 70 0 l 5
 580 1480 l 1
 776 1480 l 1
 1286 0 l 1
 1090 0 l 1
 678 1230 l 1
EndSplineSet
Colour: ffff
EndChar

StartChar: V
Encoding: 86 86 28
Width: 1356
VWidth: 1000
Flags: HMW
AnchorPoint: "bottom_center" 678 -0 basechar 0
AnchorPoint: "top_center" 678 1400 basechar 0
LayerCount: 4
Fore
SplineSet
678 250 m 1
 1090 1480 l 1
 1286 1480 l 1
 776 0 l 1
 580 0 l 1
 70 1480 l 1
 266 1480 l 1
 678 250 l 1
EndSplineSet
Layer: 2
SplineSet
590 0 m 5
 229 1040 l 5
 415 1040 l 5
 683 224 l 5
 951 1040 l 5
 1137 1040 l 5
 776 0 l 5
 590 0 l 5
EndSplineSet
Colour: ffff
EndChar

StartChar: H
Encoding: 72 72 29
Width: 1398
Flags: HMW
AnchorPoint: "bottom_ypogegrammeni" 699 -90 basechar 0
AnchorPoint: "bottom_cedilla" 235 -20 basechar 0
AnchorPoint: "top_left" 140 1480 basechar 0
AnchorPoint: "bottom_center" 699 0 basechar 0
AnchorPoint: "top_center" 699 1400 basechar 0
LayerCount: 4
Fore
SplineSet
140 1480 m 29
 330 1480 l 29
 330 824 l 29
 1068 824 l 29
 1068 1480 l 29
 1258 1480 l 29
 1258 0 l 29
 1068 0 l 29
 1068 656 l 29
 330 656 l 29
 330 0 l 29
 140 0 l 29
 140 1480 l 29
EndSplineSet
Colour: ffff
EndChar

StartChar: O
Encoding: 79 79 30
Width: 1602
Flags: HMW
AnchorPoint: "top_left_O2" 252 1224 basechar 0
AnchorPoint: "top_left_O1" 634 1480 basechar 0
AnchorPoint: "bottom_right" 968 0 basechar 0
AnchorPoint: "bottom_center" 801 0 basechar 0
AnchorPoint: "top_right" 1380 1480 basechar 0
AnchorPoint: "top_center" 801 1400 basechar 0
LayerCount: 4
Fore
SplineSet
290 740 m 4
 290 390 511 148 801 148 c 4
 1091 148 1312 390 1312 740 c 4
 1312 1090 1091 1332 801 1332 c 4
 511 1332 290 1090 290 740 c 4
100 740 m 4
 100 1179 406 1500 801 1500 c 4
 1196 1500 1502 1179 1502 740 c 4
 1502 301 1196 -20 801 -20 c 4
 406 -20 100 301 100 740 c 4
EndSplineSet
Colour: ffff
EndChar

StartChar: E
Encoding: 69 69 31
Width: 1208
Flags: HMW
AnchorPoint: "bottom_cedilla" 604 -20 basechar 0
AnchorPoint: "top_left" 140 1480 basechar 0
AnchorPoint: "bottom_right" 1068 0 basechar 0
AnchorPoint: "bottom_center" 604 0 basechar 0
AnchorPoint: "top_center" 604 1400 basechar 0
LayerCount: 4
Fore
SplineSet
973 824 m 21
 973 656 l 13
 330 656 l 21
 330 168 l 5
 1068 168 l 5
 1068 0 l 5
 140 0 l 29
 140 1480 l 5
 1068 1480 l 21
 1068 1312 l 5
 330 1312 l 5
 330 824 l 13
 973 824 l 21
EndSplineSet
Colour: ffff
EndChar

StartChar: F
Encoding: 70 70 32
Width: 1138
Flags: HMW
AnchorPoint: "bottom_center" 235 0 basechar 0
AnchorPoint: "top_center" 604 1400 basechar 0
LayerCount: 4
Fore
SplineSet
330 168 m 1
 330 0 l 1
 140 0 l 1
 140 1480 l 1
 1068 1480 l 17
 1068 1312 l 1
 330 1312 l 1
 330 824 l 9
 973 824 l 17
 973 656 l 9
 330 656 l 17
 330 168 l 1
EndSplineSet
Colour: ffff
EndChar

StartChar: P
Encoding: 80 80 33
Width: 1188
Flags: HMW
AnchorPoint: "top_left" 140 1480 basechar 0
AnchorPoint: "bottom_center" 235 0 basechar 0
AnchorPoint: "top_center" 598 1400 basechar 0
LayerCount: 4
Fore
SplineSet
330 1312 m 25
 330 740 l 25
 612 740 l 17
 777 740 898 861 898 1026 c 0
 898 1191 777 1312 612 1312 c 9
 330 1312 l 25
140 0 m 1
 140 1480 l 1
 612 1480 l 1
 867 1480 1088 1281 1088 1026 c 0
 1088 771 867 572 612 572 c 1
 330 572 l 1
 330 0 l 25
 140 0 l 1
EndSplineSet
Colour: ffff
EndChar

StartChar: N
Encoding: 78 78 34
Width: 1398
Flags: HMW
AnchorPoint: "bottom_center" 699 0 basechar 0
AnchorPoint: "bottom_right" 699 1400 basechar 0
LayerCount: 4
Fore
SplineSet
330 1480 m 1
 1068 320 l 25
 1068 1480 l 1
 1258 1480 l 25
 1258 0 l 25
 1068 0 l 1
 330 1160 l 1
 330 0 l 1
 140 0 l 25
 140 1480 l 1
 330 1480 l 1
EndSplineSet
Colour: ffff
EndChar

StartChar: L
Encoding: 76 76 35
Width: 1208
Flags: HMW
AnchorPoint: "bottom_center" 604 0 basechar 0
AnchorPoint: "top_center" 235 1400 basechar 0
LayerCount: 4
Fore
SplineSet
330 1480 m 17
 330 168 l 1
 1068 168 l 1
 1068 0 l 1
 140 0 l 25
 140 1480 l 1
 330 1480 l 17
EndSplineSet
Colour: ffff
EndChar

StartChar: I
Encoding: 73 73 36
Width: 806
Flags: HMW
AnchorPoint: "top_left" 140 1480 basechar 0
AnchorPoint: "bottom_right" 498 0 basechar 0
AnchorPoint: "bottom_center" 403 0 basechar 0
AnchorPoint: "top_center" 403 1400 basechar 0
LayerCount: 4
Fore
SplineSet
140 1480 m 29
 666 1480 l 29
 666 1312 l 29
 498 1312 l 29
 498 168 l 29
 666 168 l 29
 666 0 l 29
 140 0 l 29
 140 168 l 29
 308 168 l 29
 308 1312 l 29
 140 1312 l 29
 140 1480 l 29
EndSplineSet
Colour: ffff
EndChar

StartChar: D
Encoding: 68 68 37
Width: 1378
Flags: HMW
AnchorPoint: "bottom_cedilla" 567 -20 basechar 0
AnchorPoint: "bottom_center" 662 0 basechar 0
AnchorPoint: "top_center" 662 1400 basechar 0
LayerCount: 4
Fore
SplineSet
330 1312 m 25
 330 168 l 25
 612 168 l 17
 882 168 1088 407 1088 740 c 0
 1088 1073 882 1312 612 1312 c 9
 330 1312 l 25
612 0 m 1
 330 0 l 25
 140 0 l 1
 140 1480 l 1
 612 1480 l 1
 992 1480 1278 1190 1278 740 c 0
 1278 290 992 0 612 0 c 1
EndSplineSet
Colour: ffff
EndChar

StartChar: B
Encoding: 66 66 38
Width: 1323
Flags: HMW
AnchorPoint: "bottom_center" 600 -0 basechar 0
AnchorPoint: "top_center" 600 1400 basechar 0
LayerCount: 4
Fore
SplineSet
707 740 m 1
 707 908 l 17
 832 908 929 987 929 1112 c 0
 929 1237 832 1312 707 1312 c 9
 330 1312 l 1
 330 1480 l 25
 707 1480 l 1
 927 1480 1119 1330 1119 1110 c 0
 1119 890 927 740 707 740 c 1
330 168 m 25
 707 168 l 17
 872 168 993 289 993 454 c 0
 993 619 872 740 707 740 c 9
 330 740 l 25
 330 168 l 25
140 1480 m 1
 330 1480 l 25
 330 908 l 1
 707 908 l 1
 962 908 1183 709 1183 454 c 0
 1183 199 962 0 707 0 c 1
 140 0 l 1
 140 1480 l 1
EndSplineSet
Layer: 2
SplineSet
612 740 m 5
 612 908 l 21
 737 908 834 987 834 1112 c 4
 834 1237 737 1312 612 1312 c 13
 330 1312 l 5
 330 1480 l 29
 612 1480 l 5
 832 1480 1024 1330 1024 1110 c 4
 1024 890 832 740 612 740 c 5
EndSplineSet
Colour: ffff
EndChar

StartChar: T
Encoding: 84 84 39
Width: 1398
Flags: HMW
AnchorPoint: "bottom_cedilla" 699 -20 basechar 0
AnchorPoint: "bottom_center" 699 0 basechar 0
AnchorPoint: "top_center" 699 1400 basechar 0
LayerCount: 4
Fore
SplineSet
794 0 m 25
 604 0 l 25
 604 1312 l 25
 140 1312 l 25
 140 1480 l 25
 1258 1480 l 25
 1258 1312 l 25
 794 1312 l 25
 794 0 l 25
EndSplineSet
Colour: ffff
EndChar

StartChar: R
Encoding: 82 82 40
Width: 1188
Flags: HMW
AnchorPoint: "bottom_center" 598 0 basechar 0
AnchorPoint: "top_center" 598 1400 basechar 0
LayerCount: 4
Fore
SplineSet
500 617 m 1
 914 0 l 1
 1128 0 l 1
 630 740 l 1
 500 617 l 1
330 1312 m 25
 612 1312 l 17
 777 1312 898 1191 898 1026 c 0
 898 861 777 740 612 740 c 9
 330 740 l 25
 330 1312 l 25
140 0 m 1
 330 0 l 25
 330 572 l 1
 612 572 l 1
 867 572 1088 771 1088 1026 c 0
 1088 1281 867 1480 612 1480 c 1
 140 1480 l 1
 140 0 l 1
EndSplineSet
Layer: 2
SplineSet
938 0 m 5
 1108 0 l 5
 769 634 l 29
 599 634 l 29
 938 0 l 5
EndSplineSet
Colour: ffff
EndChar

StartChar: C
Encoding: 67 67 41
Width: 1514
Flags: HMW
AnchorPoint: "bottom_cedilla" 801 -20 basechar 0
AnchorPoint: "bottom_center" 801 0 basechar 0
AnchorPoint: "top_center" 801 1400 basechar 0
LayerCount: 4
Fore
SplineSet
1253 1028 m 1
 1170 1215 1002 1332 801 1332 c 0
 511 1332 290 1090 290 740 c 0
 290 390 511 148 801 148 c 0
 1002 148 1170 265 1253 452 c 1
 1414 360 l 1
 1296 128 1069 -20 801 -20 c 4
 406 -20 100 301 100 740 c 0
 100 1179 406 1500 801 1500 c 0
 1069 1500 1296 1352 1414 1120 c 1
 1253 1028 l 1
EndSplineSet
Colour: ffff
EndChar

StartChar: G
Encoding: 71 71 42
Width: 1522
Flags: HMW
AnchorPoint: "bottom_center" 801 0 basechar 0
AnchorPoint: "top_center" 801 1400 basechar 0
LayerCount: 4
Fore
SplineSet
1253 1029 m 1
 1170 1216 1002 1332 801 1332 c 0
 511 1332 290 1090 290 740 c 0
 290 390 511 148 801 148 c 0
 1002 148 1170 264 1253 451 c 1
 1414 360 l 1
 1296 128 1069 -20 801 -20 c 0
 406 -20 100 301 100 740 c 0
 100 1179 406 1500 801 1500 c 0
 1069 1500 1296 1352 1414 1120 c 1
 1253 1029 l 1
801 740 m 25
 1422 740 l 25
 1422 0 l 25
 1240 0 l 17
 1240 227 l 1
 1232 253 l 1
 1232 572 l 9
 801 572 l 25
 801 740 l 25
EndSplineSet
Colour: ffff
EndChar

StartChar: Q
Encoding: 81 81 43
Width: 1602
Flags: HMW
AnchorPoint: "bottom_center" 801 0 basechar 0
AnchorPoint: "top_center" 801 1400 basechar 0
LayerCount: 4
Fore
SplineSet
290 740 m 0
 290 390 511 148 801 148 c 0
 1091 148 1312 390 1312 740 c 0
 1312 1090 1091 1332 801 1332 c 0
 511 1332 290 1090 290 740 c 0
100 740 m 0
 100 1179 406 1500 801 1500 c 0
 1196 1500 1502 1179 1502 740 c 0
 1502 301 1196 -20 801 -20 c 0
 406 -20 100 301 100 740 c 0
1502 64 m 1
 1374 -64 l 1
 858 452 l 1
 986 580 l 1
 1502 64 l 1
EndSplineSet
Layer: 2
SplineSet
1169.31445312 319.685546875 m 5
 972.69921875 516.30078125 l 5
 864.356445312 407.643554688 l 5
 1068 204 l 5
 1177.48144531 94.5185546875 l 5
 1381.125 -109.125 l 5
 1489.78222656 -0.7822265625 l 5
 1293.16699219 195.833007812 l 5
 1169.31445312 319.685546875 l 5
EndSplineSet
Colour: ffff
EndChar

StartChar: U
Encoding: 85 85 44
Width: 1398
Flags: HMW
AnchorPoint: "bottom_right" 861 0 basechar 0
AnchorPoint: "bottom_center" 699 0 basechar 0
AnchorPoint: "top_right" 1258 1480 basechar 0
AnchorPoint: "top_center" 699 1400 basechar 0
LayerCount: 4
Fore
SplineSet
330 1480 m 25
 330 600 l 17
 330 350 449 148 699 148 c 0
 949 148 1068 350 1068 600 c 9
 1068 1480 l 25
 1258 1480 l 25
 1258 600 l 17
 1258 240 1059 -20 699 -20 c 0
 339 -20 140 240 140 600 c 9
 140 1480 l 25
 330 1480 l 25
EndSplineSet
Colour: ffff
EndChar

StartChar: M
Encoding: 77 77 45
Width: 1588
VWidth: 1000
Flags: HMW
AnchorPoint: "bottom_center" 794 0 basechar 0
AnchorPoint: "top_center" 794 1400 basechar 0
LayerCount: 4
Fore
SplineSet
789 410 m 1
 330 1480 l 1
 237 1248 l 1
 715 160 l 1
 863 160 l 1
 1343 1248 l 1
 1258 1480 l 1
 789 410 l 1
1448 1480 m 1
 1258 1480 l 1
 1258 0 l 1
 1448 0 l 1
 1448 1480 l 1
140 1480 m 1
 140 0 l 1
 330 0 l 1
 330 1480 l 1
 140 1480 l 1
EndSplineSet
Colour: ffff
EndChar

StartChar: Z
Encoding: 90 90 46
Width: 1308
VWidth: 1000
Flags: HMW
AnchorPoint: "bottom_center" 696 0 basechar 0
AnchorPoint: "top_center" 699 1400 basechar 0
LayerCount: 4
Fore
SplineSet
242 0 m 1
 140 152 l 1
 1066 1480 l 1
 1168 1328 l 1
 242 0 l 1
325 168 m 1
 1160 168 l 1
 1160 0 l 1
 790 0 510 0 140 0 c 1
 140 152 l 1
 325 168 l 1
952 1312 m 1
 160 1312 l 1
 160 1480 l 1
 530 1480 798 1480 1168 1480 c 1
 1168 1328 l 1
 952 1312 l 1
EndSplineSet
Layer: 2
SplineSet
859 900 m 1
 313 140 l 1
 859 140 l 1
 859 0 l 1
 140 0 l 1
 140 140 l 1
 686 900 l 1
 140 900 l 1
 140 1040 l 1
 859 1040 l 1
 859 900 l 1
EndSplineSet
Colour: ffff
EndChar

StartChar: X
Encoding: 88 88 47
Width: 1392
VWidth: 1000
Flags: HMW
AnchorPoint: "bottom_center" 696 0 basechar 0
AnchorPoint: "top_center" 696 1400 basechar 0
LayerCount: 4
Fore
SplineSet
694 617 m 1
 284 0 l 1
 70 0 l 1
 568 740 l 1
 70 1480 l 1
 284 1480 l 1
 696 858 l 1
 1108 1480 l 1
 1322 1480 l 1
 824 740 l 1
 1322 0 l 1
 1108 0 l 1
 694 617 l 1
EndSplineSet
Colour: ffff
EndChar

StartChar: Y
Encoding: 89 89 48
Width: 1392
VWidth: 1000
Flags: HMW
AnchorPoint: "top_left" 100 1481 basechar 0
AnchorPoint: "bottom_center" 696 0 basechar 0
AnchorPoint: "top_center" 696 1400 basechar 0
LayerCount: 4
Back
SplineSet
694 617.358398438 m 1
 1104 0 l 1
 1320 0 l 1
 830 740 l 1
 1320 1480 l 1
 1104 1480 l 1
 696 858 l 1
 280 1480 l 1
 64 1480 l 1
 571 740 l 1
 63 0 l 1
 280 0 l 1
 694 617.358398438 l 1
EndSplineSet
Fore
SplineSet
601 0 m 1
 601 740 l 1
 791 740 l 1
 791 0 l 5
 601 0 l 1
755 628 m 1
 621 666 l 1
 70 1480 l 1
 284 1480 l 1
 696 858 l 1
 1108 1480 l 1
 1322 1480 l 1
 755 628 l 1
EndSplineSet
Colour: ffff
EndChar

StartChar: W
Encoding: 87 87 49
Width: 1984
VWidth: 1000
Flags: HMW
AnchorPoint: "bottom_center" 992 0 basechar 0
AnchorPoint: "top_center" 992 1400 basechar 0
LayerCount: 4
Fore
SplineSet
1404 280 m 1
 1718 1480 l 1
 1914 1480 l 1
 1502 0 l 1
 1306 2 l 1
 992 1150 l 1
 678 0 l 1
 482 0 l 1
 70 1480 l 1
 266 1480 l 1
 580 280 l 1
 906 1480 l 1
 1078 1480 l 1
 1404 280 l 1
EndSplineSet
Colour: ffff
EndChar

StartChar: J
Encoding: 74 74 50
Width: 1168
Flags: HMW
AnchorPoint: "bottom_center" 564 0 basechar 0
AnchorPoint: "top_center" 933 1400 basechar 0
LayerCount: 4
Fore
SplineSet
290 492 m 1
 290 440 l 1
 290 260 384 148 564 148 c 0
 744 148 838 260 838 440 c 9
 838 1480 l 1
 1028 1480 l 1
 1028 440 l 17
 1028 170 834 -20 564 -20 c 0
 294 -20 100 170 100 440 c 9
 290 492 l 1
EndSplineSet
Colour: ffff
EndChar

StartChar: K
Encoding: 75 75 51
Width: 1356
Flags: HMW
AnchorPoint: "bottom_center" 699 0 basechar 0
AnchorPoint: "top_center" 699 1400 basechar 0
LayerCount: 4
Back
SplineSet
1239 0 m 1
 1047 0 l 1
 34 1480 l 1
 226 1480 l 1
 1239 0 l 1
EndSplineSet
Fore
SplineSet
549 794 m 1
 679 917 l 1
 1296 0 l 1
 1082 0 l 1
 549 794 l 1
330 490 m 1
 330 0 l 1
 140 0 l 1
 140 1480 l 1
 330 1480 l 1
 330 730 l 1
 1056 1480 l 1
 1116 1480 1236 1480 1296 1480 c 1
 330 490 l 1
EndSplineSet
Colour: ffff
EndChar

StartChar: S
Encoding: 83 83 52
Width: 1219
VWidth: 1000
Flags: HMW
AnchorPoint: "bottom_center" 610 0 basechar 0
AnchorPoint: "top_center" 610 1400 basechar 0
LayerCount: 4
Fore
SplineSet
610 1332 m 0
 400 1332 314 1214 314 1086 c 0
 314 958 403 889 610 837 c 0
 903 763 1119 649 1119 394 c 0
 1119 139 916 -20 610 -20 c 0
 329 -20 127 158 100 396 c 1
 287 446 l 0
 287 290 410 148 610 148 c 0
 830 148 933 254 933 394 c 0
 933 534 818 600 610 653 c 4
 315 728 124 846 124 1086 c 0
 124 1326 319 1500 610 1500 c 0
 891 1500 1066 1322 1093 1084 c 1
 906 1034 l 0
 906 1190 810 1332 610 1332 c 0
EndSplineSet
Colour: ffff
EndChar

StartChar: eight
Encoding: 56 56 53
Width: 1232
VWidth: 1000
Flags: HMW
LayerCount: 4
Back
SplineSet
338 1094 m 0
 338 1231 440 1332 615 1332 c 0
 790 1332 892 1231 892 1094 c 0
 892 957 790 856 615 856 c 4
 440 856 338 957 338 1094 c 0
148 1098 m 0
 148 875 340 696 615 696 c 4
 890 696 1082 875 1082 1098 c 0
 1082 1321 890 1500 615 1500 c 0
 340 1500 148 1321 148 1098 c 0
295 422 m 4
 295 578 415 696 615 696 c 4
 815 696 937 578 937 422 c 4
 937 266 815 148 615 148 c 4
 415 148 295 266 295 422 c 4
105 418 m 4
 105 175 315 -20 615 -20 c 4
 915 -20 1127 175 1127 418 c 4
 1127 661 915 856 615 856 c 4
 315 856 105 661 105 418 c 4
EndSplineSet
Fore
SplineSet
105 418 m 4
 105 569 186 702 320 781 c 1
 212 854 148 969 148 1098 c 0
 148 1321 340 1500 615 1500 c 0
 890 1500 1082 1321 1082 1098 c 0
 1082 969 1018 854 910 781 c 1
 1045 702 1127 570 1127 418 c 0
 1127 175 915 -20 615 -20 c 4
 315 -20 105 175 105 418 c 4
338 1094 m 0
 338 957 440 856 615 856 c 0
 790 856 892 957 892 1094 c 0
 892 1231 790 1332 615 1332 c 0
 440 1332 338 1231 338 1094 c 0
615 696 m 0
 415 696 295 578 295 422 c 4
 295 266 415 148 615 148 c 4
 815 148 937 266 937 422 c 0
 937 578 815 696 615 696 c 0
EndSplineSet
Validated: 1
Substitution2: "'dnom' D+AOkA-nominateurs lookups0-1" eight.dnom
Substitution2: "sous-table 'subs' Indice lookups0" eight.subscript
Substitution2: "'numr' Numerators lookups0-1" eight.numr
Substitution2: "'tnum' Tabular Numbers lookups0-1" eight.tnum
Substitution2: "'onum' Oldstyle Figures lookups0-1" eight.onum
Substitution2: "'pnum' Proportional Numbers lookups0-1" eight.pnum
Substitution2: "sous-table 'sups' Exposant lookups0" eight.superior
Colour: ffff
EndChar

StartChar: six
Encoding: 54 54 54
Width: 1232
VWidth: 1000
Flags: HMW
LayerCount: 4
Fore
SplineSet
228 200 m 1
 228 200 105 366 105 696 c 0
 105 1216 396 1500 756 1500 c 0
 966 1500 1087 1380 1087 1380 c 1
 1000 1227 l 1
 1000 1227 912 1332 717 1332 c 0
 493 1332 287 1096 287 696 c 0
 287 336 374 282 374 282 c 1
 228 200 l 1
321 486 m 0
 321 282 451 148 629 148 c 0
 807 148 937 282 937 486 c 0
 937 690 807 824 629 824 c 0
 451 824 321 690 321 486 c 0
153 486 m 1
 225 486 l 1
 225 769 338 992 629 992 c 0
 920 992 1127 777 1127 486 c 0
 1127 195 920 -20 629 -20 c 0
 338 -20 153 195 153 486 c 1
EndSplineSet
Validated: 5
Substitution2: "'dnom' D+AOkA-nominateurs lookups0-1" six.dnom
Substitution2: "sous-table 'subs' Indice lookups0" six.subscript
Substitution2: "'numr' Numerators lookups0-1" six.numr
Substitution2: "'tnum' Tabular Numbers lookups0-1" six.tnum
Substitution2: "'onum' Oldstyle Figures lookups0-1" six.onum
Substitution2: "'pnum' Proportional Numbers lookups0-1" six.pnum
Substitution2: "sous-table 'sups' Exposant lookups0" six.superior
Substitution2: "'ss02' Alternative digits 6 and 9 lookups0-1" six.ss02
Colour: ffff
EndChar

StartChar: nine
Encoding: 57 57 55
Width: 1232
VWidth: 1000
Flags: HMW
LayerCount: 4
Fore
SplineSet
1004 1280 m 1
 1004 1280 1127 1114 1127 784 c 0
 1127 264 836 -20 476 -20 c 0
 266 -20 145 100 145 100 c 1
 232 253 l 1
 232 253 320 148 515 148 c 0
 739 148 945 384 945 784 c 0
 945 1144 858 1198 858 1198 c 1
 1004 1280 l 1
911 994 m 0
 911 1198 781 1332 603 1332 c 0
 425 1332 295 1198 295 994 c 0
 295 790 425 656 603 656 c 0
 781 656 911 790 911 994 c 0
1079 994 m 1
 1007 994 l 1
 1007 711 894 488 603 488 c 0
 312 488 105 703 105 994 c 0
 105 1285 312 1500 603 1500 c 0
 894 1500 1079 1285 1079 994 c 1
EndSplineSet
Validated: 5
Substitution2: "'dnom' D+AOkA-nominateurs lookups0-1" nine.dnom
Substitution2: "sous-table 'subs' Indice lookups0" nine.subscript
Substitution2: "'numr' Numerators lookups0-1" nine.numr
Substitution2: "'tnum' Tabular Numbers lookups0-1" nine.tnum
Substitution2: "'onum' Oldstyle Figures lookups0-1" nine.onum
Substitution2: "'pnum' Proportional Numbers lookups0-1" nine.pnum
Substitution2: "sous-table 'sups' Exposant lookups0" nine.superior
Substitution2: "'ss02' Alternative digits 6 and 9 lookups0-1" nine.ss02
Colour: ffff
EndChar

StartChar: three
Encoding: 51 51 56
Width: 1232
VWidth: 1000
Flags: HMW
LayerCount: 4
Fore
SplineSet
615 856 m 1
 790 856 892 957 892 1094 c 4
 892 1231 790 1332 615 1332 c 4
 440 1332 336 1207 336 1070 c 0
 149 1120 l 1
 175 1321 340 1500 615 1500 c 4
 890.08 1500 1081.99996818 1320.28772591 1082 1098 c 4
 1082.00001847 969 1018 854 910 781 c 1
 1045 702 1127 570 1127 418 c 0
 1127 175 915 -20 615 -20 c 0
 334 -20 132 158 105 396 c 1
 292 446 l 0
 292 290 415 148 615 148 c 0
 815 148 937 266 937 422 c 0
 937 578 815 696 615 696 c 1
 544 696 520 696 520 696 c 25
 520 856 l 25
 520 856 545 856 615 856 c 1
EndSplineSet
Substitution2: "sous-table 'sups' Exposant lookups0" three.superior
Substitution2: "'pnum' Proportional Numbers lookups0-1" three.pnum
Substitution2: "'onum' Oldstyle Figures lookups0-1" three.onum
Substitution2: "'tnum' Tabular Numbers lookups0-1" three.tnum
Substitution2: "'numr' Numerators lookups0-1" three.numr
Substitution2: "sous-table 'subs' Indice lookups0" three.subscript
Substitution2: "'dnom' D+AOkA-nominateurs lookups0-1" three.dnom
Colour: ffff
EndChar

StartChar: zero
Encoding: 48 48 57
Width: 1232
Flags: HMW
LayerCount: 4
Fore
SplineSet
295 740 m 0
 295 340 425 148 616 148 c 0
 807 148 937 340 937 740 c 0
 937 1140 807 1332 616 1332 c 0
 425 1332 295 1140 295 740 c 0
105 740 m 0
 105 1240 316 1500 616 1500 c 0
 916 1500 1127 1240 1127 740 c 0
 1127 240 916 -20 616 -20 c 0
 316 -20 105 240 105 740 c 0
EndSplineSet
Substitution2: "sous-table 'sups' Exposant lookups0" zero.superior
Substitution2: "sous-table 'subs' Indice lookups0" zero.subscript
Substitution2: "'zero' Slashed Zero lookups0-1" zero.zero
Substitution2: "'pnum' Proportional Numbers lookups0-1" zero.pnum
Substitution2: "'onum' Oldstyle Figures lookups0-1" zero.onum
Substitution2: "'tnum' Tabular Numbers lookups0-1" zero.tnum
Substitution2: "'numr' Numerators lookups0-1" zero.numr
Substitution2: "'dnom' D+AOkA-nominateurs lookups0-1" zero.dnom
Colour: ffff
EndChar

StartChar: two
Encoding: 50 50 58
Width: 1232
VWidth: 1000
Flags: HMW
LayerCount: 4
Fore
SplineSet
321 949 m 5
 128 1000 l 4
 128 1300 336 1500 616 1500 c 4
 896 1500 1104 1320 1104 1040 c 0
 914 1040 l 0
 914 1220 796 1332 616 1332 c 4
 436 1332 318 1180 318 1000 c 4
 318 982 319 966 321 949 c 5
120 0 m 1
 120 160 131 388 616 668 c 0
 772 758 914 860 914 1040 c 1
 1104 1040 l 1
 1104 749 858 608 616 468 c 0
 313 293 310 90 310 0 c 1
 254 0 176 0 120 0 c 1
212 168 m 1
 1112 168 l 1
 1112 0 l 1
 210 0 l 1
 212 168 l 1
EndSplineSet
Validated: 5
Substitution2: "'dnom' D+AOkA-nominateurs lookups0-1" two.dnom
Substitution2: "sous-table 'subs' Indice lookups0" two.subscript
Substitution2: "'pnum' Proportional Numbers lookups0-1" two.pnum
Substitution2: "'onum' Oldstyle Figures lookups0-1" two.onum
Substitution2: "'tnum' Tabular Numbers lookups0-1" two.tnum
Substitution2: "'numr' Numerators lookups0-1" two.numr
Substitution2: "sous-table 'sups' Exposant lookups0" two.superior
Colour: ffff
EndChar

StartChar: seven
Encoding: 55 55 59
Width: 1232
Flags: HMW
LayerCount: 4
Fore
SplineSet
889 1312 m 1
 1107 1328 l 1
 1107 1328 612 837 539 0 c 1
 480 0 406 0 347 0 c 1
 417 840 889 1312 889 1312 c 1
125 1312 m 1
 125 1480 l 1
 1107 1480 l 1
 1107 1328 l 1
 889 1312 l 1
 125 1312 l 1
EndSplineSet
Validated: 5
Substitution2: "'dnom' D+AOkA-nominateurs lookups0-1" seven.dnom
Substitution2: "sous-table 'subs' Indice lookups0" seven.subscript
Substitution2: "'numr' Numerators lookups0-1" seven.numr
Substitution2: "'tnum' Tabular Numbers lookups0-1" seven.tnum
Substitution2: "'onum' Oldstyle Figures lookups0-1" seven.onum
Substitution2: "'pnum' Proportional Numbers lookups0-1" seven.pnum
Substitution2: "sous-table 'sups' Exposant lookups0" seven.superior
Colour: ffff
EndChar

StartChar: four
Encoding: 52 52 60
Width: 1232
Flags: HMW
LayerCount: 4
Fore
SplineSet
713 808 m 1
 713 488 l 1
 897 488 l 1
 897 808 l 1
 713 808 l 1
707 320 m 1
 707 0 l 1
 897 0 l 1
 897 320 l 1
 707 320 l 1
809 1480 m 1
 609 1480 l 1
 125 488 l 1
 321 488 l 1
 809 1480 l 1
125 320 m 1
 1107 320 l 1
 1107 488 l 1
 125 488 l 1
 125 320 l 1
EndSplineSet
Validated: 5
Substitution2: "'dnom' D+AOkA-nominateurs lookups0-1" four.dnom
Substitution2: "sous-table 'subs' Indice lookups0" four.subscript
Substitution2: "'numr' Numerators lookups0-1" four.numr
Substitution2: "'tnum' Tabular Numbers lookups0-1" four.tnum
Substitution2: "'onum' Oldstyle Figures lookups0-1" four.onum
Substitution2: "'pnum' Proportional Numbers lookups0-1" four.pnum
Substitution2: "sous-table 'sups' Exposant lookups0" four.superior
Substitution2: "'ss01' Alternative digits 1 and 4 lookups0-1" four.ss01
Colour: ffff
EndChar

StartChar: five
Encoding: 53 53 61
Width: 1232
VWidth: 1000
Flags: HMW
LayerCount: 4
Fore
SplineSet
318 668 m 1
 205 701 l 1
 292 858 382 986 615 986 c 0
 896 986 1127 774 1127 483 c 0
 1127 192 895 -20 614 -20 c 4
 333 -20 131 158 104 396 c 5
 291 446 l 4
 291 290 414 148 614 148 c 4
 793 148 937 279 937 483 c 0
 937 687 793 818 615 818 c 0
 459 818 374 763 318 668 c 1
427 1480 m 1
 318 751 l 1
 205 701 l 1
 139 720 l 1
 247 1480 l 1
 304 1480 370 1480 427 1480 c 1
311 1312 m 1
 311 1480 l 1
 1055 1480 l 1
 1055 1312 l 1
 311 1312 l 1
EndSplineSet
Validated: 5
Substitution2: "'dnom' D+AOkA-nominateurs lookups0-1" five.dnom
Substitution2: "sous-table 'subs' Indice lookups0" five.subscript
Substitution2: "'numr' Numerators lookups0-1" five.numr
Substitution2: "'tnum' Tabular Numbers lookups0-1" five.tnum
Substitution2: "'onum' Oldstyle Figures lookups0-1" five.onum
Substitution2: "'pnum' Proportional Numbers lookups0-1" five.pnum
Substitution2: "sous-table 'sups' Exposant lookups0" five.superior
Colour: ffff
EndChar

StartChar: one
Encoding: 49 49 62
Width: 1232
Flags: HMW
LayerCount: 4
Fore
SplineSet
581 1026 m 1
 265 1026 l 1
 265 1184 l 1
 345 1184 l 2
 473 1184 593 1280 593 1408 c 2
 593 1480 l 1
 771 1480 l 1
 771 1040 l 1
 771 0 l 1
 581 0 l 5
 581 1026 l 1
EndSplineSet
Validated: 1
Substitution2: "'dnom' D+AOkA-nominateurs lookups0-1" one.dnom
Substitution2: "'pnum' Proportional Numbers lookups0-1" one.pnum
Substitution2: "'onum' Oldstyle Figures lookups0-1" one.onum
Substitution2: "'tnum' Tabular Numbers lookups0-1" one.tnum
Substitution2: "'numr' Numerators lookups0-1" one.numr
Substitution2: "sous-table 'subs' Indice lookups0" one.subscript
Substitution2: "sous-table 'sups' Exposant lookups0" one.superior
Substitution2: "'ss01' Alternative digits 1 and 4 lookups0-1" one.ss01
Colour: ffff
EndChar

StartChar: period
Encoding: 46 46 63
Width: 532
Flags: HMW
LayerCount: 4
Fore
SplineSet
140 107 m 0
 140 179 193 236 265 236 c 0
 337 236 392 179 392 107 c 0
 392 35 337 -20 265 -20 c 0
 193 -20 140 35 140 107 c 0
EndSplineSet
Validated: 1
Colour: ff00
EndChar

StartChar: comma
Encoding: 44 44 64
Width: 532
Flags: HMW
LayerCount: 4
Back
SplineSet
139 -150 m 4xf0
 139 -80 195 -20 265 -20 c 4
 335 -20 393 -80 393 -150 c 4
 393 -220 335 -278 265 -278 c 4
 195 -278 139 -220 139 -150 c 4xf0
EndSplineSet
Fore
SplineSet
140 107 m 0
 140 179 193 236 265 236 c 0
 337 236 392 179 392 107 c 0
 392 35 337 -20 265 -20 c 0
 193 -20 140 35 140 107 c 0
155 -161 m 1
 212 -148 301 -100 301 20 c 0
 301 48 266 108 266 108 c 1
 265 236 l 1
 335 236 428 190 428 20 c 0
 428 -160 262 -256 185 -276 c 1
 155 -161 l 1
EndSplineSet
Validated: 5
Colour: ff00
EndChar

StartChar: colon
Encoding: 58 58 65
Width: 532
Flags: HMW
LayerCount: 4
Fore
SplineSet
140 931 m 0
 140 1003 193 1060 265 1060 c 0
 337 1060 392 1003 392 931 c 0
 392 859 337 804 265 804 c 0
 193 804 140 859 140 931 c 0
140 107 m 0
 140 179 193 236 265 236 c 0
 337 236 392 179 392 107 c 0
 392 35 337 -20 265 -20 c 0
 193 -20 140 35 140 107 c 0
EndSplineSet
Validated: 1
Substitution2: "'cv02' Centered colon lookup0-1" colon.centered
Colour: ff00
EndChar

StartChar: semicolon
Encoding: 59 59 66
Width: 568
Flags: HMW
LayerCount: 4
Fore
SplineSet
140 107 m 0
 140 179 193 236 265 236 c 0
 337 236 392 179 392 107 c 0
 392 35 337 -20 265 -20 c 0
 193 -20 140 35 140 107 c 0
155 -161 m 1
 212 -148 301 -100 301 20 c 0
 301 48 266 108 266 108 c 1
 265 236 l 1
 335 236 428 190 428 20 c 0
 428 -160 262 -256 185 -276 c 1
 155 -161 l 1
140 931 m 0
 140 1003 193 1060 265 1060 c 4
 337 1060 392 1003 392 931 c 0
 392 859 337 804 265 804 c 0
 193 804 140 859 140 931 c 0
EndSplineSet
Colour: ff00
EndChar

StartChar: slash
Encoding: 47 47 67
Width: 964
VWidth: 1000
Flags: HMW
LayerCount: 4
Fore
SplineSet
894 1640 m 1
 260 -200 l 1
 70 -200 l 1
 704 1640 l 1
 894 1640 l 1
EndSplineSet
Validated: 1
Colour: ff00
EndChar

StartChar: parenleft
Encoding: 40 40 68
Width: 818
Flags: HMW
LayerCount: 4
Fore
SplineSet
100 660 m 0
 100 1260 534 1605 684 1660 c 1
 768 1515 l 17
 655 1474 280 1200 280 660 c 0
 280 120 655 -154 768 -195 c 1
 684 -340 l 1
 534 -285 100 60 100 660 c 0
EndSplineSet
Validated: 1
Colour: ff00
EndChar

StartChar: exclam
Encoding: 33 33 69
Width: 532
Flags: HMW
LayerCount: 4
Fore
SplineSet
140 107 m 0
 140 179 193 236 265 236 c 0
 337 236 392 179 392 107 c 0
 392 35 337 -20 265 -20 c 0
 193 -20 140 35 140 107 c 0
159 1480 m 1
 371 1480 l 1
 355 452 l 1
 175 452 l 1
 159 1480 l 1
EndSplineSet
Validated: 1
Colour: ff00
EndChar

StartChar: question
Encoding: 63 63 70
Width: 1144
VWidth: 1000
Flags: HMW
LayerCount: 4
Fore
SplineSet
572 1340 m 0
 761 1340 864 1212 864 1054 c 0
 864 896 762 776 572 776 c 0
 572 608 l 0
 827 608 1044 784 1044 1054 c 0
 1044 1324 842 1500 572 1500 c 0
 302 1500 100 1302 100 1032 c 0
 285 978 l 1
 282 995 280 1013 280 1032 c 0
 280 1190 382 1340 572 1340 c 0
442 107 m 0
 442 179 495 236 567 236 c 0
 639 236 694 179 694 107 c 0
 694 35 639 -20 567 -20 c 0
 495 -20 442 35 442 107 c 0
482 452 m 1
 662 452 l 1
 662 776 l 1
 482 776 l 1
 482 452 l 1
EndSplineSet
Validated: 5
Colour: ff00
EndChar

StartChar: quotesingle
Encoding: 39 39 71
Width: 464
Flags: HMW
LayerCount: 4
Fore
SplineSet
152 968 m 25
 140 1480 l 25
 324 1480 l 25
 312 968 l 25
 152 968 l 25
EndSplineSet
Validated: 1
Colour: ff00
EndChar

StartChar: quotedbl
Encoding: 34 34 72
Width: 808
Flags: HMW
LayerCount: 4
Fore
SplineSet
496 968 m 25
 484 1480 l 25
 668 1480 l 25
 656 968 l 25
 496 968 l 25
152 968 m 25
 140 1480 l 25
 324 1480 l 25
 312 968 l 25
 152 968 l 25
EndSplineSet
Validated: 1
Colour: ff00
EndChar

StartChar: bracketleft
Encoding: 91 91 73
Width: 858
Flags: HMW
LayerCount: 4
Fore
SplineSet
788 1480 m 25
 320 1480 l 25
 320 -160 l 25
 788 -160 l 25
 788 -320 l 25
 140 -320 l 25
 140 1640 l 25
 788 1640 l 25
 788 1480 l 25
EndSplineSet
Validated: 1
Colour: ff00
EndChar

StartChar: bracketright
Encoding: 93 93 74
Width: 858
Flags: HMW
LayerCount: 4
Fore
SplineSet
70 1480 m 25
 70 1640 l 25
 718 1640 l 25
 718 -320 l 25
 70 -320 l 25
 70 -160 l 25
 538 -160 l 25
 538 1480 l 25
 70 1480 l 25
EndSplineSet
Validated: 1
Colour: ff00
EndChar

StartChar: parenright
Encoding: 41 41 75
Width: 818
Flags: HMW
LayerCount: 4
Fore
SplineSet
718 660 m 0
 718 60 284 -285 134 -340 c 1
 50 -195 l 1
 163 -154 538 120 538 660 c 0
 538 1200 163 1474 50 1515 c 9
 134 1660 l 1
 284 1605 718 1260 718 660 c 0
EndSplineSet
Validated: 1
Colour: ff00
EndChar

StartChar: braceleft
Encoding: 123 123 76
Width: 770
VWidth: 1000
Flags: HMW
LayerCount: 4
Fore
SplineSet
480 60 m 0
 480 410 l 1
 480 630 320 740 100 740 c 1
 100 580 l 1
 210 580 300 520 300 410 c 1
 300 249 300 225 300 60 c 16
 300 -195 445 -320 700 -320 c 0
 700 -160 l 0
 542 -160 480 -98 480 60 c 0
480 1260 m 0
 480 1418 542 1480 700 1480 c 0
 700 1640 l 0
 445 1640 300 1515 300 1260 c 8
 300 1095 300 1071 300 910 c 1
 300 800 210 740 100 740 c 1
 100 580 l 1
 320 580 480 690 480 910 c 1
 480 1260 l 0
EndSplineSet
Validated: 5
Colour: ff00
EndChar

StartChar: braceright
Encoding: 125 125 77
Width: 770
VWidth: 1000
Flags: HMW
LayerCount: 4
Fore
SplineSet
290 60 m 0
 290 410 l 1
 290 630 450 740 670 740 c 1
 670 580 l 1
 560 580 470 520 470 410 c 1
 470 249 470 225 470 60 c 16
 470 -195 325 -320 70 -320 c 0
 70 -160 l 0
 228 -160 290 -98 290 60 c 0
290 1260 m 0
 290 1418 228 1480 70 1480 c 0
 70 1640 l 0
 325 1640 470 1515 470 1260 c 8
 470 1095 470 1071 470 910 c 1
 470 800 560 740 670 740 c 1
 670 580 l 1
 450 580 290 690 290 910 c 1
 290 1260 l 0
EndSplineSet
Validated: 5
Colour: ff00
EndChar

StartChar: backslash
Encoding: 92 92 78
Width: 964
VWidth: 1000
Flags: HMW
LayerCount: 4
Fore
SplineSet
70 1640 m 1
 260 1640 l 1
 894 -200 l 1
 704 -200 l 1
 70 1640 l 1
EndSplineSet
Validated: 1
Colour: ff00
EndChar

StartChar: bar
Encoding: 124 124 79
Width: 460
Flags: HMW
LayerCount: 4
Fore
SplineSet
320 1640 m 25
 320 -440 l 25
 140 -440 l 1
 140 1640 l 1
 320 1640 l 25
EndSplineSet
Validated: 1
Colour: ff00
EndChar

StartChar: numbersign
Encoding: 35 35 80
Width: 1498
VWidth: 1000
Flags: HMW
LayerCount: 4
Fore
SplineSet
140 440 m 1
 1320 440 l 1
 1320 600 l 1
 140 600 l 1
 140 440 l 1
178 880 m 1
 1358 880 l 1
 1358 1040 l 1
 178 1040 l 1
 178 880 l 1
986 1480 m 1
 792 0 l 1
 849 0 919 0 976 0 c 1
 1170 1480 l 1
 986 1480 l 1
522 1480 m 1
 328 0 l 1
 385 0 455 0 512 0 c 1
 706 1480 l 1
 522 1480 l 1
EndSplineSet
Validated: 5
Colour: ff00
EndChar

StartChar: gravecomb
Encoding: 768 768 83
Width: 0
VWidth: 1000
Flags: HMW
AnchorPoint: "circumflex_left" 653 1092 mark 0
AnchorPoint: "top_center" 598 1040 mark 0
LayerCount: 4
Fore
SplineSet
519 1224 m 1
 293 1480 l 1
 519 1480 l 1
 697 1224 l 1
 519 1224 l 1
EndSplineSet
Colour: ffff00
EndChar

StartChar: acutecomb
Encoding: 769 769 84
Width: 0
VWidth: 1000
Flags: HMW
AnchorPoint: "circumflex_right" 543 1092 mark 0
AnchorPoint: "top_center" 598 1040 mark 0
LayerCount: 4
Fore
SplineSet
677 1224 m 1
 499 1224 l 1
 677 1480 l 1
 903 1480 l 1
 677 1224 l 1
EndSplineSet
Colour: ffff00
EndChar

StartChar: uni0302
Encoding: 770 770 85
Width: 0
VWidth: 1000
Flags: HMW
AnchorPoint: "top_center" 598 1040 mark 0
LayerCount: 4
Fore
SplineSet
711 1224 m 1
 503 1480 l 1
 693 1480 l 1
 889 1224 l 1
 711 1224 l 1
485 1224 m 1
 307 1224 l 1
 503 1480 l 1
 693 1480 l 1
 485 1224 l 1
EndSplineSet
Colour: ffff00
EndChar

StartChar: tildecomb
Encoding: 771 771 86
Width: 0
VWidth: 1000
Flags: HMW
AnchorPoint: "top_center" 598 1040 mark 0
LayerCount: 4
Fore
SplineSet
396 1227 m 1
 257 1264 l 1
 273 1400 363 1490 471 1490 c 0
 603 1490 637 1354 717 1354 c 0
 765 1354 787 1417 792 1477 c 1
 931 1440 l 1
 915 1304 825 1214 717 1214 c 0
 585 1214 551 1350 471 1350 c 0
 423 1350 401 1287 396 1227 c 1
EndSplineSet
Colour: ffff00
EndChar

StartChar: uni0308
Encoding: 776 776 87
Width: 0
VWidth: 1000
Flags: HMW
AnchorPoint: "top_center" 599 1040 mark 0
AnchorPoint: "dieresis_center" 598 1350 basechar 0
LayerCount: 4
Fore
SplineSet
694 1352 m 0
 694 1424 750 1480 822 1480 c 0
 894 1480 950 1424 950 1352 c 0
 950 1280 894 1224 822 1224 c 0
 750 1224 694 1280 694 1352 c 0
246 1352 m 0
 246 1424 302 1480 374 1480 c 4
 446 1480 502 1424 502 1352 c 0
 502 1280 446 1224 374 1224 c 0
 302 1224 246 1280 246 1352 c 0
EndSplineSet
Colour: ff00
EndChar

StartChar: uni030A
Encoding: 778 778 88
Width: 0
VWidth: 1000
Flags: HMW
AnchorPoint: "top_center" 598 1040 mark 0
LayerCount: 4
Fore
SplineSet
375 1361 m 0
 375 1475 476 1574 598 1574 c 0
 720 1574 821 1475 821 1361 c 0
 821 1247 720 1148 598 1148 c 0
 476 1148 375 1247 375 1361 c 0
502 1361 m 0
 502 1307 544 1265 598 1265 c 0
 652 1265 694 1307 694 1361 c 0
 694 1415 652 1457 598 1457 c 0
 544 1457 502 1415 502 1361 c 0
EndSplineSet
Colour: ffc71c
EndChar

StartChar: ccedilla
Encoding: 231 231 89
Width: 1142
Flags: HM
LayerCount: 4
Back
SplineSet
483 -220 m 4
 483 -244 504 -263 536 -263 c 4
 568 -263 589 -244 589 -220 c 4
 589 -196 568 -177 536 -177 c 4
 504 -177 483 -196 483 -220 c 4
356 -220 m 4
 356 -130 436 -60 536 -60 c 4
 636 -60 716 -130 716 -220 c 4
 716 -310 636 -380 536 -380 c 4
 436 -380 356 -310 356 -220 c 4
EndSplineSet
Fore
Refer: 90 807 N 1 0 0 1 81 0 2
Refer: 10 99 N 1 0 0 1 0 0 3
Substitution2: "'smcp' Bas-de-casse vers petites capitales lookups0-1" ccedilla.sc
Colour: ff
EndChar

StartChar: uni0327
Encoding: 807 807 90
Width: 0
VWidth: 1000
Flags: HMW
AnchorPoint: "bottom_cedilla" 517 -20 mark 0
LayerCount: 4
Fore
SplineSet
360 -291 m 1
 468 -229 l 1
 486 -258 511 -263 532 -263 c 0
 564 -263 585 -240 585 -216 c 0
 585 -192 564 -169 532 -169 c 0
 510 -169 492 -178 484 -192 c 1
 376 -130 l 1
 408 -84 467 -52 532 -52 c 0
 632 -52 712 -126 712 -216 c 0
 712 -306 632 -380 532 -380 c 0
 466 -380 398 -352 360 -291 c 1
453 0 m 1
 581 0 l 1
 485 -165 l 1
 484 -192 l 1
 377 -131 l 1
 453 0 l 1
EndSplineSet
Colour: ffc71c
EndChar

StartChar: odieresis
Encoding: 246 246 134
Width: 1196
Flags: HM
AnchorPoint: "top_center" 598 1400 basechar 0
LayerCount: 4
Fore
SplineSet
280 520 m 0
 280 300 407 140 598 140 c 0
 789 140 916 300 916 520 c 0
 916 740 789 900 598 900 c 0
 407 900 280 740 280 520 c 0
100 520 m 0
 100 832 317 1060 598 1060 c 0
 879 1060 1096 832 1096 520 c 0
 1096 208 879 -20 598 -20 c 0
 317 -20 100 208 100 520 c 0
EndSplineSet
Refer: 87 776 N 1 0 0 1 -1 0 2
Substitution2: "'smcp' Bas-de-casse vers petites capitales lookups0-1" odieresis.sc
Colour: ff
EndChar

StartChar: dotlessi
Encoding: 305 305 141
Width: 460
Flags: HMW
LayerCount: 4
Fore
SplineSet
140 0 m 1
 140 1040 l 1
 320 1040 l 1
 320 0 l 1
 140 0 l 1
EndSplineSet
Validated: 1
Substitution2: "'smcp' Bas-de-casse vers petites capitales lookups0-1" dotlessi.sc
Colour: ff00
EndChar

StartChar: dollar
Encoding: 36 36 142
Width: 1219
VWidth: 1000
Flags: HMW
LayerCount: 4
Fore
SplineSet
610 1332 m 0
 400 1332 314 1214 314 1086 c 0
 314 958 403 889 610 837 c 0
 903 763 1119 649 1119 394 c 0
 1119 139 916 -20 610 -20 c 0
 329 -20 127 158 100 396 c 1
 287 446 l 0
 287 290 410 148 610 148 c 0
 830 148 933 254 933 394 c 0
 933 534 818 600 610 653 c 0
 315 728 124 846 124 1086 c 0
 124 1326 319 1500 610 1500 c 0
 891 1500 1066 1322 1093 1084 c 1
 906 1034 l 0
 906 1190 810 1332 610 1332 c 0
686 1660 m 25
 686 -180 l 25
 534 -180 l 1
 534 1660 l 1
 686 1660 l 25
EndSplineSet
Colour: ffff
EndChar

StartChar: plus
Encoding: 43 43 143
Width: 1208
Flags: HMW
LayerCount: 4
Fore
SplineSet
514 1124 m 1
 514 196 l 1
 694 196 l 9
 694 1124 l 1
 514 1124 l 1
140 580 m 1
 1068 580 l 1
 1068 740 l 9
 140 740 l 1
 140 580 l 1
EndSplineSet
Validated: 5
Substitution2: "'ss06' Bigger operators lookups0-1" plus.ss06
Colour: ff00
EndChar

StartChar: hyphen
Encoding: 45 45 144
Width: 1028
Flags: HMW
LayerCount: 4
Fore
SplineSet
140 580 m 1
 140 740 l 1
 888 740 l 17
 888 580 l 1
 140 580 l 1
EndSplineSet
Validated: 1
Substitution2: "'ss06' Bigger operators lookups0-1" hyphen.ss06
Colour: ff00
EndChar

StartChar: equal
Encoding: 61 61 145
Width: 1398
Flags: HMW
LayerCount: 4
Fore
SplineSet
1258 920 m 1
 1258 760 l 1
 140 760 l 17
 140 920 l 1
 1258 920 l 1
140 400 m 1
 140 560 l 1
 1258 560 l 17
 1258 400 l 1
 140 400 l 1
EndSplineSet
Validated: 1
Colour: ff00
EndChar

StartChar: percent
Encoding: 37 37 146
Width: 1634
VWidth: 1000
Flags: HMW
LayerCount: 4
Fore
SplineSet
280 1180 m 0
 280 1090 330 1020 420 1020 c 0
 510 1020 560 1090 560 1180 c 0
 560 1270 510 1340 420 1340 c 0
 330 1340 280 1270 280 1180 c 0
100 1180 m 0
 100 1358 242 1500 420 1500 c 0
 598 1500 740 1358 740 1180 c 0
 740 1002 598 860 420 860 c 0
 242 860 100 1002 100 1180 c 0
1074 300 m 0
 1074 210 1124 140 1214 140 c 0
 1304 140 1354 210 1354 300 c 0
 1354 390 1304 460 1214 460 c 0
 1124 460 1074 390 1074 300 c 0
894 300 m 0
 894 478 1036 620 1214 620 c 0
 1392 620 1534 478 1534 300 c 0
 1534 122 1392 -20 1214 -20 c 0
 1036 -20 894 122 894 300 c 0
1335 1395 m 5
 438 0 l 5
 291 85 l 5
 1188 1480 l 5
 1335 1395 l 5
EndSplineSet
Colour: ff00
EndChar

StartChar: degree
Encoding: 176 176 147
Width: 840
VWidth: 1000
Flags: HMW
LayerCount: 4
Fore
SplineSet
280 1180 m 0
 280 1090 330 1020 420 1020 c 0
 510 1020 560 1090 560 1180 c 0
 560 1270 510 1340 420 1340 c 0
 330 1340 280 1270 280 1180 c 0
100 1180 m 0
 100 1358 242 1500 420 1500 c 0
 598 1500 740 1358 740 1180 c 0
 740 1002 598 860 420 860 c 0
 242 860 100 1002 100 1180 c 0
EndSplineSet
Validated: 1
Colour: ff00
EndChar

StartChar: ampersand
Encoding: 38 38 148
Width: 1355
VWidth: 1000
Flags: HMW
LayerCount: 4
Back
SplineSet
1020 600 m 4
 1020 360 880 140 600 140 c 4
 400 140 280 262 280 418 c 4
 100 418 l 4
 100 175 300 -20 600 -20 c 4
 1020 -20 1183 265 1203 550 c 5
 1020 600 l 4
EndSplineSet
Fore
SplineSet
316 885 m 1
 459 976 l 1
 422 1023 408 1068 408 1128 c 0
 408 1268 492 1340 600 1340 c 0
 720 1340 792 1252 792 1152 c 0
 972 1172 l 0
 972 1372 800 1500 600 1500 c 0
 400 1500 228 1347 228 1128 c 0
 228 1026 260 960 316 885 c 1
459 976 m 1
 316 885 l 1
 1041 0 l 1
 1112 0 1184 0 1255 0 c 1
 459 976 l 1
100 418 m 1
 280 418 l 1
 280 561 427 640 600 740 c 0
 799 855 972 972 972 1172 c 1
 792 1152 l 1
 792 1052 730 1001 600 926 c 0
 340 776 100 661 100 418 c 1
1020 620 m 0
 1020 420 900 140 600 140 c 0
 400 140 280 262 280 418 c 0
 100 418 l 0
 100 175 300 -20 600 -20 c 0
 1020 -20 1171 288 1191 573 c 1
 1020 620 l 0
EndSplineSet
Validated: 5
Layer: 2
SplineSet
315.7890625 895.231445312 m 5
 260.015625 970.026367188 228 1045.75 228 1148 c 0
 228 1367 400 1500 600 1500 c 0
 800 1500 972 1367 972 1148 c 0
 792 1148 l 0
 792 1268 708 1340 600 1340 c 0
 492 1340 408 1288 408 1148 c 0
 408 1068 423.116210938 1031.30761719 460.055664062 984.02734375 c 5
 315.7890625 895.231445312 l 5
792 1148 m 1
 972 1148 l 1025
EndSplineSet
Layer: 3
SplineSet
459 986 m 1
 316 895 l 1
 1041 0 l 5
 1112.33300781 0 1183.66699219 0 1255 0 c 5
 459 986 l 1
100 418 m 1
 100 661 340.192382812 776 600 926 c 0
 729.904296875 1001 792 1028 792 1148 c 1
 972 1148 l 1
 972 948 799.185546875 855 600 740 c 0
 426.794921875 640 280 561 280 418 c 1
 100 418 l 1
EndSplineSet
Substitution2: "'ss03' Alternative ampersand lookups0-1" ampersand.ss03
Colour: ff00
EndChar

StartChar: asterisk
Encoding: 42 42 149
Width: 1036
Flags: HMW
LayerCount: 4
Back
SplineSet
438 1070 m 21
 518 1070 l 5
 598 1070 l 13
 610 1480 l 29
 426 1480 l 29
 438 1070 l 21
EndSplineSet
Fore
SplineSet
493 1030 m 17
 518 1106 l 1
 543 1182 l 9
 156 1320 l 25
 100 1145 l 25
 493 1030 l 17
583 1059 m 17
 518 1106 l 1
 453 1153 l 9
 203 828 l 25
 351 720 l 25
 583 1059 l 17
583 1153 m 17
 518 1106 l 1
 453 1059 l 9
 685 720 l 25
 833 828 l 25
 583 1153 l 17
493 1182 m 17
 518 1106 l 1
 543 1030 l 9
 936 1145 l 25
 880 1320 l 25
 493 1182 l 17
438 1106 m 17
 518 1106 l 1
 598 1106 l 9
 610 1516 l 25
 426 1516 l 25
 438 1106 l 17
EndSplineSet
Validated: 5
Substitution2: "'cv03' Centered asterisk lookup0-1" asterisk.centered
Colour: ff00
EndChar

StartChar: less
Encoding: 60 60 150
Width: 1208
Flags: HMW
LayerCount: 4
Fore
SplineSet
140 576 m 1
 140 576 l 1
 140 576 l 1
 140 744 l 1
 140 744 l 1
 140 744 l 1
 1068 1112 l 1
 1068 940 l 1
 350 660 l 1
 1068 380 l 1
 1068 208 l 1
 140 576 l 1
EndSplineSet
Validated: 5
Colour: ff00
EndChar

StartChar: greater
Encoding: 62 62 151
Width: 1208
Flags: HMW
LayerCount: 4
Fore
SplineSet
1068 576 m 1
 140 208 l 1
 140 380 l 1
 858 660 l 1
 140 940 l 1
 140 1112 l 1
 1068 744 l 1
 1068 744 l 1
 1068 744 l 1
 1068 576 l 1
 1068 576 l 1
 1068 576 l 1
EndSplineSet
Validated: 5
Colour: ff00
EndChar

StartChar: at
Encoding: 64 64 152
Width: 2000
VWidth: 1000
Flags: HMW
LayerCount: 4
Back
SplineSet
1237.51367188 580 m 4
 1212.63769531 403 1110.14648438 307 960.146484375 307 c 4
 810.146484375 307 734.637695312 403 759.513671875 580 c 4
 784.389648438 757 886.741210938 852 1036.74121094 852 c 4
 1186.74121094 852 1262.38964844 757 1237.51367188 580 c 4
1399.51367188 580 m 4
 1364.37890625 330 1187.79980469 148 937.799804688 148 c 4
 687.799804688 148 544.37890625 330 579.513671875 580 c 4
 614.6484375 830 809.227539062 1012 1059.22753906 1012 c 4
 1159.22753906 1012 1229.86816406 956.568359375 1278.48632812 900 c 5
 1285.23242188 948 1291.97851562 996 1291.97851562 996 c 5
 1457.97851562 996 l 5
 1457.97851562 996 1450.67089844 944 1439.14648438 862 c 5
 1399.51367188 580 l 4
EndSplineSet
Fore
SplineSet
1635 -149 m 1
 1484 -268 1218 -340 1000 -340 c 0
 480 -340 100 60 100 580 c 0
 100 1100 480 1500 1000 1500 c 0
 1520 1500 1900 1180 1900 660 c 0
 1720 660 l 0
 1720 1080 1420 1340 1000 1340 c 0
 580 1340 280 1000 280 580 c 0
 280 160 580 -180 1000 -180 c 0
 1187 -180 1423 -112 1547 0 c 1
 1635 -149 l 1
1224 580 m 0
 1249 757 1173 852 1023 852 c 0
 873 852 771 757 746 580 c 0
 721 403 796 307 946 307 c 0
 1096 307 1199 403 1224 580 c 0
1386 580 m 0
 1344 283 1174 148 924 148 c 0
 674 148 531 346 566 596 c 0
 601 846 795 1012 1045 1012 c 0
 1145 1012 1215 957 1264 900 c 1
 1271 948 1278 996 1278 996 c 1
 1444 996 l 1
 1444 996 1437 944 1425 862 c 1
 1386 580 l 0
1900 660 m 1
 1900 360 1714 148 1474 148 c 0
 1264 148 1182 283 1224 580 c 1
 1386 580 l 1
 1361 402 1357 307 1497 307 c 0
 1637 307 1720 441 1720 660 c 1
 1900 660 l 1
EndSplineSet
Validated: 37
Colour: ff00
EndChar

StartChar: asciicircum
Encoding: 94 94 153
Width: 1096
VWidth: 1000
Flags: HMW
LayerCount: 4
Fore
SplineSet
810 656 m 1
 549 1270 l 1
 286 656 l 1
 100 656 l 1
 460 1480 l 1
 636 1480 l 1
 996 656 l 1
 810 656 l 1
EndSplineSet
Validated: 1
Colour: ff00
EndChar

StartChar: underscore
Encoding: 95 95 154
Width: 1118
Flags: HMW
LayerCount: 4
Fore
SplineSet
0 0 m 1
 1118 0 l 1
 1118 -160 l 1
 0 -160 l 1
 0 0 l 1
EndSplineSet
Validated: 1
Colour: ff00
EndChar

StartChar: grave
Encoding: 96 96 155
Width: 544
VWidth: 1000
Flags: HMW
AnchorPoint: "top_center" 375 1040 mark 0
AnchorPoint: "top_left_O2" 564 1224 mark 0
AnchorPoint: "top_left" 577 1480 mark 0
AnchorPoint: "dieresis_center" 375 1140 mark 0
LayerCount: 4
Fore
SplineSet
296 1224 m 1
 70 1480 l 1
 296 1480 l 1
 474 1224 l 1
 296 1224 l 1
EndSplineSet
Colour: ffff00
EndChar

StartChar: asciitilde
Encoding: 126 126 156
Width: 1168
VWidth: 1000
Flags: HMW
LayerCount: 4
Fore
SplineSet
278 472 m 1
 100 520 l 1
 123 715 251 840 406 840 c 0
 606 840 647 652 762 652 c 0
 831 652 882 740 890 840 c 1
 1068 792 l 1
 1045 597 917 472 762 472 c 0
 562 472 521 660 406 660 c 0
 337 660 286 572 278 472 c 1
EndSplineSet
Validated: 1
Substitution2: "'ss06' Bigger operators lookups0-1" f.ss05
Colour: ff00
EndChar

StartChar: exclamdown
Encoding: 161 161 157
Width: 532
Flags: HMW
LayerCount: 4
Fore
SplineSet
392 933 m 0
 392 861 339 804 267 804 c 0
 195 804 140 861 140 933 c 0
 140 1005 195 1060 267 1060 c 0
 339 1060 392 1005 392 933 c 0
373 -440 m 1
 161 -440 l 1
 177 588 l 1
 357 588 l 1
 373 -440 l 1
EndSplineSet
Validated: 1
Colour: ff00
EndChar

StartChar: cent
Encoding: 162 162 158
Width: 1142
VWidth: 1000
Flags: HMW
LayerCount: 4
Fore
SplineSet
862 1220 m 25
 482 -180 l 25
 334 -180 l 1
 714 1220 l 1
 862 1220 l 25
280 520 m 0
 280 300 407 140 598 140 c 0
 739 140 840 207 889 340 c 1
 1042 252 l 1
 959 74 797 -20 598 -20 c 0
 317 -20 100 208 100 520 c 0
 100 832 317 1060 598 1060 c 0
 797 1060 959 966 1042 788 c 1
 889 700 l 1
 840 833 739 900 598 900 c 0
 407 900 280 740 280 520 c 0
EndSplineSet
Validated: 5
Colour: ff00
EndChar

StartChar: sterling
Encoding: 163 163 159
Width: 1300
VWidth: 1000
Flags: HMW
LayerCount: 4
Fore
SplineSet
320 660 m 1
 738 660 l 1
 738 820 l 1
 320 820 l 1
 68 820 l 1
 68 774 68 706 68 660 c 1
 320 660 l 1
172 1040 m 0
 172 768 300 654 300 474 c 0
 300 354 193 216 100 141 c 1
 277 81 l 1
 320 141 480 290 480 490 c 0
 480 690 352 800 352 1040 c 0
 172 1040 l 0
100 141 m 1
 139 -20 l 1
 250 34 380 88 498 88 c 0
 654 88 733 -20 933 -20 c 0
 1053 -20 1154 23 1200 50 c 1
 1160 211 l 1
 1130 191 1013 140 933 140 c 0
 777 140 698 248 498 248 c 0
 358 248 190 176 100 141 c 1
974 949 m 1
 1148 1000 l 0
 1148 1300 940 1500 660 1500 c 0
 380 1500 172 1320 172 1040 c 0
 352 1040 l 0
 352 1220 480 1340 660 1340 c 0
 840 1340 977 1200 977 1000 c 0
 977 982 976 966 974 949 c 1
EndSplineSet
Validated: 5
Layer: 2
SplineSet
172 1040 m 4
 172 768 280 700 280 520 c 4
 280 400 226 215 172 104 c 5
 353 65 l 5
 388 155 460 340 460 540 c 4
 460 740 352 800 352 1040 c 4
 172 1040 l 4
EndSplineSet
Colour: ff00
EndChar

StartChar: currency
Encoding: 164 164 160
Width: 2048
Flags: HM
LayerCount: 4
Fore
SplineSet
1270 798 m 17
 1142 926 l 9
 1432 1216 l 25
 1560 1088 l 25
 1270 798 l 17
730 514 m 17
 858 386 l 9
 568 96 l 25
 440 224 l 25
 730 514 l 17
1142 386 m 17
 1270 514 l 9
 1560 224 l 25
 1432 96 l 25
 1142 386 l 17
858 926 m 17
 730 798 l 9
 440 1088 l 25
 568 1216 l 25
 858 926 l 17
560 656 m 0
 560 907 737 1096 1000 1096 c 0
 1263 1096 1440 907 1440 656 c 0
 1440 405 1263 216 1000 216 c 0
 737 216 560 405 560 656 c 0
740 656 m 0
 740 496 840 376 1000 376 c 0
 1160 376 1260 496 1260 656 c 0
 1260 816 1160 936 1000 936 c 0
 840 936 740 816 740 656 c 0
EndSplineSet
Validated: 5
Colour: ff00
EndChar

StartChar: yen
Encoding: 165 165 161
Width: 1392
VWidth: 1000
Flags: HMW
LayerCount: 4
Fore
SplineSet
232 608 m 1
 232 760 l 1
 1160 760 l 17
 1160 608 l 1
 232 608 l 1
232 320 m 1
 232 472 l 1
 1160 472 l 17
 1160 320 l 1
 232 320 l 1
601 0 m 1
 601 740 l 1
 791 740 l 1
 791 0 l 1
 601 0 l 1
755 628 m 1
 621 666 l 1
 70 1480 l 1
 284 1480 l 1
 696 858 l 1
 1108 1480 l 1
 1322 1480 l 1
 755 628 l 1
EndSplineSet
Validated: 5
Colour: ffff
EndChar

StartChar: brokenbar
Encoding: 166 166 162
Width: 460
Flags: HMW
LayerCount: 4
Fore
SplineSet
140 570 m 1
 320 570 l 1
 320 -320 l 9
 140 -320 l 1
 140 570 l 1
320 750 m 1
 140 750 l 1
 140 1640 l 1
 320 1640 l 17
 320 750 l 1
EndSplineSet
Validated: 1
Colour: ff00
EndChar

StartChar: section
Encoding: 167 167 163
Width: 1144
VWidth: 1000
Flags: HMW
LayerCount: 4
Fore
SplineSet
572 755 m 0
 381 755 286 651 286 531 c 0
 286 411 364 353 572 300 c 0
 867 225 1018 139 1018 -81 c 0
 1018 -301 827 -455 572 -455 c 0
 317 -455 178 -318 116 -128 c 1
 277 -36 l 1
 314 -150 381 -285 572 -285 c 0
 763 -285 828 -201 828 -81 c 0
 828 39 779 88 572 140 c 0
 279 214 100 311 100 531 c 0
 100 751 317 905 572 905 c 0
 572 755 l 0
572 290 m 0
 763 290 858 394 858 514 c 0
 858 634 780 682 572 735 c 0
 277 810 142 906 142 1126 c 0
 142 1346 317 1500 572 1500 c 0
 827 1500 950 1363 1012 1173 c 1
 851 1081 l 1
 814 1195 763 1330 572 1330 c 0
 381 1330 332 1246 332 1126 c 0
 332 1006 365 957 572 905 c 0
 865 831 1044 734 1044 514 c 0
 1044 294 827 140 572 140 c 0
 572 290 l 0
EndSplineSet
Validated: 5
Colour: ff00
EndChar

StartChar: dieresis
Encoding: 168 168 164
Width: 984
VWidth: 1000
Flags: HMW
LayerCount: 4
Fore
SplineSet
588 1318 m 0
 588 1390 644 1446 716 1446 c 0
 788 1446 844 1390 844 1318 c 0
 844 1246 788 1190 716 1190 c 0
 644 1190 588 1246 588 1318 c 0
140 1318 m 0
 140 1390 196 1446 268 1446 c 0
 340 1446 396 1390 396 1318 c 0
 396 1246 340 1190 268 1190 c 0
 196 1190 140 1246 140 1318 c 0
EndSplineSet
Colour: ff00
EndChar

StartChar: copyright
Encoding: 169 169 165
Width: 1720
Flags: HMW
LayerCount: 4
Fore
SplineSet
1135 905 m 1
 1083 1018 998 1099 872 1099 c 0
 691 1099 553 952 553 740 c 0
 553 528 691 381 872 381 c 0
 998 381 1083 462 1135 575 c 1
 1265 510 l 1
 1189 354 1034 254 861 254 c 0
 607 254 409 459 409 740 c 0
 409 1021 607 1226 861 1226 c 0
 1034 1226 1189 1126 1265 970 c 1
 1135 905 l 1
243 740 m 0
 243 400 520 123 860 123 c 0
 1200 123 1477 400 1477 740 c 0
 1477 1080 1200 1357 860 1357 c 0
 520 1357 243 1080 243 740 c 0
100 740 m 0
 100 1160 440 1500 860 1500 c 0
 1280 1500 1620 1160 1620 740 c 0
 1620 320 1280 -20 860 -20 c 0
 440 -20 100 320 100 740 c 0
EndSplineSet
Validated: 1
Colour: ff8000
EndChar

StartChar: registered
Encoding: 174 174 166
Width: 1720
Flags: HMW
LayerCount: 4
Fore
SplineSet
781 665 m 1
 1052 273 l 1
 1208 273 l 1
 872 733 l 1
 781 665 l 1
684 1082 m 25
 861 1082 l 17
 964 1082 1040 1013 1040 919 c 0
 1040 825 964 757 861 757 c 9
 684 757 l 25
 684 1082 l 25
541 273 m 1
 684 273 l 25
 684 631 l 1
 861 631 l 1
 1033 631 1182 757 1182 919 c 0
 1182 1081 1033 1208 861 1208 c 1
 541 1208 l 1
 541 273 l 1
243 740 m 0
 243 400 520 123 860 123 c 0
 1200 123 1477 400 1477 740 c 0
 1477 1080 1200 1357 860 1357 c 0
 520 1357 243 1080 243 740 c 0
100 740 m 0
 100 1160 440 1500 860 1500 c 0
 1280 1500 1620 1160 1620 740 c 0
 1620 320 1280 -20 860 -20 c 0
 440 -20 100 320 100 740 c 0
EndSplineSet
Validated: 5
Colour: ff8000
EndChar

StartChar: questiondown
Encoding: 191 191 167
Width: 1144
VWidth: 1000
Flags: HMW
LayerCount: 4
Fore
SplineSet
572 -300 m 0
 383 -300 280 -172 280 -14 c 0
 280 144 382 264 572 264 c 0
 572 432 l 0
 317 432 100 256 100 -14 c 0
 100 -284 302 -460 572 -460 c 0
 842 -460 1044 -262 1044 8 c 0
 859 62 l 1
 862 45 864 27 864 8 c 0
 864 -150 762 -300 572 -300 c 0
702 933 m 0
 702 861 649 804 577 804 c 0
 505 804 450 861 450 933 c 0
 450 1005 505 1060 577 1060 c 0
 649 1060 702 1005 702 933 c 0
662 588 m 1
 482 588 l 1
 482 264 l 1
 662 264 l 1
 662 588 l 1
EndSplineSet
Validated: 5
Colour: ff00
EndChar

StartChar: mu
Encoding: 181 181 168
Width: 1176
VWidth: 1000
Flags: HMW
LayerCount: 4
Fore
SplineSet
1064 -20 m 1
 1106 138 l 0
 1046 138 1016 167 1016 227 c 2
 1016 507 l 1
 836 507 l 1
 836 227 l 2
 836 72 920 -7 1064 -20 c 1
836 1040 m 1
 836 468 l 2
 836 249 758 140 578 140 c 0
 398 140 320 249 320 468 c 2
 320 1040 l 1
 140 1040 l 1
 140 -440 l 1
 320 -440 l 1
 320 108 l 1
 405 23 493 -20 618 -20 c 0
 888 -20 1016 148 1016 468 c 1
 1016 1040 l 1
 836 1040 l 1
EndSplineSet
Validated: 5
Colour: ff00
EndChar

StartChar: two.superior
Encoding: 178 178 170
Width: 800
Flags: HMW
LayerCount: 4
Fore
SplineSet
65 740 m 1
 65 838 76 1006 394 1177 c 0
 469 1217 586 1274 586 1384 c 0
 586 1494 513 1552 400 1552 c 0
 287 1552 213 1462 213 1356 c 0
 213 1345 214 1336 215 1326 c 1
 70 1356 l 1
 70 1549 211 1678 400 1678 c 0
 589 1678 729 1569 729 1398 c 0
 729 1208 561 1124 402 1039 c 0
 288 978 246 922 224 866 c 1
 735 866 l 1
 735 740 l 1
 65 740 l 1
EndSplineSet
Validated: 1
Colour: ff8000
EndChar

StartChar: three.superior
Encoding: 179 179 171
Width: 800
Flags: HMW
LayerCount: 4
Fore
SplineSet
398 1285 m 2
 512 1285 578 1344 578 1423 c 0
 578 1502 512 1561 398 1561 c 0
 284 1561 218 1488 218 1409 c 1
 78 1438 l 1
 96 1570 208 1688 398 1688 c 0
 588 1688 722 1574 722 1431 c 0
 722 1349 673 1275 592 1228 c 1
 694 1177 756 1093 756 996 c 0
 756 841 607 716 398 716 c 0
 203 716 63 832 44 988 c 1
 184 1018 l 1
 184 927 265 843 398 843 c 0
 531 843 612 913 612 1004 c 0
 612 1095 532 1164 400 1164 c 2
 336 1164 l 1
 336 1285 l 1
 398 1285 l 2
EndSplineSet
Validated: 1
Colour: ff8000
EndChar

StartChar: one.superior
Encoding: 185 185 172
Width: 800
VWidth: 2288
Flags: HMW
LayerCount: 4
Fore
SplineSet
377 1367 m 1
 179 1367 l 1
 179 1486 l 1
 229 1486 l 2
 310 1486 386 1544 386 1621 c 2
 386 1665 l 1
 520 1665 l 1
 520 1357 520 1048 520 740 c 1
 377 740 l 1
 377 1367 l 1
EndSplineSet
Colour: ff8000
EndChar

StartChar: zero.superior
Encoding: 8304 8304 173
Width: 800
VWidth: 2288
Flags: HMW
LayerCount: 4
Fore
SplineSet
57 1202 m 0
 57 1522 198 1688 400 1688 c 0
 602 1688 744 1522 744 1202 c 0
 744 882 602 716 400 716 c 0
 198 716 57 882 57 1202 c 0
200 1202 m 0
 200 959 281 843 400 843 c 0
 519 843 601 959 601 1202 c 0
 601 1445 519 1561 400 1561 c 0
 281 1561 200 1445 200 1202 c 0
EndSplineSet
Validated: 1
Substitution2: "'zero' Slashed Zero lookups0-1" zero.superior.zero
Colour: ff8000
EndChar

StartChar: four.superior
Encoding: 8308 8308 174
Width: 800
VWidth: 2288
Flags: HMW
LayerCount: 4
Fore
SplineSet
542 1665 m 1
 391 1665 l 1
 60 1060 l 1
 60 933 l 1
 468 933 l 1
 468 740 l 1
 611 740 l 1
 611 933 l 1
 740 933 l 1
 740 1060 l 1
 611 1060 l 1
 611 1253 l 1
 472 1253 l 1
 472 1060 l 1
 209 1060 l 1
 542 1665 l 1
EndSplineSet
Validated: 9
Substitution2: "'ss01' Alternative digits 1 and 4 lookups0-1" four.ss01.superior
Colour: ff8000
EndChar

StartChar: five.superior
Encoding: 8309 8309 175
Width: 800
VWidth: 2288
Flags: HMW
LayerCount: 4
Fore
SplineSet
86 1194 m 1
 155 1665 l 1
 675 1665 l 1
 675 1539 l 1
 272 1539 l 1
 227 1290 l 1
 272 1336 334 1364 412 1364 c 0
 590 1364 740 1230 740 1046 c 0
 740 862 587 728 404 728 c 0
 209 728 79 843 60 996 c 1
 200 1025 l 1
 200 936 271 854 403 854 c 0
 521 854 597 929 597 1046 c 0
 597 1163 522 1238 404 1238 c 0
 306 1238 270 1226 224 1157 c 1
 86 1194 l 1
EndSplineSet
Validated: 1
Colour: ff8000
EndChar

StartChar: six.superior
Encoding: 8310 8310 176
Width: 800
VWidth: 2288
Flags: HMW
LayerCount: 4
Fore
SplineSet
217 1044 m 0
 217 923 298 843 409 843 c 0
 520 843 602 923 602 1044 c 0
 602 1165 520 1244 409 1244 c 0
 298 1244 217 1165 217 1044 c 0
194 1242 m 1
 235 1322 313 1371 417 1371 c 0
 608 1371 745 1232 745 1044 c 0
 745 856 604 716 408 716 c 0
 276 716 177 778 126 875 c 0
 103 914 55 1013 55 1174 c 0
 55 1507 250 1688 492 1688 c 0
 633 1688 715 1597 715 1597 c 1
 649 1502 l 1
 649 1502 593 1561 468 1561 c 0
 340 1561 218 1444 194 1242 c 1
EndSplineSet
Validated: 1
Substitution2: "'ss02' Alternative digits 6 and 9 lookups0-1" six.ss02.superior
Colour: ff8000
EndChar

StartChar: seven.superior
Encoding: 8311 8311 177
Width: 800
VWidth: 2288
Flags: HMW
LayerCount: 4
Fore
SplineSet
77 1539 m 1
 77 1665 l 1
 723 1665 l 1
 723 1561 l 1
 723 1561 406 1264 360 740 c 1
 216 740 l 1
 263 1252 563 1539 563 1539 c 1
 77 1539 l 1
EndSplineSet
Validated: 1
Colour: ff8000
EndChar

StartChar: eight.superior
Encoding: 8312 8312 178
Width: 800
VWidth: 2288
Flags: HMW
LayerCount: 4
Fore
SplineSet
399 1164 m 0
 266 1164 187 1095 187 1004 c 0
 187 913 266 843 399 843 c 0
 532 843 613 913 613 1004 c 0
 613 1095 532 1164 399 1164 c 0
219 1423 m 0
 219 1344 285 1285 399 1285 c 0
 513 1285 579 1344 579 1423 c 0
 579 1502 513 1561 399 1561 c 0
 285 1561 219 1502 219 1423 c 0
44 996 m 0
 44 1093 104 1177 205 1228 c 1
 124 1275 76 1349 76 1431 c 0
 76 1574 209 1688 399 1688 c 0
 589 1688 722 1574 722 1431 c 0
 722 1349 673 1275 592 1228 c 1
 694 1177 756 1093 756 996 c 0
 756 841 608 716 399 716 c 0
 190 716 44 841 44 996 c 0
EndSplineSet
Validated: 1
Colour: ff8000
EndChar

StartChar: nine.superior
Encoding: 8313 8313 179
Width: 800
VWidth: 2288
Flags: HMW
LayerCount: 4
Fore
SplineSet
583 1361 m 0
 583 1482 501 1561 390 1561 c 0
 279 1561 198 1482 198 1361 c 0
 198 1240 279 1161 390 1161 c 0
 501 1161 583 1240 583 1361 c 0
605 1163 m 1
 564 1083 486 1034 382 1034 c 0
 191 1034 55 1173 55 1361 c 0
 55 1549 195 1688 391 1688 c 0
 523 1688 623 1626 674 1529 c 0
 697 1490 745 1391 745 1230 c 0
 745 897 549 716 307 716 c 0
 166 716 85 807 85 807 c 1
 150 902 l 1
 150 902 206 843 331 843 c 0
 459 843 581 960 605 1163 c 1
EndSplineSet
Validated: 1
Substitution2: "'ss02' Alternative digits 6 and 9 lookups0-1" nine.ss02.superior
Colour: ff8000
EndChar

StartChar: ordfeminine
Encoding: 170 170 180
Width: 852
Flags: HMW
LayerCount: 4
Fore
SplineSet
630 1217 m 0
 562 1217 l 0
 562 1286 512 1332 400 1332 c 0
 288 1332 238 1286 238 1217 c 0
 238 1148 288 1103 400 1103 c 0
 494 1103 562 1150 562 1222 c 2
 562 1401 l 2
 562 1508 503 1557 396 1557 c 0
 271 1557 194 1492 194 1492 c 1
 132 1593 l 1
 132 1593 220 1677 402 1677 c 0
 567 1677 698 1610 698 1383 c 1
 698 1293 l 1
 698 1293 698 1187 698 1119 c 9
 588 1084 l 1
 531 1022 458 982 373 982 c 0
 201 982 102 1086 102 1217 c 0
 102 1348 227 1453 397 1453 c 0
 547 1453 630 1348 630 1217 c 0
727 982 m 1
 623 990 562 1040 562 1137 c 2
 562 1313 l 1
 698 1313 l 1
 698 1153 l 2
 698 1119 717 1101 754 1101 c 0
 727 982 l 1
100 740 m 1
 100 861 l 1
 752 861 l 1
 752 740 l 1
 100 740 l 1
EndSplineSet
Validated: 5
Substitution2: "'ss04' Simplified a and g lookups0-1" ordfeminine.ss04
Colour: ff8000
EndChar

StartChar: ordmasculine
Encoding: 186 186 181
Width: 868
Flags: HMW
LayerCount: 4
Fore
SplineSet
108 740 m 1
 108 861 l 1
 760 861 l 1
 760 740 l 1
 108 740 l 1
100 1330 m 0
 100 1531 246 1678 434 1678 c 0
 622 1678 768 1531 768 1330 c 0
 768 1129 622 982 434 982 c 0
 246 982 100 1129 100 1330 c 0
236 1330 m 0
 236 1199 314 1103 434 1103 c 0
 554 1103 634 1199 634 1330 c 0
 634 1461 554 1557 434 1557 c 0
 314 1557 236 1461 236 1330 c 0
EndSplineSet
Validated: 1
Colour: ff8000
EndChar

StartChar: guillemotleft
Encoding: 171 171 182
Width: 1182
VWidth: 1000
Flags: HMW
LayerCount: 4
Fore
SplineSet
878 196 m 1
 528 660 l 1
 878 1126 l 1
 1082 1126 l 1
 728 660 l 1
 1082 196 l 1
 878 196 l 1
450 196 m 1
 100 660 l 1
 450 1126 l 1
 654 1126 l 1
 300 660 l 1
 654 196 l 1
 450 196 l 1
EndSplineSet
Validated: 1
Colour: ff00
EndChar

StartChar: logicalnot
Encoding: 172 172 183
Width: 1208
Flags: HMW
LayerCount: 4
Fore
SplineSet
888 717 m 1
 888 340 l 1
 1068 340 l 1
 1068 717 l 1
 888 717 l 1
140 580 m 1
 1068 580 l 1
 1068 740 l 9
 140 740 l 1
 140 580 l 1
EndSplineSet
Validated: 5
Colour: ff00
EndChar

StartChar: guillemotright
Encoding: 187 187 185
Width: 1182
VWidth: 1000
Flags: HMW
LayerCount: 4
Fore
SplineSet
304 196 m 1
 654 660 l 1
 304 1126 l 1
 100 1126 l 1
 454 660 l 1
 100 196 l 1
 304 196 l 1
732 196 m 1
 1082 660 l 1
 732 1126 l 1
 528 1126 l 1
 882 660 l 1
 528 196 l 1
 732 196 l 1
EndSplineSet
Validated: 9
Colour: ff00
EndChar

StartChar: plusminus
Encoding: 177 177 186
Width: 1208
Flags: HMW
LayerCount: 4
Fore
SplineSet
514 1204 m 1
 514 276 l 1
 694 276 l 9
 694 1204 l 1
 514 1204 l 1
140 660 m 1
 1068 660 l 1
 1068 820 l 9
 140 820 l 1
 140 660 l 1
140 0 m 1
 1068 0 l 1
 1068 160 l 9
 140 160 l 1
 140 0 l 1
EndSplineSet
Validated: 5
Colour: ff00
EndChar

StartChar: paragraph
Encoding: 182 182 187
Width: 1317
VWidth: 1000
Flags: HMW
LayerCount: 4
Fore
SplineSet
567 1500 m 1
 567 1340 l 1
 1177 1340 l 1
 1177 1500 l 1
 567 1500 l 1
837 1500 m 1
 837 -440 l 1
 1017 -440 l 1
 1017 1500 l 1
 837 1500 l 1
477 1440 m 1
 477 -440 l 1
 657 -440 l 1
 657 1500 l 1
 567 1500 l 1
 477 1440 l 1
567 1500 m 0
 297 1500 100 1328 100 1058 c 0
 100 788 297 616 567 616 c 0
 567 1500 l 0
EndSplineSet
Validated: 5
Colour: ff00
EndChar

StartChar: periodcentered
Encoding: 183 183 188
Width: 532
Flags: HMW
LayerCount: 4
Fore
SplineSet
140 660 m 0
 140 732 193 789 265 789 c 4
 337 789 392 732 392 660 c 0
 392 588 337 533 265 533 c 0
 193 533 140 588 140 660 c 0
EndSplineSet
Colour: ff00
EndChar

StartChar: cedilla
Encoding: 184 184 189
Width: 552
VWidth: 1000
Flags: HMW
LayerCount: 4
Fore
SplineSet
100 -291 m 1
 208 -229 l 1
 226 -258 251 -263 272 -263 c 0
 304 -263 325 -240 325 -216 c 0
 325 -192 304 -169 272 -169 c 0
 250 -169 232 -178 224 -192 c 1
 116 -130 l 1
 148 -84 207 -52 272 -52 c 0
 372 -52 452 -126 452 -216 c 0
 452 -306 372 -380 272 -380 c 0
 206 -380 138 -352 100 -291 c 1
193 0 m 1
 321 0 l 1
 225 -165 l 1
 224 -192 l 1
 117 -131 l 1
 193 0 l 1
EndSplineSet
Validated: 5
Colour: ffc71c
EndChar

StartChar: threequarters
Encoding: 190 190 190
Width: 1997
VWidth: 1548
Flags: HMW
LayerCount: 4
Fore
SplineSet
1648 925 m 1
 1497 925 l 1
 1166 320 l 1
 1166 193 l 1
 1574 193 l 1
 1574 0 l 1
 1717 0 l 1
 1717 193 l 1
 1846 193 l 1
 1846 320 l 1
 1717 320 l 1
 1717 513 l 1
 1578 513 l 1
 1578 320 l 1
 1315 320 l 1
 1648 925 l 1
450 1100 m 2
 564 1100 630 1159 630 1238 c 0
 630 1317 564 1376 450 1376 c 0
 336 1376 270 1303 270 1224 c 1
 130 1253 l 1
 148 1385 260 1503 450 1503 c 0
 640 1503 774 1389 774 1246 c 0
 774 1164 725 1090 644 1043 c 1
 746 992 808 908 808 811 c 0
 808 656 659 531 450 531 c 0
 255 531 115 647 96 803 c 1
 236 833 l 1
 236 742 317 658 450 658 c 0
 583 658 664 728 664 819 c 0
 664 910 584 979 452 979 c 2
 388 979 l 1
 388 1100 l 1
 450 1100 l 2
700 98 m 1
 592 160 l 1
 1297 1382 l 1
 1405 1320 l 1
 700 98 l 1
EndSplineSet
Validated: 9
Colour: ff8000
EndChar

StartChar: onequarter
Encoding: 188 188 191
Width: 1997
VWidth: 1548
Flags: HMW
LayerCount: 4
Fore
SplineSet
1648 925 m 1
 1497 925 l 1
 1166 320 l 1
 1166 193 l 1
 1574 193 l 1
 1574 0 l 1
 1717 0 l 1
 1717 193 l 1
 1846 193 l 1
 1846 320 l 1
 1717 320 l 1
 1717 513 l 1
 1578 513 l 1
 1578 320 l 1
 1315 320 l 1
 1648 925 l 1
429 1182 m 1
 231 1182 l 1
 231 1301 l 1
 281 1301 l 2
 362 1301 438 1359 438 1436 c 2
 438 1480 l 1
 572 1480 l 1
 572 1172 572 863 572 555 c 1
 429 555 l 1
 429 1182 l 1
700 98 m 1
 592 160 l 1
 1297 1382 l 1
 1405 1320 l 1
 700 98 l 1
EndSplineSet
Validated: 9
Colour: ff8000
EndChar

StartChar: onehalf
Encoding: 189 189 192
Width: 1997
VWidth: 1548
Flags: HMW
LayerCount: 4
Fore
SplineSet
1210 0 m 1
 1210 98 1221 266 1539 437 c 0
 1614 477 1731 534 1731 644 c 0
 1731 754 1658 812 1545 812 c 0
 1432 812 1358 722 1358 616 c 0
 1358 605 1359 596 1360 586 c 1
 1215 616 l 1
 1215 809 1356 938 1545 938 c 0
 1734 938 1874 829 1874 658 c 0
 1874 468 1706 384 1547 299 c 0
 1433 238 1391 182 1369 126 c 1
 1880 126 l 1
 1880 0 l 1
 1210 0 l 1
429 1182 m 1
 231 1182 l 1
 231 1301 l 1
 281 1301 l 2
 362 1301 438 1359 438 1436 c 2
 438 1480 l 1
 572 1480 l 1
 572 1172 572 863 572 555 c 1
 429 555 l 1
 429 1182 l 1
700 98 m 1
 592 160 l 1
 1297 1382 l 1
 1405 1320 l 1
 700 98 l 1
EndSplineSet
Validated: 1
Colour: ff8000
EndChar

StartChar: uni2156
Encoding: 8534 8534 193
Width: 1997
VWidth: 1548
Flags: HMW
LayerCount: 4
Fore
SplineSet
1227 454 m 1
 1296 925 l 1
 1816 925 l 1
 1816 799 l 1
 1413 799 l 1
 1368 550 l 1
 1413 596 1475 624 1553 624 c 0
 1731 624 1881 490 1881 306 c 0
 1881 122 1728 -12 1545 -12 c 0
 1350 -12 1220 103 1201 256 c 1
 1341 285 l 1
 1341 196 1412 114 1544 114 c 0
 1662 114 1738 189 1738 306 c 0
 1738 423 1663 498 1545 498 c 0
 1447 498 1411 486 1365 417 c 1
 1227 454 l 1
117 555 m 1
 117 653 128 821 446 992 c 0
 521 1032 638 1079 638 1189 c 0
 638 1299 565 1367 452 1367 c 0
 339 1367 265 1277 265 1171 c 0
 265 1160 266 1151 267 1141 c 1
 122 1171 l 1
 122 1364 263 1493 452 1493 c 0
 641 1493 781 1384 781 1213 c 0
 781 1023 613 939 454 854 c 0
 340 793 298 737 276 681 c 1
 787 681 l 1
 787 555 l 1
 117 555 l 1
700 98 m 1
 592 160 l 1
 1297 1382 l 1
 1405 1320 l 1
 700 98 l 1
EndSplineSet
Validated: 1
Colour: ff8000
EndChar

StartChar: twothirds
Encoding: 8532 8532 194
Width: 1997
VWidth: 1548
Flags: HMW
LayerCount: 4
Fore
SplineSet
1545 545 m 2
 1659 545 1725 604 1725 683 c 0
 1725 762 1659 821 1545 821 c 0
 1431 821 1365 748 1365 669 c 1
 1225 698 l 1
 1243 830 1355 948 1545 948 c 0
 1735 948 1869 834 1869 691 c 0
 1869 609 1820 535 1739 488 c 1
 1841 437 1903 353 1903 256 c 0
 1903 101 1754 -24 1545 -24 c 0
 1350 -24 1210 92 1191 248 c 1
 1331 278 l 1
 1331 187 1412 103 1545 103 c 0
 1678 103 1759 173 1759 264 c 0
 1759 355 1679 424 1547 424 c 2
 1483 424 l 1
 1483 545 l 1
 1545 545 l 2
117 555 m 1
 117 653 128 821 446 992 c 0
 521 1032 638 1089 638 1199 c 0
 638 1309 565 1367 452 1367 c 0
 339 1367 265 1277 265 1171 c 0
 265 1160 266 1151 267 1141 c 1
 122 1171 l 1
 122 1364 263 1493 452 1493 c 0
 641 1493 781 1384 781 1213 c 0
 781 1023 613 939 454 854 c 0
 340 793 298 737 276 681 c 1
 787 681 l 1
 787 555 l 1
 117 555 l 1
700 98 m 1
 592 160 l 1
 1297 1382 l 1
 1405 1320 l 1
 700 98 l 1
EndSplineSet
Validated: 1
Colour: ff8000
EndChar

StartChar: uni215F
Encoding: 8543 8543 195
Width: 1997
VWidth: 1548
Flags: HMW
LayerCount: 4
Fore
SplineSet
429 1182 m 1
 231 1182 l 1
 231 1301 l 1
 281 1301 l 2
 362 1301 438 1359 438 1436 c 2
 438 1480 l 1
 572 1480 l 1
 572 1172 572 863 572 555 c 1
 429 555 l 1
 429 1182 l 1
700 98 m 1
 592 160 l 1
 1297 1382 l 1
 1405 1320 l 1
 700 98 l 1
EndSplineSet
Validated: 1
Colour: ff8000
EndChar

StartChar: uni2150
Encoding: 8528 8528 196
Width: 1997
VWidth: 1548
Flags: HMW
LayerCount: 4
Fore
SplineSet
1224 799 m 1
 1224 925 l 1
 1870 925 l 1
 1870 821 l 1
 1870 821 1553 524 1507 0 c 1
 1363 0 l 1
 1410 512 1710 799 1710 799 c 1
 1224 799 l 1
429 1182 m 1
 231 1182 l 1
 231 1301 l 1
 281 1301 l 2
 362 1301 438 1359 438 1436 c 2
 438 1480 l 1
 572 1480 l 1
 572 1172 572 863 572 555 c 1
 429 555 l 1
 429 1182 l 1
700 98 m 1
 592 160 l 1
 1297 1382 l 1
 1405 1320 l 1
 700 98 l 1
EndSplineSet
Validated: 1
Colour: ff8000
EndChar

StartChar: uni2151
Encoding: 8529 8529 197
Width: 1997
VWidth: 1548
Flags: HMW
LayerCount: 4
Fore
SplineSet
1738 621 m 0
 1738 742 1656 821 1545 821 c 0
 1434 821 1353 742 1353 621 c 0
 1353 500 1434 421 1545 421 c 0
 1656 421 1738 500 1738 621 c 0
1760 423 m 1
 1719 343 1641 294 1537 294 c 0
 1346 294 1210 433 1210 621 c 0
 1210 809 1350 948 1546 948 c 0
 1678 948 1778 886 1829 789 c 0
 1852 750 1900 651 1900 490 c 0
 1900 157 1704 -24 1462 -24 c 0
 1321 -24 1240 67 1240 67 c 1
 1305 162 l 1
 1305 162 1361 103 1486 103 c 0
 1614 103 1736 220 1760 423 c 1
429 1182 m 1
 231 1182 l 1
 231 1301 l 1
 281 1301 l 2
 362 1301 438 1359 438 1436 c 2
 438 1480 l 1
 572 1480 l 1
 572 1172 572 863 572 555 c 1
 429 555 l 1
 429 1182 l 1
700 98 m 1
 592 160 l 1
 1297 1382 l 1
 1405 1320 l 1
 700 98 l 1
EndSplineSet
Validated: 1
Colour: ff8000
EndChar

StartChar: uni2152
Encoding: 8530 8530 198
Width: 2472
VWidth: 1548
Flags: HMW
LayerCount: 4
Fore
SplineSet
1685 462 m 0
 1685 782 1826 948 2028 948 c 0
 2230 948 2372 782 2372 462 c 0
 2372 142 2230 -24 2028 -24 c 0
 1826 -24 1685 142 1685 462 c 0
1828 462 m 0
 1828 219 1909 103 2028 103 c 0
 2147 103 2229 219 2229 462 c 0
 2229 705 2147 821 2028 821 c 0
 1909 821 1828 705 1828 462 c 0
1402 627 m 1
 1204 627 l 1
 1204 746 l 1
 1254 746 l 2
 1335 746 1411 804 1411 881 c 2
 1411 925 l 1
 1545 925 l 1
 1545 617 1545 308 1545 0 c 1
 1402 0 l 1
 1402 627 l 1
429 1182 m 1
 231 1182 l 1
 231 1301 l 1
 281 1301 l 2
 362 1301 438 1359 438 1436 c 2
 438 1480 l 1
 572 1480 l 1
 572 1172 572 863 572 555 c 1
 429 555 l 1
 429 1182 l 1
700 98 m 1
 592 160 l 1
 1297 1382 l 1
 1405 1320 l 1
 700 98 l 1
EndSplineSet
Validated: 1
Substitution2: "'zero' Slashed Zero lookups0-1" uni2152.zero
Colour: ff8000
EndChar

StartChar: onethird
Encoding: 8531 8531 199
Width: 1997
VWidth: 1548
Flags: HMW
LayerCount: 4
Fore
SplineSet
1545 545 m 2
 1659 545 1725 604 1725 683 c 0
 1725 762 1659 821 1545 821 c 0
 1431 821 1365 748 1365 669 c 1
 1225 698 l 1
 1243 830 1355 948 1545 948 c 0
 1735 948 1869 834 1869 691 c 0
 1869 609 1820 535 1739 488 c 1
 1841 437 1903 353 1903 256 c 0
 1903 101 1754 -24 1545 -24 c 0
 1350 -24 1210 92 1191 248 c 1
 1331 278 l 1
 1331 187 1412 103 1545 103 c 0
 1678 103 1759 173 1759 264 c 0
 1759 355 1679 424 1547 424 c 2
 1483 424 l 1
 1483 545 l 1
 1545 545 l 2
429 1182 m 1
 231 1182 l 1
 231 1301 l 1
 281 1301 l 2
 362 1301 438 1359 438 1436 c 2
 438 1480 l 1
 572 1480 l 1
 572 1172 572 863 572 555 c 1
 429 555 l 1
 429 1182 l 1
700 98 m 1
 592 160 l 1
 1297 1382 l 1
 1405 1320 l 1
 700 98 l 1
EndSplineSet
Validated: 1
Colour: ff8000
EndChar

StartChar: uni2159
Encoding: 8537 8537 200
Width: 1997
VWidth: 1548
Flags: HMW
LayerCount: 4
Fore
SplineSet
1354 304 m 0
 1354 183 1435 103 1546 103 c 0
 1657 103 1739 183 1739 304 c 0
 1739 425 1657 504 1546 504 c 0
 1435 504 1354 425 1354 304 c 0
1331 502 m 1
 1372 582 1450 631 1554 631 c 0
 1745 631 1882 492 1882 304 c 0
 1882 116 1741 -24 1545 -24 c 0
 1413 -24 1314 38 1263 135 c 0
 1240 174 1192 273 1192 434 c 0
 1192 767 1387 948 1629 948 c 0
 1770 948 1852 857 1852 857 c 1
 1786 762 l 1
 1786 762 1730 821 1605 821 c 0
 1477 821 1355 704 1331 502 c 1
429 1182 m 1
 231 1182 l 1
 231 1301 l 1
 281 1301 l 2
 362 1301 438 1359 438 1436 c 2
 438 1480 l 1
 572 1480 l 1
 572 1172 572 863 572 555 c 1
 429 555 l 1
 429 1182 l 1
700 98 m 1
 592 160 l 1
 1297 1382 l 1
 1405 1320 l 1
 700 98 l 1
EndSplineSet
Validated: 1
Colour: ff8000
EndChar

StartChar: oneeighth
Encoding: 8539 8539 201
Width: 1997
VWidth: 1548
Flags: HMW
LayerCount: 4
Fore
SplineSet
1545 424 m 0
 1412 424 1333 355 1333 264 c 0
 1333 173 1412 103 1545 103 c 0
 1678 103 1759 173 1759 264 c 0
 1759 355 1678 424 1545 424 c 0
1365 683 m 0
 1365 604 1431 545 1545 545 c 0
 1659 545 1725 604 1725 683 c 0
 1725 762 1659 821 1545 821 c 0
 1431 821 1365 762 1365 683 c 0
1190 256 m 0
 1190 353 1250 437 1351 488 c 1
 1270 535 1222 609 1222 691 c 0
 1222 834 1355 948 1545 948 c 0
 1735 948 1868 834 1868 691 c 0
 1868 609 1819 535 1738 488 c 1
 1840 437 1902 353 1902 256 c 0
 1902 101 1754 -24 1545 -24 c 0
 1336 -24 1190 101 1190 256 c 0
429 1182 m 1
 231 1182 l 1
 231 1301 l 1
 281 1301 l 2
 362 1301 438 1359 438 1436 c 2
 438 1480 l 1
 572 1480 l 1
 572 1172 572 863 572 555 c 1
 429 555 l 1
 429 1182 l 1
700 98 m 1
 592 160 l 1
 1297 1382 l 1
 1405 1320 l 1
 700 98 l 1
EndSplineSet
Validated: 1
Colour: ff8000
EndChar

StartChar: uni2155
Encoding: 8533 8533 202
Width: 1997
VWidth: 1548
Flags: HMW
LayerCount: 4
Fore
SplineSet
1227 454 m 1
 1296 925 l 1
 1816 925 l 1
 1816 799 l 1
 1413 799 l 1
 1368 550 l 1
 1413 596 1475 624 1553 624 c 0
 1731 624 1881 490 1881 306 c 0
 1881 122 1728 -12 1545 -12 c 0
 1350 -12 1220 103 1201 256 c 1
 1341 285 l 1
 1341 196 1412 114 1544 114 c 0
 1662 114 1738 189 1738 306 c 0
 1738 423 1663 498 1545 498 c 0
 1447 498 1411 486 1365 417 c 1
 1227 454 l 1
429 1182 m 1
 231 1182 l 1
 231 1301 l 1
 281 1301 l 2
 362 1301 438 1359 438 1436 c 2
 438 1480 l 1
 572 1480 l 1
 572 1172 572 863 572 555 c 1
 429 555 l 1
 429 1182 l 1
700 98 m 1
 592 160 l 1
 1297 1382 l 1
 1405 1320 l 1
 700 98 l 1
EndSplineSet
Validated: 1
Colour: ff8000
EndChar

StartChar: uni2157
Encoding: 8535 8535 203
Width: 1997
VWidth: 1548
Flags: HMW
LayerCount: 4
Fore
SplineSet
1227 454 m 1
 1296 925 l 1
 1816 925 l 1
 1816 799 l 1
 1413 799 l 1
 1368 550 l 1
 1413 596 1475 624 1553 624 c 0
 1731 624 1881 490 1881 306 c 0
 1881 122 1728 -12 1545 -12 c 0
 1350 -12 1220 103 1201 256 c 1
 1341 285 l 1
 1341 196 1412 114 1544 114 c 0
 1662 114 1738 189 1738 306 c 0
 1738 423 1663 498 1545 498 c 0
 1447 498 1411 486 1365 417 c 1
 1227 454 l 1
450 1100 m 2
 564 1100 630 1159 630 1238 c 0
 630 1317 564 1376 450 1376 c 0
 336 1376 270 1303 270 1224 c 1
 130 1253 l 1
 148 1385 260 1503 450 1503 c 0
 640 1503 774 1389 774 1246 c 0
 774 1164 725 1090 644 1043 c 1
 746 992 808 908 808 811 c 0
 808 656 659 531 450 531 c 0
 255 531 115 647 96 803 c 1
 236 833 l 1
 236 742 317 658 450 658 c 0
 583 658 664 728 664 819 c 0
 664 910 584 979 452 979 c 2
 388 979 l 1
 388 1100 l 1
 450 1100 l 2
700 98 m 1
 592 160 l 1
 1297 1382 l 1
 1405 1320 l 1
 700 98 l 1
EndSplineSet
Validated: 1
Colour: ff8000
EndChar

StartChar: uni2158
Encoding: 8536 8536 204
Width: 1997
VWidth: 1548
Flags: HMW
LayerCount: 4
Fore
SplineSet
1227 454 m 1
 1296 925 l 1
 1816 925 l 1
 1816 799 l 1
 1413 799 l 1
 1368 550 l 1
 1413 596 1475 624 1553 624 c 0
 1731 624 1881 490 1881 306 c 0
 1881 122 1728 -12 1545 -12 c 0
 1350 -12 1220 103 1201 256 c 1
 1341 285 l 1
 1341 196 1412 114 1544 114 c 0
 1662 114 1738 189 1738 306 c 0
 1738 423 1663 498 1545 498 c 0
 1447 498 1411 486 1365 417 c 1
 1227 454 l 1
615 1480 m 1
 464 1480 l 1
 133 875 l 1
 133 748 l 1
 541 748 l 1
 541 555 l 1
 684 555 l 1
 684 748 l 1
 813 748 l 1
 813 875 l 1
 684 875 l 1
 684 1068 l 1
 545 1068 l 1
 545 875 l 1
 282 875 l 1
 615 1480 l 1
700 98 m 1
 592 160 l 1
 1297 1382 l 1
 1405 1320 l 1
 700 98 l 1
EndSplineSet
Validated: 9
Colour: ff8000
EndChar

StartChar: uni215A
Encoding: 8538 8538 205
Width: 1997
VWidth: 1548
Flags: HMW
LayerCount: 4
Fore
SplineSet
134 1029 m 1
 203 1500 l 1
 723 1500 l 1
 723 1374 l 1
 320 1374 l 1
 275 1125 l 1
 320 1171 382 1199 460 1199 c 0
 638 1199 788 1065 788 881 c 0
 788 697 635 563 452 563 c 0
 257 563 127 678 108 831 c 1
 248 860 l 1
 248 771 319 689 451 689 c 0
 569 689 645 764 645 881 c 0
 645 998 570 1073 452 1073 c 0
 354 1073 318 1061 272 992 c 1
 134 1029 l 1
1355 304 m 0
 1355 183 1436 103 1547 103 c 0
 1658 103 1740 183 1740 304 c 0
 1740 425 1658 504 1547 504 c 0
 1436 504 1355 425 1355 304 c 0
1332 502 m 1
 1373 582 1451 631 1555 631 c 0
 1746 631 1883 492 1883 304 c 0
 1883 116 1742 -24 1546 -24 c 0
 1414 -24 1315 38 1264 135 c 0
 1241 174 1193 273 1193 434 c 0
 1193 767 1388 948 1630 948 c 0
 1771 948 1853 857 1853 857 c 1
 1787 762 l 1
 1787 762 1731 821 1606 821 c 0
 1478 821 1356 704 1332 502 c 1
701 98 m 1
 593 160 l 1
 1298 1382 l 1
 1406 1320 l 1
 701 98 l 1
EndSplineSet
Validated: 1
Colour: ff8000
EndChar

StartChar: threeeighths
Encoding: 8540 8540 206
Width: 1997
VWidth: 1548
Flags: HMW
LayerCount: 4
Fore
SplineSet
450 1100 m 2
 564 1100 630 1159 630 1238 c 0
 630 1317 564 1376 450 1376 c 0
 336 1376 270 1303 270 1224 c 1
 130 1253 l 1
 148 1385 260 1503 450 1503 c 0
 640 1503 774 1389 774 1246 c 0
 774 1164 725 1090 644 1043 c 1
 746 992 808 908 808 811 c 0
 808 656 659 531 450 531 c 0
 255 531 115 647 96 803 c 1
 236 833 l 1
 236 742 317 658 450 658 c 0
 583 658 664 728 664 819 c 0
 664 910 584 979 452 979 c 2
 388 979 l 1
 388 1100 l 1
 450 1100 l 2
1545 424 m 0
 1412 424 1333 355 1333 264 c 0
 1333 173 1412 103 1545 103 c 0
 1678 103 1759 173 1759 264 c 0
 1759 355 1678 424 1545 424 c 0
1365 683 m 0
 1365 604 1431 545 1545 545 c 0
 1659 545 1725 604 1725 683 c 0
 1725 762 1659 821 1545 821 c 0
 1431 821 1365 762 1365 683 c 0
1190 256 m 0
 1190 353 1250 437 1351 488 c 1
 1270 535 1222 609 1222 691 c 0
 1222 834 1355 948 1545 948 c 0
 1735 948 1868 834 1868 691 c 0
 1868 609 1819 535 1738 488 c 1
 1840 437 1902 353 1902 256 c 0
 1902 101 1754 -24 1545 -24 c 0
 1336 -24 1190 101 1190 256 c 0
700 98 m 1
 592 160 l 1
 1297 1382 l 1
 1405 1320 l 1
 700 98 l 1
EndSplineSet
Validated: 1
Colour: ff8000
EndChar

StartChar: fiveeighths
Encoding: 8541 8541 207
Width: 1997
VWidth: 1548
Flags: HMW
LayerCount: 4
Fore
SplineSet
134 1029 m 1
 203 1500 l 1
 723 1500 l 1
 723 1374 l 1
 320 1374 l 1
 275 1125 l 1
 320 1171 382 1199 460 1199 c 0
 638 1199 788 1065 788 881 c 0
 788 697 635 563 452 563 c 0
 257 563 127 678 108 831 c 1
 248 860 l 1
 248 771 319 689 451 689 c 0
 569 689 645 764 645 881 c 0
 645 998 570 1073 452 1073 c 0
 354 1073 318 1061 272 992 c 1
 134 1029 l 1
1545 424 m 0
 1412 424 1333 355 1333 264 c 0
 1333 173 1412 103 1545 103 c 0
 1678 103 1759 173 1759 264 c 0
 1759 355 1678 424 1545 424 c 0
1365 683 m 0
 1365 604 1431 545 1545 545 c 0
 1659 545 1725 604 1725 683 c 0
 1725 762 1659 821 1545 821 c 0
 1431 821 1365 762 1365 683 c 0
1190 256 m 0
 1190 353 1250 437 1351 488 c 1
 1270 535 1222 609 1222 691 c 0
 1222 834 1355 948 1545 948 c 0
 1735 948 1868 834 1868 691 c 0
 1868 609 1819 535 1738 488 c 1
 1840 437 1902 353 1902 256 c 0
 1902 101 1754 -24 1545 -24 c 0
 1336 -24 1190 101 1190 256 c 0
700 98 m 1
 592 160 l 1
 1297 1382 l 1
 1405 1320 l 1
 700 98 l 1
EndSplineSet
Validated: 1
Colour: ff8000
EndChar

StartChar: seveneighths
Encoding: 8542 8542 208
Width: 1997
VWidth: 1548
Flags: HMW
LayerCount: 4
Fore
SplineSet
129 1354 m 1
 129 1480 l 1
 775 1480 l 1
 775 1376 l 1
 775 1376 458 1079 412 555 c 1
 268 555 l 1
 315 1067 615 1354 615 1354 c 1
 129 1354 l 1
1545 424 m 0
 1412 424 1333 355 1333 264 c 0
 1333 173 1412 103 1545 103 c 0
 1678 103 1759 173 1759 264 c 0
 1759 355 1678 424 1545 424 c 0
1365 683 m 0
 1365 604 1431 545 1545 545 c 0
 1659 545 1725 604 1725 683 c 0
 1725 762 1659 821 1545 821 c 0
 1431 821 1365 762 1365 683 c 0
1190 256 m 0
 1190 353 1250 437 1351 488 c 1
 1270 535 1222 609 1222 691 c 0
 1222 834 1355 948 1545 948 c 0
 1735 948 1868 834 1868 691 c 0
 1868 609 1819 535 1738 488 c 1
 1840 437 1902 353 1902 256 c 0
 1902 101 1754 -24 1545 -24 c 0
 1336 -24 1190 101 1190 256 c 0
700 98 m 1
 592 160 l 1
 1297 1382 l 1
 1405 1320 l 1
 700 98 l 1
EndSplineSet
Validated: 1
Colour: ff8000
EndChar

StartChar: uni2189
Encoding: 8585 8585 209
Width: 1997
VWidth: 1548
Flags: HMW
LayerCount: 4
Fore
SplineSet
109 1017 m 0
 109 1337 250 1503 452 1503 c 0
 654 1503 796 1337 796 1017 c 0
 796 697 654 531 452 531 c 0
 250 531 109 697 109 1017 c 0
252 1017 m 0
 252 774 333 658 452 658 c 0
 571 658 653 774 653 1017 c 0
 653 1260 571 1376 452 1376 c 0
 333 1376 252 1260 252 1017 c 0
1545 545 m 2
 1659 545 1725 604 1725 683 c 0
 1725 762 1659 821 1545 821 c 0
 1431 821 1365 748 1365 669 c 1
 1225 698 l 1
 1243 830 1355 948 1545 948 c 0
 1735 948 1869 834 1869 691 c 0
 1869 609 1820 535 1739 488 c 1
 1841 437 1903 353 1903 256 c 0
 1903 101 1754 -24 1545 -24 c 0
 1350 -24 1210 92 1191 248 c 1
 1331 278 l 1
 1331 187 1412 103 1545 103 c 0
 1678 103 1759 173 1759 264 c 0
 1759 355 1679 424 1547 424 c 2
 1483 424 l 1
 1483 545 l 1
 1545 545 l 2
700 98 m 1
 592 160 l 1
 1297 1382 l 1
 1405 1320 l 1
 700 98 l 1
EndSplineSet
Validated: 1
Substitution2: "'zero' Slashed Zero lookups0-1" uni2189.zero
Colour: ff8000
EndChar

StartChar: AE
Encoding: 198 198 210
Width: 2184
Flags: HMW
AnchorPoint: "bottom_center" 1117 0 basechar 0
AnchorPoint: "top_center" 1477 1400 basechar 0
LayerCount: 4
Fore
SplineSet
910 1480 m 1
 1116 1480 l 1
 1116 1312 l 1
 910 1312 l 1
 910 1480 l 1
474 604 m 1
 1116 604 l 1
 1116 436 l 1
 474 436 l 1
 474 604 l 1
1116 1480 m 1
 290 0 l 1
 70 0 l 1
 910 1480 l 1
 1116 1480 l 1
1949 824 m 17
 1949 656 l 9
 1306 656 l 17
 1306 168 l 1
 2044 168 l 1
 2044 0 l 1
 1116 0 l 25
 1116 1480 l 1
 2044 1480 l 17
 2044 1312 l 1
 1306 1312 l 1
 1306 824 l 9
 1949 824 l 17
EndSplineSet
Colour: ffff
EndChar

StartChar: multiply
Encoding: 215 215 211
Width: 1096
Flags: HMW
LayerCount: 4
Fore
SplineSet
100 988 m 1
 876 212 l 1
 996 332 l 9
 220 1108 l 1
 100 988 l 1
220 212 m 1
 996 988 l 1
 876 1108 l 9
 100 332 l 1
 220 212 l 1
EndSplineSet
Validated: 5
Substitution2: "'ss06' Bigger operators lookups0-1" multiply.ss06
Colour: ff00
EndChar

StartChar: Eth
Encoding: 208 208 212
Width: 1448
Flags: HMW
LayerCount: 4
Fore
SplineSet
670 656 m 1
 670 824 l 1
 0 824 l 1
 0 778 0 702 0 656 c 1
 670 656 l 1
400 1312 m 25
 682 1312 l 17
 952 1312 1158 1073 1158 740 c 0
 1158 407 952 168 682 168 c 9
 400 168 l 25
 400 1312 l 25
682 0 m 1
 1062 0 1348 290 1348 740 c 0
 1348 1190 1062 1480 682 1480 c 1
 210 1480 l 1
 210 0 l 1
 400 0 l 25
 682 0 l 1
EndSplineSet
Validated: 5
Colour: ffff
EndChar

StartChar: Oslash
Encoding: 216 216 213
Width: 1602
Flags: HMW
AnchorPoint: "top_center" 801 1400 basechar 0
AnchorPoint: "bottom_center" 801 0 basechar 0
LayerCount: 4
Fore
SplineSet
1365 1596 m 1
 1493 1500 l 1
 236 -116 l 1
 108 -20 l 1
 1365 1596 l 1
290 740 m 0
 290 390 511 148 801 148 c 0
 1091 148 1312 390 1312 740 c 0
 1312 1090 1091 1332 801 1332 c 0
 511 1332 290 1090 290 740 c 0
100 740 m 0
 100 1179 406 1500 801 1500 c 0
 1196 1500 1502 1179 1502 740 c 0
 1502 301 1196 -20 801 -20 c 0
 406 -20 100 301 100 740 c 0
EndSplineSet
Colour: ffff
EndChar

StartChar: Thorn
Encoding: 222 222 214
Width: 1188
Flags: HMW
LayerCount: 4
Fore
SplineSet
330 1025 m 25
 330 453 l 25
 612 453 l 17
 777 453 898 574 898 739 c 0
 898 904 777 1025 612 1025 c 9
 330 1025 l 25
140 0 m 1
 140 1193 l 1
 140 1480 l 1
 330 1480 l 1
 330 1193 l 1
 612 1193 l 1
 867 1193 1088 994 1088 739 c 0
 1088 484 867 285 612 285 c 1
 330 285 l 1
 330 0 l 25
 140 0 l 1
EndSplineSet
Validated: 1
Colour: ffff
EndChar

StartChar: thorn
Encoding: 254 254 215
Width: 1184
VWidth: 1000
Flags: HMW
LayerCount: 4
Fore
SplineSet
308 520 m 0
 308 290 426 140 606 140 c 0
 786 140 904 290 904 520 c 0
 904 750 786 900 606 900 c 0
 426 900 308 750 308 520 c 0
140 872 m 1
 140 974 140 1480 140 1480 c 1
 320 1480 l 1
 320 1480 320 980 320 920 c 1
 405 1005 481 1060 606 1060 c 0
 887 1060 1084 832 1084 520 c 0
 1084 208 887 -20 606 -20 c 0
 481 -20 405 35 320 120 c 1
 320 -440 l 1
 140 -440 l 1
 140 872 l 1
EndSplineSet
Validated: 1
Substitution2: "'smcp' Bas-de-casse vers petites capitales lookups0-1" thorn.sc
Colour: ff00
EndChar

StartChar: ae
Encoding: 230 230 216
Width: 1896
VWidth: 1000
Flags: HMW
AnchorPoint: "bottom_center" 890 0 basechar 0
AnchorPoint: "top_center" 890 1040 basechar 0
LayerCount: 4
Fore
SplineSet
980 340 m 21
 980 140 815 -20 500 -20 c 4
 245 -20 100 140 100 340 c 4
 100 540 285 700 540 700 c 4
 765 700 890 540 890 340 c 4
 800 340 l 4
 800 460 720 540 540 540 c 4
 360 540 280 460 280 340 c 4
 280 220 360 140 540 140 c 4
 690 140 800 220 800 340 c 5
 980 340 l 21
800 640 m 6
 800 820 707 901 539 901 c 4
 359 901 222 795 222 795 c 5
 140 936 l 5
 140 936 285 1060 540 1060 c 4
 786 1060 980 958 980 608 c 5
 980 458 l 5
 800 554 l 29
 800 640 l 6
874 600 m 5
 1680 600 l 5
 1680 440 l 5
 874 440 l 5
 874 600 l 5
1610 340 m 5
 1763 252 l 5
 1680 74 1497 -20 1298 -20 c 4
 1017 -20 800 208 800 520 c 4
 800 832 1017 1060 1298 1060 c 4
 1579 1060 1796 832 1796 520 c 4
 1796 493 1794 466 1791 440 c 5
 1610 440 l 5
 1614 466 1616 492 1616 520 c 4
 1616 740 1489 900 1298 900 c 4
 1107 900 980 740 980 520 c 4
 980 300 1107 140 1298 140 c 4
 1439 140 1561 207 1610 340 c 5
EndSplineSet
Substitution2: "'smcp' Bas-de-casse vers petites capitales lookups0-1" ae.sc
Substitution2: "'ss04' Simplified a and g lookups0-1" ae.ss04
Colour: ff00
EndChar

StartChar: oslash
Encoding: 248 248 217
Width: 1196
VWidth: 1000
Flags: HMW
AnchorPoint: "top_center" 598 1040 basechar 0
AnchorPoint: "bottom_center" 598 0 basechar 0
LayerCount: 4
Fore
SplineSet
992 1156 m 1
 1120 1060 l 1
 204 -116 l 1
 76 -20 l 1
 992 1156 l 1
280 520 m 0
 280 300 407 140 598 140 c 0
 789 140 916 300 916 520 c 0
 916 740 789 900 598 900 c 0
 407 900 280 740 280 520 c 0
100 520 m 0
 100 832 317 1060 598 1060 c 0
 879 1060 1096 832 1096 520 c 0
 1096 208 879 -20 598 -20 c 0
 317 -20 100 208 100 520 c 0
EndSplineSet
Colour: ff00
EndChar

StartChar: divide
Encoding: 247 247 218
Width: 1208
Flags: HMW
LayerCount: 4
Fore
SplineSet
479 303 m 0
 479 375 532 432 604 432 c 0
 676 432 731 375 731 303 c 0
 731 231 676 176 604 176 c 0
 532 176 479 231 479 303 c 0
479 1003 m 0
 479 1075 532 1132 604 1132 c 0
 676 1132 731 1075 731 1003 c 0
 731 931 676 876 604 876 c 0
 532 876 479 931 479 1003 c 0
140 580 m 1
 140 740 l 1
 1068 740 l 17
 1068 580 l 1
 140 580 l 1
EndSplineSet
Validated: 1
Substitution2: "'ss06' Bigger operators lookups0-1" divide.ss06
Colour: ff00
EndChar

StartChar: germandbls
Encoding: 223 223 219
Width: 1224
VWidth: 1000
Flags: HMW
LayerCount: 4
Back
SplineSet
607 856 m 0
 907 856 1144 661 1144 418 c 0
 1144 175 907 -20 607 -20 c 4
 525 -20 449 -6 383 20 c 5
 429 187 l 5
 478 161 537 148 607 148 c 4
 807 148 954 262 954 418 c 0
 954 574 807 688 607 688 c 0
 607 856 l 0
EndSplineSet
Fore
SplineSet
650 140 m 0
 580 140 491 153 442 179 c 1
 396 20 l 1
 462 -6 568 -20 650 -20 c 0
 949 -20 1124 161 1124 416 c 0
 1124 671 897 852 597 852 c 0
 597 692 l 0
 797 692 944 572 944 416 c 0
 944 260 850 140 650 140 c 0
320 1082 m 4
 320 1242 437 1340 587 1340 c 0
 737 1340 854 1252 854 1082 c 4
 854 932 747 852 597 852 c 0
 597 729 l 0
 852 729 1034 827 1034 1082 c 0
 1034 1337 842 1500 587 1500 c 0
 332 1500 140 1337 140 1082 c 0
 140 827 140 0 140 0 c 9
 320 0 l 17
 320 0 320 924 320 1082 c 4
EndSplineSet
Substitution2: "'smcp' Bas-de-casse vers petites capitales lookups0-1" germandbls.sc
Colour: ff00
EndChar

StartChar: eth
Encoding: 240 240 220
Width: 1196
VWidth: 1000
Flags: HMW
LayerCount: 4
Fore
SplineSet
787 1279 m 1
 913 1352 l 1
 839 1480 l 1
 713 1407 l 1
 375 1212 l 1
 398 1172 426 1124 449 1084 c 1
 787 1279 l 1
375 1355 m 1
 596 1227 916 1080 916 520 c 0
 1096 520 l 0
 1096 1000 814 1310 468 1510 c 1
 375 1355 l 1
280 520 m 0
 280 740 407 900 598 900 c 0
 789 900 916 740 916 520 c 0
 916 300 789 140 598 140 c 0
 407 140 280 300 280 520 c 0
100 520 m 0
 100 208 317 -20 598 -20 c 0
 879 -20 1096 208 1096 520 c 0
 1096 520 1032 520 1013 520 c 1
 1013 832 848 1060 598 1060 c 0
 317 1060 100 832 100 520 c 0
EndSplineSet
Validated: 5
Substitution2: "'smcp' Bas-de-casse vers petites capitales lookups0-1" eth.sc
Colour: ff00
EndChar

StartChar: macron
Encoding: 175 175 221
Width: 790
VWidth: 1000
Flags: HMW
LayerCount: 4
Fore
SplineSet
90 1242 m 1
 90 1382 l 1
 700 1382 l 1
 700 1242 l 1
 90 1242 l 1
EndSplineSet
Validated: 1
Colour: ff00
EndChar

StartChar: uni0304
Encoding: 772 772 222
Width: 0
VWidth: 1000
Flags: HMW
AnchorPoint: "stack_u0303" 598 1144 mark 0
AnchorPoint: "top_center" 598 1040 mark 0
LayerCount: 4
Fore
SplineSet
293 1224 m 1
 293 1364 l 1
 903 1364 l 1
 903 1224 l 1
 293 1224 l 1
EndSplineSet
Colour: ffff00
EndChar

StartChar: uni0306
Encoding: 774 774 225
Width: 0
VWidth: 1000
Flags: HMW
AnchorPoint: "top_center" 598 1040 mark 0
LayerCount: 4
Fore
SplineSet
598 1214 m 0
 448 1214 318 1340 318 1480 c 1
 478 1480 l 1
 478 1414 532 1354 598 1354 c 0
 664 1354 718 1414 718 1480 c 1
 878 1480 l 1
 878 1340 748 1214 598 1214 c 0
EndSplineSet
Colour: ffff00
EndChar

StartChar: uni0328
Encoding: 808 808 227
Width: 0
VWidth: 1000
Flags: HMW
AnchorPoint: "bottom_right" 687 0 mark 0
LayerCount: 4
Fore
SplineSet
654 -225 m 1
 712 -326 l 1
 657 -364 614 -380 550 -380 c 0
 450 -380 360 -324 360 -204 c 0
 360 -84 550 44 605 80 c 0
 687 0 l 0
 579 -78 487 -137 487 -204 c 0
 487 -240 514 -263 550 -263 c 0
 586 -263 620 -250 654 -225 c 1
EndSplineSet
Layer: 2
SplineSet
654 -225 m 1
 712 -326 l 1
 657 -364 614 -380 550 -380 c 0
 450 -380 360 -310 360 -220 c 0
 360 -130 411 -62 519 0 c 0
 687 0 l 0
 579 -78 487 -137 487 -204 c 0
 487 -240 514 -263 550 -263 c 0
 586 -263 620 -250 654 -225 c 1
EndSplineSet
Colour: ffc71c
EndChar

StartChar: uni0307
Encoding: 775 775 230
Width: 0
VWidth: 1000
Flags: HMW
AnchorPoint: "top_center" 598 1040 mark 0
LayerCount: 4
Fore
SplineSet
470 1352 m 4
 470 1424 526 1480 598 1480 c 4
 670 1480 726 1424 726 1352 c 4
 726 1280 670 1224 598 1224 c 4
 526 1224 470 1280 470 1352 c 4
EndSplineSet
Colour: ff00
EndChar

StartChar: uni030C
Encoding: 780 780 231
Width: 0
VWidth: 1000
Flags: HMW
AnchorPoint: "top_center" 598 1040 mark 0
LayerCount: 4
Fore
SplineSet
485 1480 m 1
 693 1224 l 1
 503 1224 l 1
 307 1480 l 1
 485 1480 l 1
711 1480 m 1
 889 1480 l 1
 693 1224 l 1
 503 1224 l 1
 711 1480 l 1
EndSplineSet
Colour: ffff00
EndChar

StartChar: uni0237
Encoding: 567 567 318
Width: 509
Flags: HMW
LayerCount: 4
Fore
SplineSet
47 -284 m 1
 59 -291 83 -300 99 -300 c 0
 159 -300 189 -270 189 -210 c 2
 189 0 l 1
 189 138 l 1
 189 1040 l 1
 369 1040 l 1
 369 138 l 1
 369 0 l 1
 369 -210 l 2
 369 -380 269 -460 99 -460 c 0
 67 -460 27 -449 5 -436 c 1
 47 -284 l 1
EndSplineSet
Validated: 1
Substitution2: "'smcp' Bas-de-casse vers petites capitales lookups0-1" uni0237.sc
Colour: ff00
EndChar

StartChar: Dcroat
Encoding: 272 272 319
Width: 1448
Flags: HMW
LayerCount: 4
Fore
SplineSet
670 656 m 1
 670 824 l 1
 0 824 l 1
 0 778 0 702 0 656 c 1
 670 656 l 1
400 1312 m 25
 682 1312 l 17
 952 1312 1158 1073 1158 740 c 0
 1158 407 952 168 682 168 c 9
 400 168 l 25
 400 1312 l 25
682 0 m 1
 1062 0 1348 290 1348 740 c 0
 1348 1190 1062 1480 682 1480 c 1
 210 1480 l 1
 210 0 l 1
 400 0 l 25
 682 0 l 1
EndSplineSet
Validated: 5
Colour: ffff
EndChar

StartChar: oe
Encoding: 339 339 320
Width: 2012
VWidth: 1000
Flags: HMW
LayerCount: 4
Fore
SplineSet
990 600 m 1
 1796 600 l 1
 1796 440 l 1
 990 440 l 1
 990 600 l 1
1726 340 m 1
 1879 252 l 1
 1796 74 1613 -20 1414 -20 c 0
 1133 -20 916 208 916 520 c 0
 916 832 1133 1060 1414 1060 c 0
 1695 1060 1912 832 1912 520 c 0
 1912 493 1910 466 1907 440 c 1
 1726 440 l 1
 1730 466 1732 492 1732 520 c 0
 1732 740 1605 900 1414 900 c 0
 1223 900 1096 740 1096 520 c 0
 1096 300 1223 140 1414 140 c 0
 1555 140 1677 207 1726 340 c 1
280 520 m 0
 280 300 407 140 598 140 c 0
 789 140 916 300 916 520 c 0
 916 740 789 900 598 900 c 0
 407 900 280 740 280 520 c 0
100 520 m 0
 100 832 317 1060 598 1060 c 0
 879 1060 1096 832 1096 520 c 0
 1096 208 879 -20 598 -20 c 0
 317 -20 100 208 100 520 c 0
EndSplineSet
Validated: 5
Substitution2: "'smcp' Bas-de-casse vers petites capitales lookups0-1" oe.sc
Colour: ff00
EndChar

StartChar: OE
Encoding: 338 338 321
Width: 2380
Flags: HMW
LayerCount: 4
Fore
SplineSet
290 740 m 0
 290 390 511 148 801 148 c 0
 1091 148 1312 390 1312 740 c 0
 1312 1090 1091 1332 801 1332 c 0
 511 1332 290 1090 290 740 c 0
100 740 m 0
 100 1179 406 1500 801 1500 c 0
 1196 1500 1502 1179 1502 740 c 0
 1502 301 1196 -20 801 -20 c 0
 406 -20 100 301 100 740 c 0
2145 824 m 17
 2145 656 l 9
 1502 656 l 17
 1502 168 l 1
 2240 168 l 1
 2240 0 l 1
 1312 0 l 25
 1312 1480 l 1
 2240 1480 l 17
 2240 1312 l 1
 1502 1312 l 1
 1502 824 l 9
 2145 824 l 17
EndSplineSet
Validated: 5
Colour: ffff
EndChar

StartChar: dcaron
Encoding: 271 271 323
Width: 1472
VWidth: 1000
Flags: HMW
LayerCount: 4
Fore
SplineSet
1184 1371 m 4
 1184 1443 1237 1500 1309 1500 c 4
 1381 1500 1436 1443 1436 1371 c 4
 1436 1299 1381 1244 1309 1244 c 4
 1237 1244 1184 1299 1184 1371 c 4
1199 1103 m 5
 1256 1116 1345 1164 1345 1284 c 4
 1345 1312 1310 1372 1310 1372 c 5
 1309 1500 l 5
 1379 1500 1472 1454 1472 1284 c 4
 1472 1104 1306 1008 1229 988 c 5
 1199 1103 l 5
876 520 m 0
 876 750 758 900 578 900 c 0
 398 900 280 750 280 520 c 0
 280 290 398 140 578 140 c 0
 758 140 876 290 876 520 c 0
1044 168 m 1
 1044 66 1064 0 1064 0 c 1
 892 0 l 1
 892 0 876 60 876 120 c 1
 791 35 703 -20 578 -20 c 0
 297 -20 100 208 100 520 c 0
 100 832 297 1060 578 1060 c 0
 703 1060 779 1005 864 920 c 1
 864 1480 l 1
 1044 1480 l 1
 1044 168 l 1
EndSplineSet
Substitution2: "'smcp' Bas-de-casse vers petites capitales lookups0-1" dcaron.sc
Colour: ff00
EndChar

StartChar: dcroat
Encoding: 273 273 324
Width: 1254
VWidth: 1000
Flags: HMW
LayerCount: 4
Fore
SplineSet
1254 1160 m 1
 584 1160 l 1
 584 1206 584 1274 584 1320 c 1
 1254 1320 l 1
 1254 1160 l 1
876 520 m 0
 876 750 758 900 578 900 c 0
 398 900 280 750 280 520 c 0
 280 290 398 140 578 140 c 0
 758 140 876 290 876 520 c 0
1044 168 m 1
 1044 66 1064 0 1064 0 c 1
 892 0 l 1
 892 0 876 60 876 120 c 1
 791 35 703 -20 578 -20 c 0
 297 -20 100 208 100 520 c 0
 100 832 297 1060 578 1060 c 0
 703 1060 779 1005 864 920 c 1
 864 1480 l 1
 1044 1480 l 1
 1044 168 l 1
EndSplineSet
Validated: 5
Substitution2: "'smcp' Bas-de-casse vers petites capitales lookups0-1" dcroat.sc
Colour: ff00
EndChar

StartChar: Hbar
Encoding: 294 294 325
Width: 1398
Flags: HMW
LayerCount: 4
Fore
SplineSet
1398 1004 m 1
 0 1004 l 1
 0 1050 0 1110 0 1156 c 1
 1398 1156 l 1
 1398 1004 l 1
140 1480 m 25
 330 1480 l 25
 330 824 l 25
 1068 824 l 25
 1068 1480 l 25
 1258 1480 l 25
 1258 0 l 25
 1068 0 l 25
 1068 656 l 25
 330 656 l 25
 330 0 l 25
 140 0 l 25
 140 1480 l 25
EndSplineSet
Validated: 5
Colour: ffff
EndChar

StartChar: hbar
Encoding: 295 295 326
Width: 1276
VWidth: 1000
Flags: HMW
LayerCount: 4
Fore
SplineSet
720 1160 m 1
 50 1160 l 1
 50 1206 50 1274 50 1320 c 1
 720 1320 l 1
 720 1160 l 1
956 0 m 1
 956 572 l 2
 956 791 878 900 698 900 c 0
 518 900 440 791 440 572 c 2
 440 0 l 1
 260 0 l 1
 260 1480 l 1
 432 1480 l 1
 432 920 l 1
 517 1005 613 1060 738 1060 c 0
 1008 1060 1136 892 1136 572 c 1
 1136 0 l 1
 956 0 l 1
EndSplineSet
Validated: 5
Substitution2: "'smcp' Bas-de-casse vers petites capitales lookups0-1" hbar.sc
Colour: ff00
EndChar

StartChar: Lcaron
Encoding: 317 317 333
Width: 1208
Flags: HMW
LayerCount: 4
Fore
SplineSet
470 1371 m 0
 470 1443 523 1500 595 1500 c 0
 667 1500 722 1443 722 1371 c 0
 722 1299 667 1244 595 1244 c 0
 523 1244 470 1299 470 1371 c 0
485 1103 m 1
 542 1116 631 1164 631 1284 c 0
 631 1312 596 1372 596 1372 c 1
 595 1500 l 1
 665 1500 758 1454 758 1284 c 0
 758 1104 592 1008 515 988 c 1
 485 1103 l 1
330 1480 m 17
 330 168 l 1
 1068 168 l 1
 1068 0 l 1
 140 0 l 25
 140 1480 l 1
 330 1480 l 17
EndSplineSet
Validated: 5
Colour: ffff
EndChar

StartChar: lcaron
Encoding: 318 318 334
Width: 748
Flags: HMW
LayerCount: 4
Fore
SplineSet
460 1371 m 0
 460 1443 513 1500 585 1500 c 0
 657 1500 712 1443 712 1371 c 0
 712 1299 657 1244 585 1244 c 0
 513 1244 460 1299 460 1371 c 0
475 1103 m 1
 532 1116 621 1164 621 1284 c 0
 621 1312 586 1372 586 1372 c 1
 585 1500 l 1
 655 1500 748 1454 748 1284 c 0
 748 1104 582 1008 505 988 c 1
 475 1103 l 1
462 156 m 1
 504 4 l 1
 482 -9 442 -20 410 -20 c 0
 240 -20 140 60 140 230 c 2
 140 440 l 1
 140 578 l 1
 140 1480 l 1
 320 1480 l 1
 320 578 l 1
 320 440 l 1
 320 230 l 2
 320 170 350 140 410 140 c 0
 426 140 450 149 462 156 c 1
EndSplineSet
Validated: 5
Substitution2: "'smcp' Bas-de-casse vers petites capitales lookups0-1" lcaron.sc
Colour: ff00
EndChar

StartChar: Lslash
Encoding: 321 321 335
Width: 1208
Flags: HMW
LayerCount: 4
Fore
SplineSet
600 1100 m 1
 600 907 l 1
 -70 520 l 1
 -70 713 l 1
 600 1100 l 1
330 1480 m 17
 330 168 l 1
 1068 168 l 1
 1068 0 l 1
 140 0 l 25
 140 1480 l 1
 330 1480 l 17
EndSplineSet
Validated: 5
Colour: ffff
EndChar

StartChar: lslash
Encoding: 322 322 336
Width: 509
Flags: HMW
LayerCount: 4
Fore
SplineSet
530 1060 m 1
 530 867 l 1
 -70 520 l 1
 -70 713 l 1
 530 1060 l 1
462 156 m 1
 504 4 l 1
 482 -9 442 -20 410 -20 c 0
 240 -20 140 60 140 230 c 2
 140 440 l 1
 140 578 l 1
 140 1480 l 1
 320 1480 l 1
 320 578 l 1
 320 440 l 1
 320 230 l 2
 320 170 350 140 410 140 c 0
 426 140 450 149 462 156 c 1
EndSplineSet
Validated: 5
Substitution2: "'smcp' Bas-de-casse vers petites capitales lookups0-1" lslash.sc
Colour: ff00
EndChar

StartChar: napostrophe
Encoding: 329 329 339
Width: 1404
VWidth: 1000
Flags: HMW
LayerCount: 4
Fore
SplineSet
0 1371 m 0
 0 1443 53 1500 125 1500 c 0
 197 1500 252 1443 252 1371 c 0
 252 1299 197 1244 125 1244 c 0
 53 1244 0 1299 0 1371 c 0
15 1103 m 1
 72 1116 161 1164 161 1284 c 0
 161 1312 126 1372 126 1372 c 1
 125 1500 l 1
 195 1500 288 1454 288 1284 c 0
 288 1104 122 1008 45 988 c 1
 15 1103 l 1
1084 0 m 1
 1084 572 l 2
 1084 791 1006 900 826 900 c 0
 646 900 568 791 568 572 c 2
 568 0 l 1
 388 0 l 1
 388 1040 l 1
 556 1040 l 1
 556 920 l 1
 641 1005 741 1060 866 1060 c 0
 1136 1060 1264 892 1264 572 c 1
 1264 0 l 1
 1084 0 l 1
EndSplineSet
Validated: 5
Colour: ff00
EndChar

StartChar: Eng
Encoding: 330 330 340
Width: 1398
Flags: HMW
LayerCount: 4
Fore
SplineSet
1258 0 m 1
 1258 -202 l 2
 1258 -372 1148 -460 978 -460 c 0
 946 -460 896 -449 874 -436 c 1
 916 -284 l 1
 928 -291 962 -292 978 -292 c 0
 1038 -292 1068 -262 1068 -202 c 2
 1068 0 l 1
 1258 0 l 1
330 1480 m 1
 1068 320 l 25
 1068 1480 l 1
 1258 1480 l 25
 1258 0 l 25
 1068 0 l 1
 330 1160 l 1
 330 0 l 1
 140 0 l 25
 140 1480 l 1
 330 1480 l 1
EndSplineSet
Validated: 5
Colour: ffff
EndChar

StartChar: eng
Encoding: 331 331 341
Width: 1156
VWidth: 1000
Flags: HMW
LayerCount: 4
Fore
SplineSet
1016 0 m 1
 1016 -210 l 2
 1016 -380 916 -460 746 -460 c 0
 714 -460 674 -449 652 -436 c 1
 694 -284 l 1
 706 -291 730 -300 746 -300 c 0
 806 -300 836 -270 836 -210 c 2
 836 0 l 1
 1016 0 l 1
836 0 m 1
 836 572 l 2
 836 791 758 900 578 900 c 0
 398 900 320 791 320 572 c 2
 320 0 l 1
 140 0 l 1
 140 1040 l 1
 308 1040 l 1
 308 920 l 1
 393 1005 493 1060 618 1060 c 0
 888 1060 1016 892 1016 572 c 1
 1016 0 l 1
 836 0 l 1
EndSplineSet
Validated: 5
Substitution2: "'smcp' Bas-de-casse vers petites capitales lookups0-1" eng.sc
Colour: ff00
EndChar

StartChar: afii57929
Encoding: 700 700 342
Width: 428
VWidth: 1000
Flags: HMW
LayerCount: 4
Fore
SplineSet
70 1371 m 0
 70 1443 123 1500 195 1500 c 0
 267 1500 322 1443 322 1371 c 0
 322 1299 267 1244 195 1244 c 0
 123 1244 70 1299 70 1371 c 0
85 1103 m 1
 142 1116 231 1164 231 1284 c 0
 231 1312 196 1372 196 1372 c 1
 195 1500 l 1
 265 1500 358 1454 358 1284 c 0
 358 1104 192 1008 115 988 c 1
 85 1103 l 1
EndSplineSet
Validated: 5
Colour: ff00
EndChar

StartChar: uni030B
Encoding: 779 779 343
Width: 0
VWidth: 1000
Flags: HMW
AnchorPoint: "top_center" 598 1040 mark 0
LayerCount: 4
Fore
SplineSet
839 1224 m 5
 661 1224 l 5
 839 1480 l 5
 1065 1480 l 5
 839 1224 l 5
435 1224 m 5
 257 1224 l 5
 435 1480 l 5
 661 1480 l 5
 435 1224 l 5
EndSplineSet
Colour: ffff00
EndChar

StartChar: tcaron
Encoding: 357 357 350
Width: 1148
VWidth: 1000
Flags: HMW
LayerCount: 4
Fore
SplineSet
860 1371 m 0
 860 1443 913 1500 985 1500 c 0
 1057 1500 1112 1443 1112 1371 c 0
 1112 1299 1057 1244 985 1244 c 0
 913 1244 860 1299 860 1371 c 0
875 1103 m 1
 932 1116 1021 1164 1021 1284 c 0
 1021 1312 986 1372 986 1372 c 1
 985 1500 l 1
 1055 1500 1148 1454 1148 1284 c 0
 1148 1104 982 1008 905 988 c 1
 875 1103 l 1
122 1028 m 17
 212 1028 272 1092 272 1182 c 9
 272 1320 l 1
 440 1320 l 1
 440 1040 l 1
 720 1040 l 1
 720 880 l 1
 440 880 l 1
 440 300 l 2
 440 198 498 140 600 140 c 0
 643 140 694 156 720 175 c 1
 765 12 l 1
 720 -6 656 -20 600 -20 c 0
 400 -20 260 101 260 300 c 2
 260 880 l 1
 50 880 l 1
 50 926 50 982 50 1028 c 1
 122 1028 l 17
EndSplineSet
Validated: 5
Substitution2: "'smcp' Bas-de-casse vers petites capitales lookups0-1" tcaron.sc
Colour: ff00
EndChar

StartChar: tbar
Encoding: 359 359 351
Width: 770
VWidth: 1000
Flags: HMW
LayerCount: 4
Fore
SplineSet
50 440 m 1
 50 486 50 554 50 600 c 1
 720 600 l 1
 720 440 l 1
 50 440 l 1
122 1028 m 17
 212 1028 272 1092 272 1182 c 9
 272 1320 l 1
 440 1320 l 1
 440 1040 l 1
 720 1040 l 1
 720 880 l 1
 440 880 l 1
 440 300 l 2
 440 198 498 140 600 140 c 0
 643 140 694 156 720 175 c 1
 765 12 l 1
 720 -6 656 -20 600 -20 c 0
 400 -20 260 101 260 300 c 2
 260 880 l 1
 50 880 l 1
 50 926 50 982 50 1028 c 1
 122 1028 l 17
EndSplineSet
Validated: 5
Substitution2: "'smcp' Bas-de-casse vers petites capitales lookups0-1" tbar.sc
Colour: ff00
EndChar

StartChar: Tbar
Encoding: 358 358 352
Width: 1398
Flags: HMW
LayerCount: 4
Fore
SplineSet
1034 656 m 1
 364 656 l 1
 364 702 364 778 364 824 c 1
 1034 824 l 1
 1034 656 l 1
794 0 m 25
 604 0 l 25
 604 1312 l 25
 140 1312 l 25
 140 1480 l 25
 1258 1480 l 25
 1258 1312 l 25
 794 1312 l 25
 794 0 l 25
EndSplineSet
Validated: 5
Colour: ffff
EndChar

StartChar: kgreenlandic
Encoding: 312 312 353
Width: 1094
Flags: HMW
LayerCount: 4
Fore
SplineSet
417 562 m 1
 526 702 l 1
 1024 0 l 1
 816 0 l 1
 417 562 l 1
320 340 m 1
 320 0 l 1
 140 0 l 1
 140 1040 l 1
 320 1040 l 1
 320 572 l 1
 788 1040 l 1
 848 1040 960 1040 1020 1040 c 1
 320 340 l 1
EndSplineSet
Validated: 5
Substitution2: "'smcp' Bas-de-casse vers petites capitales lookups0-1" kgreenlandic.sc
Colour: ff00
EndChar

StartChar: zero.subscript
Encoding: 8320 8320 354
Width: 800
VWidth: 1363
Flags: HMW
LayerCount: 4
Fore
SplineSet
57 277 m 0
 57 597 198 763 400 763 c 0
 602 763 744 597 744 277 c 0
 744 -43 602 -209 400 -209 c 0
 198 -209 57 -43 57 277 c 0
200 277 m 0
 200 34 281 -82 400 -82 c 0
 519 -82 601 34 601 277 c 0
 601 520 519 636 400 636 c 0
 281 636 200 520 200 277 c 0
EndSplineSet
Validated: 1
Substitution2: "'zero' Slashed Zero lookups0-1" zero.subscript.zero
Colour: ff8000
EndChar

StartChar: four.subscript
Encoding: 8324 8324 355
Width: 800
VWidth: 2288
Flags: HMW
LayerCount: 4
Fore
SplineSet
542 740 m 1
 391 740 l 1
 60 135 l 1
 60 8 l 1
 468 8 l 1
 468 -185 l 1
 611 -185 l 1
 611 8 l 1
 740 8 l 1
 740 135 l 1
 611 135 l 1
 611 328 l 1
 472 328 l 1
 472 135 l 1
 209 135 l 1
 542 740 l 1
EndSplineSet
Validated: 9
Substitution2: "'ss01' Alternative digits 1 and 4 lookups0-1" four.ss01.subscript
Colour: ff8000
EndChar

StartChar: five.subscript
Encoding: 8325 8325 356
Width: 800
VWidth: 2288
Flags: HMW
LayerCount: 4
Fore
SplineSet
86 269 m 1
 155 740 l 1
 675 740 l 1
 675 614 l 1
 272 614 l 1
 227 365 l 1
 272 411 334 439 412 439 c 0
 590 439 740 305 740 121 c 0
 740 -63 587 -197 404 -197 c 0
 209 -197 79 -82 60 71 c 1
 200 100 l 1
 200 11 271 -71 403 -71 c 0
 521 -71 597 4 597 121 c 0
 597 238 522 313 404 313 c 0
 306 313 270 301 224 232 c 1
 86 269 l 1
EndSplineSet
Validated: 1
Colour: ff8000
EndChar

StartChar: six.subscript
Encoding: 8326 8326 357
Width: 800
VWidth: 1363
Flags: HMW
LayerCount: 4
Fore
SplineSet
217 119 m 0
 217 -2 298 -82 409 -82 c 0
 520 -82 602 -2 602 119 c 0
 602 240 520 319 409 319 c 0
 298 319 217 240 217 119 c 0
194 317 m 1
 235 397 313 446 417 446 c 0
 608 446 745 307 745 119 c 0
 745 -69 604 -209 408 -209 c 0
 276 -209 177 -147 126 -50 c 0
 103 -11 55 88 55 249 c 0
 55 582 250 763 492 763 c 0
 633 763 715 672 715 672 c 1
 649 577 l 1
 649 577 593 636 468 636 c 0
 340 636 218 519 194 317 c 1
EndSplineSet
Validated: 1
Substitution2: "'ss02' Alternative digits 6 and 9 lookups0-1" six.ss02.subscript
Colour: ff8000
EndChar

StartChar: seven.subscript
Encoding: 8327 8327 358
Width: 800
VWidth: 1363
Flags: HMW
LayerCount: 4
Fore
SplineSet
77 614 m 1
 77 740 l 1
 723 740 l 1
 723 636 l 1
 723 636 406 339 360 -185 c 1
 216 -185 l 1
 263 327 563 614 563 614 c 1
 77 614 l 1
EndSplineSet
Validated: 1
Colour: ff8000
EndChar

StartChar: eight.subscript
Encoding: 8328 8328 359
Width: 800
VWidth: 1363
Flags: HMW
LayerCount: 4
Fore
SplineSet
399 239 m 0
 266 239 187 170 187 79 c 0
 187 -12 266 -82 399 -82 c 0
 532 -82 613 -12 613 79 c 0
 613 170 532 239 399 239 c 0
219 498 m 0
 219 419 285 360 399 360 c 0
 513 360 579 419 579 498 c 0
 579 577 513 636 399 636 c 0
 285 636 219 577 219 498 c 0
44 71 m 0
 44 168 104 252 205 303 c 1
 124 350 76 424 76 506 c 0
 76 649 209 763 399 763 c 0
 589 763 722 649 722 506 c 0
 722 424 673 350 592 303 c 1
 694 252 756 168 756 71 c 0
 756 -84 608 -209 399 -209 c 0
 190 -209 44 -84 44 71 c 0
EndSplineSet
Validated: 1
Colour: ff8000
EndChar

StartChar: nine.subscript
Encoding: 8329 8329 360
Width: 800
VWidth: 1363
Flags: HMW
LayerCount: 4
Fore
SplineSet
583 436 m 0
 583 557 501 636 390 636 c 0
 279 636 198 557 198 436 c 0
 198 315 279 236 390 236 c 0
 501 236 583 315 583 436 c 0
605 238 m 1
 564 158 486 109 382 109 c 0
 191 109 55 248 55 436 c 0
 55 624 195 763 391 763 c 0
 523 763 623 701 674 604 c 0
 697 565 745 466 745 305 c 0
 745 -28 549 -209 307 -209 c 0
 166 -209 85 -118 85 -118 c 1
 150 -23 l 1
 150 -23 206 -82 331 -82 c 0
 459 -82 581 35 605 238 c 1
EndSplineSet
Validated: 1
Substitution2: "'ss02' Alternative digits 6 and 9 lookups0-1" nine.ss02.subscript
Colour: ff8000
EndChar

StartChar: two.subscript
Encoding: 8322 8322 361
Width: 800
VWidth: 1123
Flags: HMW
LayerCount: 4
Fore
SplineSet
65 -185 m 1
 65 -87 76 81 394 252 c 0
 469 292 586 349 586 459 c 0
 586 569 513 627 400 627 c 0
 287 627 213 537 213 431 c 0
 213 420 214 411 215 401 c 1
 70 431 l 1
 70 624 211 753 400 753 c 0
 589 753 729 644 729 473 c 0
 729 283 561 199 402 114 c 0
 288 53 246 -3 224 -59 c 1
 735 -59 l 1
 735 -185 l 1
 65 -185 l 1
EndSplineSet
Validated: 1
Colour: ff8000
EndChar

StartChar: three.subscript
Encoding: 8323 8323 362
Width: 800
VWidth: 1123
Flags: HMW
LayerCount: 4
Fore
SplineSet
398 360 m 2
 512 360 578 419 578 498 c 0
 578 577 512 636 398 636 c 0
 284 636 218 563 218 484 c 1
 78 513 l 1
 96 645 208 763 398 763 c 0
 588 763 722 649 722 506 c 0
 722 424 673 350 592 303 c 1
 694 252 756 168 756 71 c 0
 756 -84 607 -209 398 -209 c 0
 203 -209 63 -93 44 63 c 1
 184 93 l 1
 184 2 265 -82 398 -82 c 0
 531 -82 612 -12 612 79 c 0
 612 170 532 239 400 239 c 2
 336 239 l 1
 336 360 l 1
 398 360 l 2
EndSplineSet
Validated: 1
Colour: ff8000
EndChar

StartChar: one.subscript
Encoding: 8321 8321 363
Width: 800
VWidth: 1363
Flags: HMW
LayerCount: 4
Fore
SplineSet
377 442 m 1
 179 442 l 1
 179 561 l 1
 229 561 l 2
 310 561 386 619 386 696 c 2
 386 740 l 1
 520 740 l 1
 520 432 520 123 520 -185 c 1
 377 -185 l 1
 377 442 l 1
EndSplineSet
Validated: 1
Substitution2: "'ss01' Alternative digits 1 and 4 lookups0-1" one.ss01.subscript
Colour: ff8000
EndChar

StartChar: longs
Encoding: 383 383 364
Width: 695
VWidth: 1000
Flags: HMW
AnchorPoint: "top_center" 390 1400 basechar 0
AnchorPoint: "bottom_center" 230 0 basechar 0
LayerCount: 4
Fore
SplineSet
320 1040 m 1
 320 1180 l 2
 320 1282 378 1340 480 1340 c 0
 523 1340 574 1324 600 1305 c 1
 645 1468 l 1
 600 1486 536 1500 480 1500 c 0
 280 1500 140 1380 140 1180 c 2
 140 1040 l 1
 140 0 l 1
 320 0 l 1
 320 1040 l 1
EndSplineSet
Colour: ff00
EndChar

StartChar: uni0180
Encoding: 384 384 365
Width: 1254
VWidth: 1000
Flags: HMW
LayerCount: 4
Fore
SplineSet
670 1160 m 1
 0 1160 l 1
 0 1206 0 1274 0 1320 c 1
 670 1320 l 1
 670 1160 l 1
378 520 m 0
 378 290 496 140 676 140 c 0
 856 140 974 290 974 520 c 0
 974 750 856 900 676 900 c 0
 496 900 378 750 378 520 c 0
210 168 m 1
 210 1480 l 1
 390 1480 l 1
 390 920 l 1
 475 1005 551 1060 676 1060 c 0
 957 1060 1154 832 1154 520 c 0
 1154 208 957 -20 676 -20 c 0
 551 -20 467 35 382 120 c 1
 382 60 382 0 382 0 c 1
 210 0 l 1
 210 0 210 66 210 168 c 1
EndSplineSet
Validated: 5
Substitution2: "'smcp' Bas-de-casse vers petites capitales lookups0-1" uni0180.sc
Colour: ff00
EndChar

StartChar: uni0181
Encoding: 385 385 366
Width: 1473
Flags: HMW
LayerCount: 4
Fore
SplineSet
196 1110 m 1
 4 1110 l 1
 1 1126 0 1143 0 1160 c 0
 0 1338 152 1480 330 1480 c 0
 345 1480 360 1479 374 1477 c 1
 374 1306 l 1
 361 1310 346 1312 330 1312 c 0
 240 1312 190 1250 190 1160 c 0
 190 1142 191 1125 196 1110 c 1
897 740 m 1
 897 908 l 17
 1022 908 1119 987 1119 1112 c 0
 1119 1237 1022 1312 897 1312 c 9
 520 1312 l 1
 520 1480 l 25
 897 1480 l 1
 1117 1480 1309 1330 1309 1110 c 0
 1309 890 1117 740 897 740 c 1
520 168 m 25
 897 168 l 17
 1062 168 1183 289 1183 454 c 0
 1183 619 1062 740 897 740 c 9
 520 740 l 25
 520 168 l 25
330 1480 m 1
 520 1480 l 25
 520 908 l 1
 897 908 l 1
 1152 908 1373 709 1373 454 c 0
 1373 199 1152 0 897 0 c 1
 330 0 l 1
 330 1480 l 1
EndSplineSet
Validated: 5
Colour: ffff
EndChar

StartChar: uni0182
Encoding: 386 386 367
Width: 1283
Flags: HMW
LayerCount: 4
Fore
SplineSet
1068 1312 m 9
 330 1312 l 1
 330 1480 l 25
 1068 1480 l 1
 1068 1312 l 9
330 168 m 25
 707 168 l 17
 872 168 993 289 993 454 c 0
 993 619 872 740 707 740 c 9
 330 740 l 25
 330 168 l 25
140 1480 m 1
 330 1480 l 25
 330 908 l 1
 707 908 l 1
 962 908 1183 709 1183 454 c 0
 1183 199 962 0 707 0 c 1
 140 0 l 1
 140 1480 l 1
EndSplineSet
Validated: 5
Colour: ffff
EndChar

StartChar: uni0183
Encoding: 387 387 368
Width: 1184
VWidth: 1000
Flags: HMW
LayerCount: 4
Fore
SplineSet
979 1320 m 9
 320 1320 l 1
 320 1480 l 25
 979 1480 l 1
 979 1320 l 9
308 520 m 0
 308 290 426 140 606 140 c 0
 786 140 904 290 904 520 c 0
 904 750 786 900 606 900 c 0
 426 900 308 750 308 520 c 0
140 168 m 1
 140 1480 l 1
 320 1480 l 1
 320 920 l 1
 405 1005 481 1060 606 1060 c 0
 887 1060 1084 832 1084 520 c 0
 1084 208 887 -20 606 -20 c 0
 481 -20 397 35 312 120 c 1
 312 60 312 0 312 0 c 1
 140 0 l 1
 140 0 140 66 140 168 c 1
EndSplineSet
Validated: 5
Substitution2: "'smcp' Bas-de-casse vers petites capitales lookups0-1" uni0183.sc
Colour: ff00
EndChar

StartChar: uni0184
Encoding: 388 388 369
Width: 1283
Flags: HMW
LayerCount: 4
Fore
SplineSet
330 168 m 25
 707 168 l 17
 872 168 993 289 993 454 c 0
 993 619 872 740 707 740 c 9
 330 740 l 25
 330 168 l 25
223 1480 m 1
 330 1480 l 25
 330 908 l 1
 707 908 l 1
 962 908 1183 709 1183 454 c 0
 1183 199 962 0 707 0 c 1
 140 0 l 1
 140 1160 l 1
 -50 1270 l 1
 223 1480 l 1
EndSplineSet
Validated: 1
Colour: ffff
EndChar

StartChar: uni0185
Encoding: 389 389 370
Width: 1184
VWidth: 1000
Flags: HMW
LayerCount: 4
Fore
SplineSet
308 520 m 0
 308 290 426 140 606 140 c 0
 786 140 904 290 904 520 c 0
 904 750 786 900 606 900 c 0
 426 900 308 750 308 520 c 0
320 1480 m 17
 320 920 l 1
 405 1005 481 1060 606 1060 c 0
 887 1060 1084 832 1084 520 c 0
 1084 208 887 -20 606 -20 c 0
 481 -20 397 35 312 120 c 1
 312 60 312 0 312 0 c 1
 140 0 l 1
 140 0 140 66 140 168 c 1
 140 1160 l 1
 -50 1270 l 1
 223 1480 l 1
 320 1480 l 17
EndSplineSet
Validated: 1
Substitution2: "'smcp' Bas-de-casse vers petites capitales lookups0-1" uni0185.sc
Colour: ff00
EndChar

StartChar: uni0186
Encoding: 390 390 371
Width: 1514
Flags: HMW
LayerCount: 4
Fore
SplineSet
261 1028 m 1
 344 1215 512 1332 713 1332 c 0
 1003 1332 1224 1090 1224 740 c 0
 1224 390 1003 148 713 148 c 0
 512 148 344 265 261 452 c 1
 100 360 l 1
 218 128 445 -20 713 -20 c 0
 1108 -20 1414 301 1414 740 c 0
 1414 1179 1108 1500 713 1500 c 0
 445 1500 218 1352 100 1120 c 1
 261 1028 l 1
EndSplineSet
Validated: 9
Colour: ffff
EndChar

StartChar: uni0187
Encoding: 391 391 372
Width: 1586
Flags: HMW
LayerCount: 4
Fore
SplineSet
1408 1130 m 1
 1216 1130 l 1
 1213 1146 1212 1163 1212 1180 c 0
 1212 1358 1364 1500 1542 1500 c 0
 1557 1500 1572 1499 1586 1497 c 1
 1586 1326 l 1
 1573 1330 1558 1332 1542 1332 c 0
 1452 1332 1402 1270 1402 1180 c 0
 1402 1162 1403 1145 1408 1130 c 1
1253 1028 m 1
 1170 1215 1002 1332 801 1332 c 0
 511 1332 290 1090 290 740 c 0
 290 390 511 148 801 148 c 0
 1002 148 1170 265 1253 452 c 1
 1414 360 l 1
 1296 128 1069 -20 801 -20 c 0
 406 -20 100 301 100 740 c 0
 100 1179 406 1500 801 1500 c 0
 1069 1500 1296 1352 1414 1120 c 1
 1253 1028 l 1
EndSplineSet
Validated: 5
Colour: ffff
EndChar

StartChar: uni0188
Encoding: 392 392 373
Width: 1142
VWidth: 1000
Flags: HMW
LayerCount: 4
Fore
SplineSet
1040 790 m 1
 858 790 l 1
 855 806 854 823 854 840 c 0
 854 1018 1006 1160 1184 1160 c 0
 1199 1160 1214 1159 1228 1157 c 1
 1228 994 l 1
 1215 998 1200 1000 1184 1000 c 0
 1094 1000 1034 930 1034 840 c 0
 1034 822 1035 805 1040 790 c 1
280 520 m 0
 280 300 407 140 598 140 c 0
 739 140 840 207 889 340 c 1
 1042 252 l 1
 959 74 797 -20 598 -20 c 0
 317 -20 100 208 100 520 c 0
 100 832 317 1060 598 1060 c 0
 797 1060 959 966 1042 788 c 1
 889 700 l 1
 840 833 739 900 598 900 c 0
 407 900 280 740 280 520 c 0
EndSplineSet
Validated: 5
Substitution2: "'smcp' Bas-de-casse vers petites capitales lookups0-1" uni0188.sc
Colour: ff00
EndChar

StartChar: uni018A
Encoding: 394 394 375
Width: 1568
Flags: HMW
LayerCount: 4
Fore
SplineSet
196 1110 m 1
 4 1110 l 1
 1 1126 0 1143 0 1160 c 0
 0 1338 152 1480 330 1480 c 0
 345 1480 360 1479 374 1477 c 1
 374 1306 l 1
 361 1310 346 1312 330 1312 c 0
 240 1312 190 1250 190 1160 c 0
 190 1142 191 1125 196 1110 c 1
520 1312 m 25
 520 168 l 25
 802 168 l 17
 1072 168 1278 407 1278 740 c 0
 1278 1073 1072 1312 802 1312 c 9
 520 1312 l 25
802 0 m 1
 520 0 l 25
 330 0 l 1
 330 1480 l 1
 802 1480 l 1
 1182 1480 1468 1190 1468 740 c 0
 1468 290 1182 0 802 0 c 1
EndSplineSet
Validated: 5
Colour: ffff
EndChar

StartChar: uni018B
Encoding: 395 395 376
Width: 1283
Flags: HMW
LayerCount: 4
Fore
SplineSet
215 1312 m 9
 953 1312 l 1
 953 1480 l 25
 215 1480 l 1
 215 1312 l 9
953 168 m 25
 576 168 l 17
 411 168 290 289 290 454 c 0
 290 619 411 740 576 740 c 9
 953 740 l 25
 953 168 l 25
1143 1480 m 1
 953 1480 l 25
 953 908 l 1
 576 908 l 1
 321 908 100 709 100 454 c 0
 100 199 321 0 576 0 c 1
 1143 0 l 1
 1143 1480 l 1
EndSplineSet
Validated: 5
Colour: ffff
EndChar

StartChar: uni018C
Encoding: 396 396 377
Width: 1184
VWidth: 1000
Flags: HMW
LayerCount: 4
Fore
SplineSet
205 1320 m 13
 864 1320 l 1
 864 1480 l 25
 205 1480 l 1
 205 1320 l 13
876 520 m 0
 876 290 758 140 578 140 c 0
 398 140 280 290 280 520 c 0
 280 750 398 900 578 900 c 0
 758 900 876 750 876 520 c 0
1044 168 m 1
 1044 1480 l 1
 864 1480 l 1
 864 920 l 1
 779 1005 703 1060 578 1060 c 0
 297 1060 100 832 100 520 c 0
 100 208 297 -20 578 -20 c 0
 703 -20 787 35 872 120 c 1
 872 60 888 0 888 0 c 1
 1064 0 l 1
 1064 0 1044 66 1044 168 c 1
EndSplineSet
Substitution2: "'smcp' Bas-de-casse vers petites capitales lookups0-1" uni018C.sc
Colour: ff00
EndChar

StartChar: uni018D
Encoding: 397 397 378
Width: 1196
VWidth: 1000
Flags: HMW
LayerCount: 4
Fore
SplineSet
598 -20 m 0
 598 140 l 0
 898 140 1028 0 1028 -160 c 0
 1028 -320 898 -460 598 -460 c 0
 378 -460 277 -434 168 -383 c 1
 209 -229 l 1
 322 -284 438 -300 598 -300 c 0
 818 -300 848 -210 848 -160 c 0
 848 -110 818 -20 598 -20 c 0
280 520 m 0
 280 300 407 140 598 140 c 0
 789 140 916 300 916 520 c 0
 916 740 789 900 598 900 c 0
 407 900 280 740 280 520 c 0
100 520 m 0
 100 832 317 1060 598 1060 c 0
 879 1060 1096 832 1096 520 c 0
 1096 208 879 -20 598 -20 c 0
 317 -20 100 208 100 520 c 0
EndSplineSet
Colour: ff00
EndChar

StartChar: uni018E
Encoding: 398 398 379
Width: 1208
Flags: HMW
LayerCount: 4
Fore
SplineSet
235 656 m 17
 235 824 l 9
 878 824 l 17
 878 1312 l 1
 140 1312 l 1
 140 1480 l 1
 1068 1480 l 25
 1068 0 l 1
 140 0 l 17
 140 168 l 1
 878 168 l 1
 878 656 l 9
 235 656 l 17
EndSplineSet
Validated: 1
Colour: ffff
EndChar

StartChar: uni018F
Encoding: 399 399 380
Width: 1602
Flags: HMW
LayerCount: 4
Fore
SplineSet
104 824 m 1
 102 797 100 769 100 740 c 0
 100 301 406 -20 801 -20 c 0
 1196 -20 1502 291 1502 730 c 0
 1502 1169 1196 1500 801 1500 c 0
 533 1500 282 1351 164 1119 c 1
 325 1027 l 1
 408 1214 600 1332 801 1332 c 0
 1091 1332 1312 1090 1312 740 c 0
 1312 390 1091 148 801 148 c 0
 511 148 290 390 290 740 c 0
 290 769 291 797 294 824 c 1
 104 824 l 1
1406 656 m 25
 1406 824 l 25
 198 824 l 25
 198 656 l 25
 1406 656 l 25
EndSplineSet
Validated: 5
Colour: ffff
EndChar

StartChar: uni0190
Encoding: 400 400 381
Width: 1222
VWidth: 1000
Flags: HMW
LayerCount: 4
Fore
SplineSet
612 856 m 1
 437 856 335 957 335 1094 c 0
 335 1231 437 1332 612 1332 c 0
 787 1332 891 1207 891 1070 c 0
 1078 1120 l 1
 1052 1321 887 1500 612 1500 c 0
 337 1500 145 1321 145 1098 c 0
 145 969 209 854 317 781 c 1
 182 702 100 570 100 418 c 0
 100 175 312 -20 612 -20 c 0
 893 -20 1095 158 1122 396 c 1
 935 446 l 0
 935 290 812 148 612 148 c 0
 412 148 290 266 290 422 c 0
 290 578 412 696 612 696 c 1
 683 696 707 696 707 696 c 25
 707 856 l 25
 707 856 682 856 612 856 c 1
EndSplineSet
Validated: 9
Colour: ffff
EndChar

StartChar: uni0191
Encoding: 401 401 382
Width: 1208
Flags: HMW
LayerCount: 4
Fore
SplineSet
330 0 m 0
 330 -178 178 -320 0 -320 c 0
 -15 -320 -30 -319 -44 -317 c 1
 -44 -146 l 1
 -31 -150 -16 -152 -0 -152 c 0
 90 -152 140 -90 140 0 c 0
 330 0 l 0
330 168 m 1
 330 0 l 1
 140 0 l 1
 140 1480 l 1
 1068 1480 l 17
 1068 1312 l 1
 330 1312 l 1
 330 824 l 9
 973 824 l 17
 973 656 l 9
 330 656 l 17
 330 168 l 1
EndSplineSet
Colour: ffff
EndChar

StartChar: florin
Encoding: 402 402 383
Width: 770
VWidth: 1000
Flags: HMW
LayerCount: 4
Fore
SplineSet
440 0 m 0
 440 -178 289 -312 111 -312 c 0
 96 -312 81 -311 67 -309 c 1
 67 -146 l 1
 80 -150 95 -152 111 -152 c 0
 201 -152 260 -90 260 0 c 0
 440 0 l 0
720 1305 m 1
 694 1324 643 1340 600 1340 c 0
 498 1340 440 1282 440 1180 c 2
 440 1040 l 1
 720 1040 l 1
 720 880 l 1
 440 880 l 1
 440 0 l 1
 260 0 l 1
 260 880 l 1
 50 880 l 1
 50 926 50 994 50 1040 c 1
 260 1040 l 1
 260 1180 l 2
 260 1380 400 1500 600 1500 c 0
 656 1500 720 1486 765 1468 c 1
 720 1305 l 1
EndSplineSet
Substitution2: "'smcp' Bas-de-casse vers petites capitales lookups0-1" florin.sc
Colour: ff00
EndChar

StartChar: uni0193
Encoding: 403 403 384
Width: 1586
Flags: HMW
LayerCount: 4
Fore
SplineSet
1408 1130 m 1
 1216 1130 l 1
 1213 1146 1212 1163 1212 1180 c 0
 1212 1358 1364 1500 1542 1500 c 0
 1557 1500 1572 1499 1586 1497 c 1
 1586 1326 l 1
 1573 1330 1558 1332 1542 1332 c 0
 1452 1332 1402 1270 1402 1180 c 0
 1402 1162 1403 1145 1408 1130 c 1
1253 1029 m 1
 1170 1216 1002 1332 801 1332 c 0
 511 1332 290 1090 290 740 c 0
 290 390 511 148 801 148 c 0
 1002 148 1170 264 1253 451 c 1
 1414 360 l 1
 1296 128 1069 -20 801 -20 c 0
 406 -20 100 301 100 740 c 0
 100 1179 406 1500 801 1500 c 0
 1069 1500 1296 1352 1414 1120 c 1
 1253 1029 l 1
801 740 m 25
 1422 740 l 25
 1422 0 l 25
 1240 0 l 17
 1240 227 l 1
 1232 253 l 1
 1232 572 l 9
 801 572 l 25
 801 740 l 25
EndSplineSet
Validated: 5
Colour: ffff
EndChar

StartChar: uni0194
Encoding: 404 404 385
Width: 1356
VWidth: 1000
Flags: HMW
LayerCount: 4
Fore
SplineSet
976 0 m 1
 996 -42 1008 -90 1008 -140 c 0
 1008 -318 856 -460 678 -460 c 0
 500 -460 348 -318 348 -140 c 0
 348 -90 360 -42 380 0 c 1
 380 0 l 1
 580 402 l 1
 70 1480 l 1
 266 1480 l 1
 678 599 l 1
 1090 1480 l 1
 1286 1480 l 1
 776 402 l 1
 976 0 l 1
 976 0 l 1
784 0 m 1
 678 195 l 1
 582 0 l 1
 559 -45 538 -100 538 -140 c 0
 538 -230 588 -292 678 -292 c 0
 768 -292 828 -230 828 -140 c 0
 828 -100 807 -45 784 0 c 1
EndSplineSet
Validated: 5
Colour: ffff
EndChar

StartChar: uni0195
Encoding: 405 405 386
Width: 1812
VWidth: 1000
Flags: HMW
LayerCount: 4
Fore
SplineSet
1712 468 m 0
 1712 197 1544 -20 1274 -20 c 0
 1004 -20 836 118 836 468 c 1
 836 572 l 1
 836 791 758 900 578 900 c 0
 398 900 320 791 320 572 c 2
 320 0 l 1
 140 0 l 1
 140 1480 l 1
 312 1480 l 1
 312 920 l 1
 397 1005 493 1060 618 1060 c 0
 888 1060 1016 892 1016 572 c 1
 1016 468 l 2
 1016 249 1094 140 1274 140 c 0
 1454 140 1532 289 1532 468 c 0
 1532 738 1454 863 1372 972 c 1
 1525 1060 l 1
 1598 969 1712 818 1712 468 c 0
EndSplineSet
Validated: 1
Substitution2: "'smcp' Bas-de-casse vers petites capitales lookups0-1" uni0195.sc
Colour: ff00
EndChar

StartChar: uni0196
Encoding: 406 406 387
Width: 650
VWidth: 1000
Flags: HMW
LayerCount: 4
Fore
SplineSet
320 460 m 1
 320 320 l 2
 320 218 378 160 480 160 c 0
 523 160 574 176 600 195 c 1
 645 32 l 1
 600 14 536 0 480 0 c 0
 280 0 140 120 140 320 c 2
 140 460 l 1
 140 1500 l 1
 320 1500 l 1
 320 460 l 1
EndSplineSet
Validated: 1
Colour: ffff
EndChar

StartChar: uni0197
Encoding: 407 407 388
Width: 770
Flags: HMW
LayerCount: 4
Fore
SplineSet
720 656 m 1
 50 656 l 1
 50 702 50 778 50 824 c 1
 720 824 l 1
 720 656 l 1
122 1480 m 25
 648 1480 l 25
 648 1312 l 25
 480 1312 l 25
 480 169 l 25
 648 169 l 25
 648 1 l 25
 122 1 l 25
 122 169 l 25
 290 169 l 25
 290 1312 l 25
 122 1312 l 25
 122 1480 l 25
EndSplineSet
Validated: 5
Colour: ffff
EndChar

StartChar: uni0198
Encoding: 408 408 389
Width: 1366
Flags: HMW
LayerCount: 4
Fore
SplineSet
549 794 m 1
 679 917 l 1
 1296 0 l 1
 1082 0 l 1
 549 794 l 1
140 1180 m 1
 140 1358 292 1500 470 1500 c 0
 485 1500 500 1499 514 1497 c 1
 514 1326 l 1
 501 1330 486 1332 470 1332 c 0
 380 1332 330 1270 330 1180 c 1
 330 730 l 1
 1056 1480 l 1
 1116 1480 1236 1480 1296 1480 c 1
 330 490 l 1
 330 0 l 1
 140 0 l 1
 140 1180 l 1
EndSplineSet
Validated: 5
Colour: ffff
EndChar

StartChar: uni0199
Encoding: 409 409 390
Width: 1059
Flags: HMW
LayerCount: 4
Fore
SplineSet
417 562 m 1
 526 702 l 1
 1024 0 l 1
 816 0 l 1
 417 562 l 1
140 1177 m 1
 140 1358 292 1500 470 1500 c 0
 485 1500 500 1499 514 1497 c 1
 514 1334 l 1
 501 1338 486 1340 470 1340 c 0
 380 1340 320 1270 320 1177 c 1
 320 572 l 1
 788 1040 l 1
 848 1040 960 1040 1020 1040 c 1
 320 340 l 1
 320 0 l 1
 140 0 l 1
 140 1177 l 1
EndSplineSet
Substitution2: "'smcp' Bas-de-casse vers petites capitales lookups0-1" uni0199.sc
Colour: ff00
EndChar

StartChar: uni019A
Encoding: 410 410 391
Width: 509
Flags: HMW
LayerCount: 4
Fore
SplineSet
570 660 m 1
 -100 660 l 1
 -100 706 -100 774 -100 820 c 1
 570 820 l 1
 570 660 l 1
462 156 m 1
 504 4 l 1
 482 -9 442 -20 410 -20 c 0
 240 -20 140 60 140 230 c 2
 140 440 l 1
 140 578 l 1
 140 1480 l 1
 320 1480 l 1
 320 578 l 1
 320 440 l 1
 320 230 l 2
 320 170 350 140 410 140 c 0
 426 140 450 149 462 156 c 1
EndSplineSet
Validated: 5
Substitution2: "'smcp' Bas-de-casse vers petites capitales lookups0-1" uni019A.sc
Colour: ff00
EndChar

StartChar: uni019B
Encoding: 411 411 392
Width: 1172
VWidth: 1000
Flags: HMW
LayerCount: 4
Fore
SplineSet
587 1279 m 1
 713 1352 l 1
 639 1480 l 1
 513 1407 l 1
 175 1212 l 1
 198 1172 226 1124 249 1084 c 1
 587 1279 l 1
629 1040 m 1
 525 1357 l 2
 488 1461 403 1502 273 1502 c 0
 241 1502 201 1491 179 1478 c 1
 221 1326 l 1
 233 1333 257 1342 273 1342 c 0
 317 1342 345 1325 357 1292 c 2
 451 1016 l 1
 70 0 l 1
 262 0 l 1
 542 773 l 1
 756 125 l 2
 793 21 878 -20 1008 -20 c 0
 1040 -20 1080 -9 1102 4 c 1
 1060 156 l 1
 1048 149 1024 140 1008 140 c 0
 964 140 936 157 924 190 c 2
 629 1040 l 1
EndSplineSet
Validated: 5
Substitution2: "'smcp' Bas-de-casse vers petites capitales lookups0-1" uni019B.sc
Colour: ff00
EndChar

StartChar: uni019C
Encoding: 412 412 393
Width: 1721
VWidth: 1000
Flags: HMW
LayerCount: 4
Fore
SplineSet
1581 168 m 1
 1581 66 1601 0 1601 0 c 1
 1419 0 l 1
 1419 0 1403 60 1403 120 c 1
 1330 33 1266 -20 1141 -20 c 0
 911 -20 766 128 766 468 c 1
 765 1500 l 1
 955 1500 l 1
 955 468 l 1
 955 249 1013 148 1173 148 c 0
 1333 148 1391 249 1391 468 c 2
 1391 1500 l 1
 1581 1500 l 1
 1581 168 l 1
911 468 m 1
 911 148 746 -20 516 -20 c 0
 286 -20 141 128 141 468 c 1
 140 1500 l 1
 330 1500 l 1
 330 468 l 1
 330 249 388 148 548 148 c 0
 708 148 766 249 766 468 c 1
 911 468 l 1
EndSplineSet
Validated: 5
Colour: ffff
EndChar

StartChar: uni019D
Encoding: 413 413 394
Width: 1442
Flags: HMW
LayerCount: 4
Fore
SplineSet
374 0 m 0
 374 -178 222 -320 44 -320 c 0
 29 -320 14 -319 0 -317 c 1
 0 -146 l 1
 13 -150 28 -152 44 -152 c 0
 134 -152 184 -90 184 0 c 0
 374 0 l 0
374 1480 m 1
 1112 320 l 25
 1112 1480 l 1
 1302 1480 l 25
 1302 0 l 25
 1112 0 l 1
 374 1160 l 1
 374 0 l 1
 184 0 l 25
 184 1480 l 1
 374 1480 l 1
EndSplineSet
Validated: 5
Colour: ffff
EndChar

StartChar: uni019E
Encoding: 414 414 395
Width: 1156
VWidth: 1000
Flags: HMW
LayerCount: 4
Fore
SplineSet
836 -440 m 1
 836 572 l 2
 836 791 758 900 578 900 c 0
 398 900 320 791 320 572 c 2
 320 0 l 1
 140 0 l 1
 140 1040 l 1
 308 1040 l 1
 308 920 l 1
 393 1005 493 1060 618 1060 c 0
 888 1060 1016 892 1016 572 c 1
 1016 -440 l 1
 836 -440 l 1
EndSplineSet
Validated: 1
Substitution2: "'smcp' Bas-de-casse vers petites capitales lookups0-1" uni019E.sc
Colour: ff00
EndChar

StartChar: uni019F
Encoding: 415 415 396
Width: 1602
Flags: HMW
LayerCount: 4
Fore
SplineSet
1406 656 m 25
 198 656 l 25
 198 824 l 25
 1406 824 l 25
 1406 656 l 25
290 740 m 0
 290 390 511 148 801 148 c 0
 1091 148 1312 390 1312 740 c 0
 1312 1090 1091 1332 801 1332 c 0
 511 1332 290 1090 290 740 c 0
100 740 m 0
 100 1179 406 1500 801 1500 c 0
 1196 1500 1502 1179 1502 740 c 0
 1502 301 1196 -20 801 -20 c 0
 406 -20 100 301 100 740 c 0
EndSplineSet
Validated: 5
Colour: ffff
EndChar

StartChar: uni031B
Encoding: 795 795 399
Width: 0
Flags: HMW
AnchorPoint: "top_right" 0 1480 mark 0
LayerCount: 4
Fore
SplineSet
169 1319 m 5
 162 1316 157 1315 149 1315 c 4
 97 1315 53 1355 53 1407 c 4
 53 1459 97 1500 149 1500 c 4
 199 1500 272 1466 272 1344 c 4
 272 1214 172 1100 0 1063 c 5
 0 1175 l 5
 127 1207 169 1270 169 1319 c 5
EndSplineSet
Colour: ffff00
EndChar

StartChar: uni01A2
Encoding: 418 418 400
Width: 1869
Flags: HMW
LayerCount: 4
Fore
SplineSet
1207 1368 m 0
 1207 1200 l 0
 1370 1200 1518 1256 1635 1351 c 1
 1539 1500 l 1
 1451 1416 1336 1368 1207 1368 c 0
1539 -440 m 1
 1729 -440 l 25
 1729 1500 l 25
 1539 1500 l 1
 1539 -440 l 1
1349 253 m 1
 1348 1227 l 1
 1159 1227 l 1
 1159 253 l 1
 1349 253 l 1
1253 452 m 1
 1170 265 1002 148 801 148 c 0
 511 148 290 390 290 740 c 0
 290 1090 511 1332 801 1332 c 0
 1002 1332 1170 1215 1253 1028 c 1
 1348 1227 l 1
 1221 1397 1025 1500 801 1500 c 0
 406 1500 100 1179 100 740 c 0
 100 301 406 -20 801 -20 c 0
 1025 -20 1222 83 1349 253 c 1
 1253 452 l 1
EndSplineSet
Validated: 5
Colour: ffff
EndChar

StartChar: uni01A3
Encoding: 419 419 401
Width: 1496
VWidth: 1000
Flags: HMW
LayerCount: 4
Fore
SplineSet
1335 969 m 1
 1176 1040 l 1
 1120 966 1037 922 937 922 c 0
 937 762 l 0
 1102 762 1244 841 1335 969 c 1
1176 -440 m 1
 1356 -440 l 25
 1356 1040 l 25
 1176 1040 l 1
 1176 -440 l 1
816 187 m 1
 996 187 l 1
 996 853 l 1
 816 853 l 1
 816 187 l 1
865 302 m 1
 811 202 717 140 598 140 c 0
 407 140 280 300 280 520 c 0
 280 740 407 900 598 900 c 0
 731 900 833 822 883 700 c 1
 996 853 l 1
 905 981 763 1060 598 1060 c 0
 317 1060 100 832 100 520 c 0
 100 208 317 -20 598 -20 c 0
 763 -20 906 59 996 187 c 1
 865 302 l 1
EndSplineSet
Validated: 5
Substitution2: "'smcp' Bas-de-casse vers petites capitales lookups0-1" uni01A3.sc
Colour: ff00
EndChar

StartChar: uni01A4
Encoding: 420 420 402
Width: 1378
Flags: HMW
LayerCount: 4
Fore
SplineSet
196 1110 m 1
 4 1110 l 1
 1 1126 0 1143 0 1160 c 0
 0 1338 152 1480 330 1480 c 0
 345 1480 360 1479 374 1477 c 1
 374 1306 l 1
 361 1310 346 1312 330 1312 c 0
 240 1312 190 1250 190 1160 c 0
 190 1142 191 1125 196 1110 c 1
520 1312 m 25
 520 740 l 25
 802 740 l 17
 967 740 1088 861 1088 1026 c 0
 1088 1191 967 1312 802 1312 c 9
 520 1312 l 25
330 0 m 1
 330 1480 l 1
 802 1480 l 1
 1057 1480 1278 1281 1278 1026 c 0
 1278 771 1057 572 802 572 c 1
 520 572 l 1
 520 0 l 25
 330 0 l 1
EndSplineSet
Validated: 5
Colour: ffff
EndChar

StartChar: uni01A5
Encoding: 421 421 403
Width: 1184
VWidth: 1000
Flags: HMW
LayerCount: 4
Fore
SplineSet
308 520 m 0
 308 290 426 140 606 140 c 0
 786 140 904 290 904 520 c 0
 904 750 786 900 606 900 c 0
 426 900 308 750 308 520 c 0
140 1177 m 1
 140 1358 292 1500 470 1500 c 0
 485 1500 500 1499 514 1497 c 1
 514 1334 l 1
 501 1338 486 1340 470 1340 c 0
 380 1340 320 1270 320 1177 c 1
 320 1177 320 980 320 920 c 1
 405 1005 481 1060 606 1060 c 0
 887 1060 1084 832 1084 520 c 0
 1084 208 887 -20 606 -20 c 0
 481 -20 405 35 320 120 c 1
 320 -440 l 1
 140 -440 l 1
 140 872 l 1
 140 974 140 1177 140 1177 c 1
EndSplineSet
Substitution2: "'smcp' Bas-de-casse vers petites capitales lookups0-1" uni01A5.sc
Colour: ff00
EndChar

StartChar: uni01A6
Encoding: 422 422 404
Width: 1188
Flags: HMW
LayerCount: 4
Fore
SplineSet
500 449 m 1
 630 572 l 1
 1128 -168 l 1
 914 -168 l 1
 500 449 l 1
330 1144 m 25
 330 572 l 25
 612 572 l 17
 777 572 898 693 898 858 c 0
 898 1023 777 1144 612 1144 c 9
 330 1144 l 25
140 0 m 1
 140 1193 l 1
 140 1480 l 1
 330 1480 l 1
 330 1312 l 1
 612 1312 l 1
 867 1312 1088 1113 1088 858 c 0
 1088 603 867 404 612 404 c 1
 330 404 l 1
 330 0 l 25
 140 0 l 1
EndSplineSet
Validated: 5
Colour: ffff
EndChar

StartChar: uni01A7
Encoding: 423 423 405
Width: 1219
VWidth: 1000
Flags: HMW
AnchorPoint: "bottom_center" 609 0 basechar 0
AnchorPoint: "top_center" 609 1400 basechar 0
LayerCount: 4
Fore
SplineSet
609 1332 m 0
 819 1332 905 1214 905 1086 c 0
 905 958 816 889 609 837 c 0
 316 763 100 649 100 394 c 0
 100 139 303 -20 609 -20 c 0
 890 -20 1092 158 1119 396 c 1
 932 446 l 0
 932 290 809 148 609 148 c 0
 389 148 286 254 286 394 c 0
 286 534 401 600 609 653 c 0
 904 728 1095 846 1095 1086 c 0
 1095 1326 900 1500 609 1500 c 0
 328 1500 153 1322 126 1084 c 5
 313 1034 l 4
 313 1190 409 1332 609 1332 c 0
EndSplineSet
Colour: ffff
EndChar

StartChar: uni01A8
Encoding: 424 424 406
Width: 1032
VWidth: 1000
Flags: HMW
LayerCount: 4
Fore
SplineSet
720 755 m 0
 720 674 653 651 500 613 c 0
 277 557 100 473 100 285 c 0
 100 97 270 -20 500 -20 c 0
 730 -20 881 63 932 252 c 1
 779 340 l 1
 754 200 640 140 500 140 c 0
 324 140 280 204 280 285 c 0
 280 366 347 391 500 431 c 0
 723 489 900 567 900 755 c 0
 900 942 730 1060 500 1060 c 0
 270 1060 170 957 108 788 c 1
 261 700 l 1
 297 799 342 900 500 900 c 0
 676 900 720 836 720 755 c 0
EndSplineSet
Validated: 9
Substitution2: "'smcp' Bas-de-casse vers petites capitales lookups0-1" uni01A8.sc
Colour: ff00
EndChar

StartChar: uni01A9
Encoding: 425 425 407
Width: 1208
Flags: HMW
LayerCount: 4
Fore
SplineSet
783 740 m 1
 352 168 l 1
 1068 168 l 1
 1068 0 l 1
 140 0 l 17
 140 168 l 1
 571 740 l 1
 140 1312 l 1
 140 1480 l 1
 1068 1480 l 17
 1068 1312 l 1
 352 1312 l 1
 783 740 l 1
EndSplineSet
Validated: 1
Colour: ffff
EndChar

StartChar: uni01AA
Encoding: 426 426 408
Width: 919
VWidth: 1000
Flags: HMW
LayerCount: 4
Fore
SplineSet
100 1266 m 0
 100 1408 220 1500 350 1500 c 0
 480 1500 599 1408 599 1266 c 0
 599 1124 480 1032 350 1032 c 0
 220 1032 100 1124 100 1266 c 0
290 1266 m 0
 290 1230 314 1200 350 1200 c 0
 386 1200 410 1230 410 1266 c 0
 410 1302 386 1332 350 1332 c 0
 314 1332 290 1302 290 1266 c 0
599 1270 m 1
 599 308 l 2
 599 206 647 148 749 148 c 0
 792 148 843 164 869 183 c 1
 914 12 l 1
 869 -6 805 -20 749 -20 c 0
 549 -20 409 109 409 308 c 2
 409 1270 l 1
 599 1270 l 1
EndSplineSet
Validated: 5
Colour: ffff
EndChar

StartChar: uni01AB
Encoding: 427 427 409
Width: 770
VWidth: 1000
Flags: HMW
LayerCount: 4
Fore
SplineSet
690 0 m 1
 690 -181 538 -323 360 -323 c 0
 345 -323 330 -322 316 -320 c 1
 316 -157 l 1
 329 -161 344 -163 360 -163 c 0
 450 -163 510 -93 510 0 c 1
 690 0 l 1
122 1028 m 17
 212 1028 272 1092 272 1182 c 9
 272 1320 l 1
 440 1320 l 1
 440 1040 l 1
 720 1040 l 1
 720 880 l 1
 440 880 l 1
 440 300 l 2
 440 198 498 140 600 140 c 0
 643 140 694 156 720 175 c 1
 765 12 l 1
 720 -6 656 -20 600 -20 c 0
 400 -20 260 101 260 300 c 2
 260 880 l 1
 50 880 l 1
 50 926 50 982 50 1028 c 1
 122 1028 l 17
EndSplineSet
Substitution2: "'smcp' Bas-de-casse vers petites capitales lookups0-1" uni01AB.sc
Colour: ff00
EndChar

StartChar: uni01AC
Encoding: 428 428 410
Width: 1398
Flags: HMW
LayerCount: 4
Fore
SplineSet
330 1312 m 0
 240 1312 190 1250 190 1160 c 0
 190 1142 191 1125 196 1110 c 1
 4 1110 l 1
 1 1126 0 1143 0 1160 c 0
 0 1338 152 1480 330 1480 c 0
 330 1312 l 0
794 0 m 25
 604 0 l 25
 604 1312 l 25
 330 1312 l 25
 330 1480 l 25
 1258 1480 l 25
 1258 1312 l 25
 794 1312 l 25
 794 0 l 25
EndSplineSet
Colour: ffff
EndChar

StartChar: uni01AE
Encoding: 430 430 411
Width: 1398
Flags: HMW
LayerCount: 4
Fore
SplineSet
604 0 m 0
 604 -178 756 -320 934 -320 c 0
 949 -320 964 -319 978 -317 c 1
 978 -146 l 1
 965 -150 950 -152 934 -152 c 0
 844 -152 794 -90 794 0 c 0
 604 0 l 0
794 0 m 25
 604 0 l 25
 604 1312 l 25
 140 1312 l 25
 140 1480 l 25
 1258 1480 l 25
 1258 1312 l 25
 794 1312 l 25
 794 0 l 25
EndSplineSet
Colour: ffff
EndChar

StartChar: uni01AD
Encoding: 429 429 412
Width: 770
VWidth: 1000
Flags: HMW
LayerCount: 4
Fore
SplineSet
272 1320 m 1
 272 1182 l 1
 272 1092 212 1028 122 1028 c 9
 50 1028 l 1
 50 982 50 926 50 880 c 1
 260 880 l 1
 260 300 l 2
 260 101 400 -20 600 -20 c 0
 656 -20 720 -6 765 12 c 1
 720 175 l 1
 694 156 643 140 600 140 c 0
 498 140 440 198 440 300 c 2
 440 880 l 1
 720 880 l 1
 720 1040 l 1
 440 1040 l 1
 440 1320 l 1
 440 1413 501 1493 591 1493 c 0
 607 1493 622 1491 635 1487 c 1
 635 1650 l 1
 621 1652 606 1653 591 1653 c 0
 413 1653 272 1501 272 1320 c 1
EndSplineSet
Substitution2: "'smcp' Bas-de-casse vers petites capitales lookups0-1" uni01AD.sc
Colour: ff00
EndChar

StartChar: uni01B1
Encoding: 433 433 415
Width: 1602
Flags: HMW
LayerCount: 4
Fore
SplineSet
941 1480 m 1
 1502 1480 l 1
 1502 1312 l 1
 941 1312 l 1
 941 1480 l 1
100 1480 m 1
 661 1480 l 1
 661 1312 l 1
 100 1312 l 1
 100 1480 l 1
941 1312 m 1
 1263 1312 l 1
 1405 1176 1502 975 1502 740 c 0
 1502 301 1196 -20 801 -20 c 0
 801 148 l 0
 1091 148 1312 390 1312 740 c 0
 1312 1031 1159 1247 941 1312 c 1
661 1312 m 1
 443 1247 290 1031 290 740 c 0
 290 390 511 148 801 148 c 0
 801 -20 l 0
 406 -20 100 301 100 740 c 0
 100 975 197 1176 339 1312 c 1
 661 1312 l 1
EndSplineSet
Validated: 5
Colour: ffff
EndChar

StartChar: uni01B2
Encoding: 434 434 416
Width: 1398
Flags: HMW
LayerCount: 4
Fore
SplineSet
1068 1180 m 9
 1068 600 l 1
 1068 350 949 148 699 148 c 0
 449 148 330 350 330 600 c 9
 330 1480 l 25
 140 1480 l 25
 140 600 l 17
 140 240 339 -20 699 -20 c 0
 1059 -20 1258 240 1258 600 c 1
 1258 1180 l 17
 1258 1358 1106 1500 928 1500 c 0
 913 1500 898 1499 884 1497 c 1
 884 1326 l 1
 897 1330 912 1332 928 1332 c 0
 1018 1332 1068 1270 1068 1180 c 9
EndSplineSet
Validated: 9
Colour: ffff
EndChar

StartChar: uni01B3
Encoding: 435 435 417
Width: 1491
VWidth: 1000
Flags: HMW
LayerCount: 4
Fore
SplineSet
1014 1343 m 0
 1073 1445 1171 1500 1282 1500 c 0
 1339 1500 1397 1485 1449 1455 c 0
 1462 1448 1474 1440 1486 1431 c 1
 1401 1283 l 1
 1391 1293 1379 1302 1365 1310 c 0
 1340 1325 1316 1331 1292 1331 c 0
 1243 1331 1198 1301 1168 1248 c 0
 1014 1343 l 0
601 0 m 1
 601 740 l 1
 791 740 l 1
 791 0 l 1
 601 0 l 1
755 628 m 1
 621 666 l 1
 70 1480 l 1
 284 1480 l 1
 696 858 l 1
 1014 1343 l 1
 1168 1248 l 1
 755 628 l 1
EndSplineSet
Validated: 5
Colour: ffff
EndChar

StartChar: uni01B4
Encoding: 436 436 418
Width: 1189
VWidth: 1000
Flags: HMW
LayerCount: 4
Fore
SplineSet
747 822 m 1
 786 968 913 1060 1056 1060 c 0
 1085 1060 1113 1057 1142 1049 c 0
 1156 1045 1171 1040 1184 1034 c 1
 1142 877 l 1
 1130 884 1116 890 1101 894 c 0
 1087 898 1073 900 1060 900 c 0
 991 900 934 850 914 775 c 1
 747 822 l 1
552 -255 m 1
 507 -385 393 -460 235 -460 c 0
 179 -460 115 -446 70 -428 c 1
 115 -265 l 1
 141 -284 192 -300 235 -300 c 0
 312 -300 364 -267 385 -206 c 1
 458 0 l 1
 93 1040 l 1
 282 1040 l 1
 550 224 l 1
 747 822 l 1
 914 775 l 1
 642 0 l 1
 552 -255 l 1
EndSplineSet
Substitution2: "'smcp' Bas-de-casse vers petites capitales lookups0-1" uni01B4.sc
Colour: ff00
EndChar

StartChar: uni01B5
Encoding: 437 437 419
Width: 1308
VWidth: 1000
Flags: HMW
LayerCount: 4
Fore
SplineSet
999 656 m 1
 329 656 l 1
 329 702 329 778 329 824 c 1
 999 824 l 1
 999 656 l 1
242 0 m 1
 140 152 l 1
 1066 1480 l 1
 1168 1328 l 1
 242 0 l 1
325 168 m 1
 1160 168 l 1
 1160 0 l 1
 790 0 510 0 140 0 c 1
 140 152 l 1
 325 168 l 1
952 1312 m 1
 160 1312 l 1
 160 1480 l 1
 530 1480 798 1480 1168 1480 c 1
 1168 1328 l 1
 952 1312 l 1
EndSplineSet
Validated: 5
Colour: ffff
EndChar

StartChar: uni01B6
Encoding: 438 438 420
Width: 1024
Flags: HMW
LayerCount: 4
Fore
SplineSet
140 1040 m 1
 140 880 l 1
 680 880 l 1
 884 896 l 1
 884 1040 l 1
 140 1040 l 1
880 160 m 1
 344 160 l 1
 140 144 l 1
 140 0 l 1
 880 0 l 1
 880 160 l 1
344 160 m 1
 884 896 l 1
 680 880 l 1
 140 144 l 1
 344 160 l 1
177 440 m 1
 847 440 l 1
 847 600 l 1
 177 600 l 1
 177 554 177 486 177 440 c 1
EndSplineSet
Validated: 5
Substitution2: "'smcp' Bas-de-casse vers petites capitales lookups0-1" uni01B6.sc
Colour: ff00
EndChar

StartChar: uni01B7
Encoding: 439 439 421
Width: 1222
VWidth: 1000
Flags: HMW
LayerCount: 4
Fore
SplineSet
1077 1328 m 1
 640 740 l 1
 515 840 l 1
 863 1312 l 1
 1077 1328 l 1
1122 422 m 0
 1122 179 910 -20 610 -20 c 0
 329 -20 127 158 100 396 c 1
 287 446 l 0
 287 290 410 148 610 148 c 0
 810 148 932 266 932 422 c 0
 932 578 810 696 610 696 c 1
 539 696 515 696 515 696 c 25
 515 840 l 25
 515 840 540 856 610 856 c 1
 893 856 1122 662 1122 422 c 0
172 1480 m 1
 1077 1480 l 1
 1077 1328 l 1
 863 1312 l 1
 172 1312 l 1
 172 1480 l 1
EndSplineSet
Colour: ffff
EndChar

StartChar: uni01B8
Encoding: 440 440 422
Width: 1222
VWidth: 1000
Flags: HMW
LayerCount: 4
Fore
SplineSet
145 1328 m 1
 582 740 l 1
 707 840 l 1
 359 1312 l 1
 145 1328 l 1
100 422 m 0
 100 179 312 -20 612 -20 c 0
 893 -20 1095 158 1122 396 c 1
 935 446 l 0
 935 290 812 148 612 148 c 0
 412 148 290 266 290 422 c 0
 290 578 412 696 612 696 c 1
 683 696 707 696 707 696 c 25
 707 840 l 25
 707 840 682 856 612 856 c 1
 329 856 100 662 100 422 c 0
1050 1480 m 1
 145 1480 l 1
 145 1328 l 1
 359 1312 l 1
 1050 1312 l 1
 1050 1480 l 1
EndSplineSet
Colour: ffff
EndChar

StartChar: uni01B9
Encoding: 441 441 423
Width: 1222
VWidth: 1000
Flags: HMW
LayerCount: 4
Fore
SplineSet
145 888 m 1
 582 300 l 1
 707 400 l 1
 359 872 l 1
 145 888 l 1
100 -18 m 0
 100 -261 312 -460 612 -460 c 0
 893 -460 1095 -282 1122 -44 c 1
 935 6 l 0
 935 -150 812 -292 612 -292 c 0
 412 -292 290 -174 290 -18 c 0
 290 138 412 256 612 256 c 1
 683 256 707 256 707 256 c 25
 707 400 l 25
 707 400 682 416 612 416 c 1
 329 416 100 222 100 -18 c 0
1050 1040 m 1
 145 1040 l 1
 145 888 l 1
 359 872 l 1
 1050 872 l 1
 1050 1040 l 1
EndSplineSet
Colour: ffff
EndChar

StartChar: uni01BA
Encoding: 442 442 424
Width: 1196
VWidth: 1000
Flags: HMW
LayerCount: 4
Fore
SplineSet
598 -107 m 0
 378 -107 280 -152 280 -212 c 0
 280 -272 378 -310 598 -310 c 0
 758 -310 874 -294 987 -239 c 1
 1028 -393 l 1
 919 -444 818 -470 598 -470 c 0
 298 -470 100 -412 100 -212 c 0
 100 -12 298 53 598 53 c 0
 818 53 916 91 916 151 c 0
 916 211 818 256 598 256 c 0
 515 256 l 25
 515 400 l 1
 598 416 l 0
 898 416 1096 351 1096 151 c 0
 1096 -49 898 -107 598 -107 c 0
1077 896 m 1
 630 300 l 1
 515 400 l 1
 873 880 l 1
 1077 896 l 1
172 1040 m 1
 1077 1040 l 1
 1077 896 l 1
 873 880 l 1
 172 880 l 1
 172 1040 l 1
EndSplineSet
Colour: ff00
EndChar

StartChar: uni01BB
Encoding: 443 443 425
Width: 1232
VWidth: 1000
Flags: HMW
LayerCount: 4
Fore
SplineSet
1112 492 m 1
 124 492 l 1
 124 538 124 614 124 660 c 1
 1112 660 l 1
 1112 492 l 1
321 949 m 1
 128 1000 l 0
 128 1300 336 1500 616 1500 c 0
 896 1500 1104 1320 1104 1040 c 0
 914 1040 l 0
 914 1220 796 1332 616 1332 c 0
 436 1332 318 1180 318 1000 c 0
 318 982 319 966 321 949 c 1
120 0 m 1
 120 160 131 388 616 668 c 0
 772 758 914 860 914 1040 c 1
 1104 1040 l 1
 1104 749 858 608 616 468 c 0
 313 293 310 90 310 0 c 1
 254 0 176 0 120 0 c 1
212 168 m 1
 1112 168 l 1
 1112 0 l 1
 210 0 l 1
 212 168 l 1
EndSplineSet
Validated: 5
Colour: ffff
EndChar

StartChar: uni01BC
Encoding: 444 444 426
Width: 1288
VWidth: 1000
Flags: HMW
LayerCount: 4
Fore
SplineSet
379 668 m 1
 266 701 l 1
 353 858 443.280273438 986 676 986 c 0
 957 986 1188 774 1188 483 c 0
 1188 192 956 -20 675 -20 c 0
 394 -20 192 158 165 396 c 1
 352 446 l 0
 352 290 475 148 675 148 c 0
 854 148 998 279 998 483 c 0
 998 687 854 818 676 818 c 0
 520.377929688 818 435 763 379 668 c 1
488 1480 m 1
 379.41796875 751 l 1
 266 701 l 1
 200 720 l 1
 308 1480 l 1
 365 1480 431 1480 488 1480 c 1
70 1312 m 1
 70 1480 l 1
 1116 1480 l 1
 1116 1312 l 1
 70 1312 l 1
EndSplineSet
Validated: 5
Colour: ffff
EndChar

StartChar: uni01BD
Encoding: 445 445 427
Width: 1056
Flags: HMW
LayerCount: 4
Fore
SplineSet
549 145 m 0
 675 145 776 224 776 347 c 0
 776 470 675 549 550 549 c 0
 446 549 397 527 348 454 c 1
 244 474 l 1
 282 581 351 708 556 708 c 0
 761 708 956 556 956 347 c 0
 956 138 758 -14 550 -14 c 0
 327 -14 166 118 145 295 c 1
 322 325 l 0
 322 231 408 145 549 145 c 0
431 1040 m 1
 363.641509434 587 l 1
 244 474 l 1
 181 486 l 1
 271 1040 l 1
 314 1040 388 1040 431 1040 c 1
70 881 m 1
 70 1040 l 1
 888 1040 l 1
 888 881 l 1
 70 881 l 1
EndSplineSet
Validated: 5
Substitution2: "'smcp' Bas-de-casse vers petites capitales lookups0-1" uni01BD.sc
Colour: ff00
EndChar

StartChar: uni01BE
Encoding: 446 446 428
Width: 1160
VWidth: 1000
Flags: HMW
LayerCount: 4
Fore
SplineSet
440 880 m 9
 440 755 l 0
 440 674 507 651 660 613 c 0
 883 557 1060 473 1060 285 c 0
 1060 97 890 -20 660 -20 c 0
 430 -20 279 63 228 252 c 1
 381 340 l 1
 406 200 520 140 660 140 c 0
 836 140 880 204 880 285 c 0
 880 366 813 391 660 431 c 0
 437 489 260 567 260 755 c 0
 260 880 l 17
 50 880 l 1
 50 926 50 982 50 1028 c 1
 122 1028 l 17
 212 1028 272 1092 272 1182 c 9
 272 1320 l 1
 440 1320 l 1
 440 1040 l 1
 720 1040 l 1
 720 880 l 1
 440 880 l 9
EndSplineSet
Validated: 1
Colour: ff00
EndChar

StartChar: uni01BF
Encoding: 447 447 429
Width: 1156
VWidth: 1000
Flags: HMW
LayerCount: 4
Fore
SplineSet
836 572 m 0
 836 791 780 900 578 900 c 0
 398 900 320 791 320 572 c 2
 320 -440 l 1
 140 -440 l 1
 140 1040 l 1
 308 1040 l 1
 308 920 l 1
 393 1005 493 1060 618 1060 c 0
 888 1060 1016 892 1016 572 c 0
 1016 252 700 -168 140 -168 c 1
 140 0 l 1
 620 0 836 353 836 572 c 0
EndSplineSet
Validated: 5
Substitution2: "'smcp' Bas-de-casse vers petites capitales lookups0-1" uni01BF.sc
Colour: ff00
EndChar

StartChar: uni01C0
Encoding: 448 448 430
Width: 460
Flags: HMW
LayerCount: 4
Fore
SplineSet
320 1480 m 25
 320 0 l 25
 140 0 l 1
 140 1480 l 1
 320 1480 l 25
EndSplineSet
Validated: 1
Colour: ff00
EndChar

StartChar: uni01C1
Encoding: 449 449 431
Width: 820
Flags: HMW
LayerCount: 4
Fore
SplineSet
680 1480 m 25
 680 0 l 25
 500 0 l 1
 500 1480 l 1
 680 1480 l 25
320 1480 m 25
 320 0 l 25
 140 0 l 1
 140 1480 l 1
 320 1480 l 25
EndSplineSet
Validated: 1
Colour: ff00
EndChar

StartChar: uni01C2
Encoding: 450 450 432
Width: 1208
Flags: HMW
LayerCount: 4
Fore
SplineSet
140 840 m 1
 140 1000 l 1
 1068 1000 l 17
 1068 840 l 1
 140 840 l 1
140 480 m 1
 140 640 l 1
 1068 640 l 17
 1068 480 l 1
 140 480 l 1
694 1480 m 25
 694 0 l 25
 514 0 l 1
 514 1480 l 1
 694 1480 l 25
EndSplineSet
Validated: 5
Colour: ff00
EndChar

StartChar: uni01C3
Encoding: 451 451 433
Width: 532
Flags: HMW
LayerCount: 4
Fore
SplineSet
140 107 m 0
 140 179 193 236 265 236 c 0
 337 236 392 179 392 107 c 0
 392 35 337 -20 265 -20 c 0
 193 -20 140 35 140 107 c 0
159 1480 m 1
 371 1480 l 1
 355 452 l 1
 175 452 l 1
 159 1480 l 1
EndSplineSet
Validated: 1
Colour: ff00
EndChar

StartChar: uni01DD
Encoding: 477 477 451
Width: 1196
VWidth: 1000
Flags: HMW
LayerCount: 4
Fore
SplineSet
1022 440 m 1
 216 440 l 1
 216 600 l 1
 1022 600 l 1
 1022 440 l 1
286 700 m 1
 133 788 l 1
 216 966 399 1060 598 1060 c 0
 879 1060 1096 832 1096 520 c 0
 1096 208 879 -20 598 -20 c 0
 317 -20 100 208 100 520 c 0
 100 547 102 574 105 600 c 1
 286 600 l 1
 282 574 280 548 280 520 c 0
 280 300 407 140 598 140 c 0
 789 140 916 300 916 520 c 0
 916 740 789 900 598 900 c 0
 457 900 335 833 286 700 c 1
EndSplineSet
Validated: 5
Substitution2: "'smcp' Bas-de-casse vers petites capitales lookups0-1" uni01DD.sc
Colour: ff00
EndChar

StartChar: uni01E4
Encoding: 484 484 457
Width: 1632
Flags: HMW
LayerCount: 4
Fore
SplineSet
1632 236 m 1
 950 236 l 1
 950 282 950 358 950 404 c 1
 1632 404 l 1
 1632 236 l 1
1253 1029 m 1
 1170 1216 1002 1332 801 1332 c 0
 511 1332 290 1090 290 740 c 0
 290 390 511 148 801 148 c 0
 1002 148 1170 264 1253 451 c 1
 1414 360 l 1
 1296 128 1069 -20 801 -20 c 0
 406 -20 100 301 100 740 c 0
 100 1179 406 1500 801 1500 c 0
 1069 1500 1296 1352 1414 1120 c 1
 1253 1029 l 1
801 740 m 25
 1422 740 l 25
 1422 0 l 25
 1240 0 l 17
 1240 227 l 1
 1232 253 l 1
 1232 572 l 9
 801 572 l 25
 801 740 l 25
EndSplineSet
Validated: 5
Colour: ffff
EndChar

StartChar: uni01E5
Encoding: 485 485 458
Width: 1245
VWidth: 1000
Flags: HMW
AnchorPoint: "top_center" 520 1040 basechar 0
AnchorPoint: "bottom_center" 520 -360 basechar 0
LayerCount: 4
Fore
SplineSet
50 -150 m 4
 50 50 260 80 520 80 c 4
 520 0 l 4
 272 0 230 -75 230 -150 c 4
 50 -150 l 4
604 968 m 5
 677 1024 761 1060 861 1060 c 4
 929 1060 984 1049 1035 1028 c 5
 987 849 l 5
 944 883 892 900 821 900 c 4
 774 900 734 892 700 877 c 5
 604 968 l 5
520 160 m 4
 520 0 l 4
 280 0 140 70 140 230 c 4
 140 390 360 415 520 415 c 4
 520 300 l 4
 362 300 320 270 320 230 c 4
 320 190 362 160 520 160 c 4
520 160 m 4
 880 160 1035 30 1035 -150 c 4
 1035 -330 880 -460 520 -460 c 4
 160 -460 50 -310 50 -150 c 4
 230 -150 l 4
 230 -225 272 -300 520 -300 c 4
 768 -300 855 -250 855 -150 c 4
 855 -50 768 0 520 0 c 4
 520 160 l 4
320 680 m 4
 320 560 400 460 520 460 c 4
 640 460 720 560 720 680 c 4
 720 800 640 900 520 900 c 4
 400 900 320 800 320 680 c 4
140 680 m 4
 140 899 301 1060 520 1060 c 4
 739 1060 900 899 900 680 c 4
 900 461 739 300 520 300 c 4
 301 300 140 461 140 680 c 4
575 -227 m 1
 575 -181 575 -113 575 -67 c 1
 1245 -67 l 1
 1245 -227 l 1
 575 -227 l 1
EndSplineSet
Substitution2: "'smcp' Bas-de-casse vers petites capitales lookups0-1" uni01E5.sc
Substitution2: "'ss04' Simplified a and g lookups0-1" uni01E5.ss04
Colour: ff00
EndChar

StartChar: uni0292
Encoding: 658 658 472
Width: 1222
VWidth: 1000
Flags: HMW
LayerCount: 4
Fore
SplineSet
1077 888 m 1
 640 300 l 1
 515 400 l 1
 863 872 l 1
 1077 888 l 1
1122 -18 m 0
 1122 -261 910 -460 610 -460 c 0
 329 -460 127 -282 100 -44 c 1
 287 6 l 0
 287 -150 410 -292 610 -292 c 0
 810 -292 932 -174 932 -18 c 0
 932 138 810 256 610 256 c 1
 539 256 515 256 515 256 c 25
 515 400 l 25
 515 400 540 416 610 416 c 1
 893 416 1122 222 1122 -18 c 0
172 1040 m 1
 1077 1040 l 1
 1077 888 l 1
 863 872 l 1
 172 872 l 1
 172 1040 l 1
EndSplineSet
Colour: ffff
EndChar

StartChar: uni01F7
Encoding: 503 503 497
Width: 1358
VWidth: 1000
Flags: HMW
LayerCount: 4
Fore
SplineSet
1062 880 m 0
 1062 1099 976 1332 696 1332 c 0
 516 1332 330 1104 330 874 c 2
 330 -440 l 1
 140 -440 l 1
 140 1480 l 1
 318 1480 l 1
 318 1310 l 1
 495 1487 611 1500 736 1500 c 0
 1066 1500 1252 1260 1252 880 c 0
 1252 380 700 2 140 2 c 1
 140 178 l 1
 620 178 1062 520 1062 880 c 0
EndSplineSet
Validated: 5
Colour: ffff
EndChar

StartChar: uni01F6
Encoding: 502 502 498
Width: 2104
Flags: HMW
LayerCount: 4
Fore
SplineSet
1964 1040 m 1
 1964 468 l 1
 1964 118 1786 -20 1516 -20 c 0
 1246 -20 1068 118 1068 468 c 1
 1068 1040 l 1
 1258 1040 l 1
 1258 468 l 2
 1258 249 1336 148 1516 148 c 0
 1696 148 1774 249 1774 468 c 2
 1774 1040 l 1
 1964 1040 l 1
140 1480 m 25
 330 1480 l 25
 330 824 l 25
 1068 824 l 25
 1068 1480 l 25
 1258 1480 l 1
 1258 530 l 25
 1068 530 l 25
 1068 656 l 1
 330 656 l 25
 330 0 l 25
 140 0 l 25
 140 1480 l 25
EndSplineSet
Validated: 5
Colour: ffff
EndChar

StartChar: uni030F
Encoding: 783 783 499
Width: 0
VWidth: 1000
Flags: HMW
AnchorPoint: "top_center" 598 1040 mark 0
LayerCount: 4
Fore
SplineSet
357 1224 m 1
 535 1224 l 1
 357 1480 l 1
 131 1480 l 1
 357 1224 l 1
761 1224 m 1
 939 1224 l 1
 761 1480 l 1
 535 1480 l 1
 761 1224 l 1
EndSplineSet
Colour: ffff00
EndChar

StartChar: uni0311
Encoding: 785 785 512
Width: 0
VWidth: 1000
Flags: HMW
AnchorPoint: "top_center" 598 1040 mark 0
LayerCount: 4
Fore
SplineSet
598 1490 m 0
 448 1490 318 1364 318 1224 c 1
 478 1224 l 1
 478 1290 532 1350 598 1350 c 0
 664 1350 718 1290 718 1224 c 1
 878 1224 l 1
 878 1364 748 1490 598 1490 c 0
EndSplineSet
Colour: ffff00
EndChar

StartChar: uni0326
Encoding: 806 806 529
Width: 0
Flags: HMW
LayerCount: 4
Fore
SplineSet
360 -225 m 4
 360 -167 402 -122 460 -122 c 4
 516 -122 561 -167 561 -225 c 4
 561 -283 518 -327 460 -327 c 4
 402 -327 360 -283 360 -225 c 4
372 -440 m 5
 418 -430 489 -391 489 -295 c 4
 489 -273 461 -225 461 -225 c 5
 460 -122 l 5
 516 -122 590 -159 590 -295 c 4
 590 -439 458 -516 396 -532 c 5
 372 -440 l 5
EndSplineSet
Colour: ffbf00
EndChar

StartChar: uni021C
Encoding: 540 540 530
Width: 1189
VWidth: 1000
Flags: HMW
LayerCount: 4
Fore
SplineSet
697 548 m 1
 835 520 909 412 909 278 c 0
 909 56 695 -272 235 -272 c 0
 235 -440 l 0
 755 -440 1099 -72 1099 278 c 0
 1099 476 986 623 819 688 c 1
 697 548 l 1
572 1332 m 0
 761 1332 864 1212 864 1054 c 0
 864 832 695 504 235 504 c 0
 235 336 l 0
 755 336 1054 704 1054 1054 c 0
 1054 1324 842 1500 572 1500 c 0
 302 1500 90 1302 90 1032 c 0
 285 978 l 1
 282 995 280 1013 280 1032 c 0
 280 1190 382 1332 572 1332 c 0
EndSplineSet
Validated: 5
Colour: ffff
EndChar

StartChar: uni021D
Encoding: 541 541 531
Width: 939
Flags: HMW
LayerCount: 4
Fore
SplineSet
536 349 m 1
 640 329 696 253 696 159 c 0
 696 3 491 -280 153 -280 c 0
 153 -440 l 0
 560 -440 876 -116 876 140 c 0
 876 285 800 424 648 471 c 1
 536 349 l 1
448 914 m 0
 581 914 653 836 653 733 c 0
 653 588 484 320 153 320 c 0
 153 160 l 0
 555 160 833 486 833 745 c 0
 833 944 664 1075 448 1075 c 0
 232 1075 63 926 63 724 c 0
 247 684 l 1
 245 695 243 707 243 719 c 0
 243 822 315 914 448 914 c 0
EndSplineSet
Validated: 5
Substitution2: "'smcp' Bas-de-casse vers petites capitales lookups0-1" uni021D.sc
Colour: ff00
EndChar

StartChar: uni0220
Encoding: 544 544 532
Width: 1392
VWidth: 1000
Flags: HMW
LayerCount: 4
Fore
SplineSet
1252 880 m 0
 1252 1260 1066 1500 736 1500 c 0
 611 1500 495 1487 318 1310 c 1
 318 1480 l 1
 140 1480 l 1
 140 0 l 1
 330 0 l 1
 330 880 l 2
 330 1110 416 1332 696 1332 c 0
 976 1332 1062 1110 1062 880 c 0
 1062 -440 l 25
 1252 -440 l 25
 1252 880 l 0
EndSplineSet
Validated: 9
Colour: ffff
EndChar

StartChar: uni0221
Encoding: 545 545 533
Width: 1344
VWidth: 1000
Flags: HMW
LayerCount: 4
Fore
SplineSet
864 -147 m 0
 864 -5 974 79 1104 79 c 0
 1234 79 1344 -5 1344 -147 c 0
 1344 -289 1234 -373 1104 -373 c 0
 974 -373 864 -289 864 -147 c 0
1044 -147 m 0
 1044 -183 1068 -213 1104 -213 c 0
 1140 -213 1164 -183 1164 -147 c 0
 1164 -111 1140 -81 1104 -81 c 0
 1068 -81 1044 -111 1044 -147 c 0
640 -372 m 1
 640 -372 755 79 1105 79 c 1
 1105 -81 l 1
 885 -81 793 -460 793 -460 c 1
 640 -372 l 1
876 520 m 0
 876 750 758 900 578 900 c 0
 398 900 280 750 280 520 c 0
 280 290 398 140 578 140 c 0
 758 140 876 290 876 520 c 0
1044 168 m 1
 1044 66 1044 -100 1044 -100 c 1
 864 -147 l 1
 864 -147 864 60 864 120 c 1
 779 35 703 -20 578 -20 c 0
 297 -20 100 208 100 520 c 0
 100 832 297 1060 578 1060 c 0
 703 1060 779 1005 864 920 c 1
 864 1480 l 1
 1044 1480 l 1
 1044 168 l 1
EndSplineSet
Validated: 5
Layer: 2
SplineSet
822 -116 m 4
 822 26 932 110 1062 110 c 4
 1192 110 1302 26 1302 -116 c 4
 1302 -258 1192 -342 1062 -342 c 4
 932 -342 822 -258 822 -116 c 4
1002 -116 m 4
 1002 -152 1026 -182 1062 -182 c 4
 1098 -182 1122 -152 1122 -116 c 4
 1122 -80 1098 -50 1062 -50 c 4
 1026 -50 1002 -80 1002 -116 c 4
598 -341.005859375 m 5
 598 -341.005859375 713 109.994140625 1063 109.994140625 c 5
 1063 -50.005859375 l 5
 843 -50.005859375 751 -429.005859375 751 -429.005859375 c 5
 598 -341.005859375 l 5
EndSplineSet
Substitution2: "'smcp' Bas-de-casse vers petites capitales lookups0-1" uni0221.sc
Colour: ff00
EndChar

StartChar: uni0223
Encoding: 547 547 534
Width: 1222
VWidth: 1000
Flags: HMW
LayerCount: 4
Fore
SplineSet
733 1336 m 1
 777 1500 l 1
 960 1444 1077 1285 1077 1110 c 0
 1077 981 1013 854 905 781 c 1
 1040 702 1122 570 1122 418 c 0
 1122 175 910 -20 610 -20 c 0
 310 -20 100 175 100 418 c 0
 100 569 181 702 315 781 c 1
 207 854 143 981 143 1110 c 0
 143 1285 260 1443 443 1500 c 1
 487 1336 l 1
 388 1300 333 1207 333 1106 c 0
 333 969 435 856 610 856 c 0
 785 856 887 969 887 1106 c 0
 887 1207 832 1301 733 1336 c 1
610 696 m 0
 410 696 290 578 290 422 c 0
 290 266 410 148 610 148 c 0
 810 148 932 266 932 422 c 0
 932 578 810 696 610 696 c 0
EndSplineSet
Validated: 1
Substitution2: "'smcp' Bas-de-casse vers petites capitales lookups0-1" uni0223.sc
Colour: ffff
EndChar

StartChar: uni0222
Encoding: 546 546 535
Width: 1312
VWidth: 1000
Flags: HMW
LayerCount: 4
Fore
SplineSet
143 1024 m 0
 143 934 218 824 315 781 c 1
 181 702 100 569 100 418 c 0
 100 175 295 -20 655 -20 c 0
 1015 -20 1212 175 1212 418 c 0
 1212 570 1130 702 995 781 c 1
 1103 854 1167 969 1167 1098 c 0
 1167 1338 1024 1522 700 1522 c 0
 700 1354 l 0
 922 1354 977 1244 977 1094 c 0
 977 957 877 856 655 856 c 0
 433 856 333 935 333 1030 c 0
 333 1125 430 1184 610 1184 c 0
 610 1352 l 0
 391 1352 143 1264 143 1024 c 0
655 696 m 0
 895 696 1022 578 1022 422 c 0
 1022 266 895 148 655 148 c 0
 415 148 290 266 290 422 c 0
 290 578 415 696 655 696 c 0
EndSplineSet
Validated: 9
Colour: ffff
EndChar

StartChar: uni0224
Encoding: 548 548 536
Width: 1308
VWidth: 1000
Flags: HMW
LayerCount: 4
Fore
SplineSet
1160 0 m 0
 1160 -178 1008 -320 830 -320 c 0
 815 -320 800 -319 786 -317 c 1
 786 -146 l 1
 799 -150 814 -152 830 -152 c 0
 920 -152 970 -90 970 0 c 0
 1160 0 l 0
242 0 m 1
 140 152 l 1
 1066 1480 l 1
 1168 1328 l 1
 242 0 l 1
325 168 m 1
 1160 168 l 1
 1160 0 l 1
 790 0 510 0 140 0 c 1
 140 152 l 1
 325 168 l 1
952 1312 m 1
 160 1312 l 1
 160 1480 l 1
 530 1480 798 1480 1168 1480 c 1
 1168 1328 l 1
 952 1312 l 1
EndSplineSet
Colour: ffff
EndChar

StartChar: uni0225
Encoding: 549 549 537
Width: 1024
Flags: HMW
LayerCount: 4
Fore
SplineSet
880 0 m 1
 880 -181 728 -323 550 -323 c 0
 535 -323 520 -322 506 -320 c 1
 506 -157 l 1
 519 -161 534 -163 550 -163 c 0
 640 -163 700 -93 700 0 c 1
 880 0 l 1
140 1040 m 1
 140 880 l 1
 680 880 l 1
 884 896 l 1
 884 1040 l 1
 140 1040 l 1
880 160 m 1
 344 160 l 1
 140 144 l 1
 140 0 l 1
 880 0 l 1
 880 160 l 1
344 160 m 1
 884 896 l 1
 680 880 l 1
 140 144 l 1
 344 160 l 1
EndSplineSet
Substitution2: "'smcp' Bas-de-casse vers petites capitales lookups0-1" uni0225.sc
Colour: ff00
EndChar

StartChar: uni0234
Encoding: 564 564 538
Width: 620
VWidth: 1000
Flags: HMW
LayerCount: 4
Fore
SplineSet
140 -147 m 0
 140 -5 250 79 380 79 c 0
 510 79 620 -5 620 -147 c 0
 620 -289 510 -373 380 -373 c 0
 250 -373 140 -289 140 -147 c 0
320 -147 m 0
 320 -183 344 -213 380 -213 c 0
 416 -213 440 -183 440 -147 c 0
 440 -111 416 -81 380 -81 c 0
 344 -81 320 -111 320 -147 c 0
-84 -372 m 1
 -84 -372 31 79 381 79 c 1
 381 -81 l 1
 161 -81 69 -460 69 -460 c 1
 -84 -372 l 1
140 1480 m 1
 320 1480 l 1
 320 168 l 1
 320 66 320 -100 320 -100 c 1
 140 -147 l 1
 140 -147 140 60 140 120 c 1
 140 1480 l 1
EndSplineSet
Validated: 5
Substitution2: "'smcp' Bas-de-casse vers petites capitales lookups0-1" uni0234.sc
Colour: ff00
EndChar

StartChar: uni0235
Encoding: 565 565 539
Width: 1316
VWidth: 1000
Flags: HMW
LayerCount: 4
Fore
SplineSet
836 -147 m 0
 836 -5 946 79 1076 79 c 0
 1206 79 1316 -5 1316 -147 c 0
 1316 -289 1206 -373 1076 -373 c 0
 946 -373 836 -289 836 -147 c 0
1016 -147 m 0
 1016 -183 1040 -213 1076 -213 c 0
 1112 -213 1136 -183 1136 -147 c 0
 1136 -111 1112 -81 1076 -81 c 0
 1040 -81 1016 -111 1016 -147 c 0
612 -372 m 1
 612 -372 727 79 1077 79 c 1
 1077 -81 l 1
 857 -81 765 -460 765 -460 c 1
 612 -372 l 1
836 -70 m 1
 836 572 l 2
 836 791 758 900 578 900 c 0
 398 900 320 791 320 572 c 2
 320 0 l 1
 140 0 l 1
 140 1040 l 1
 308 1040 l 1
 308 920 l 1
 393 1005 493 1060 618 1060 c 0
 888 1060 1016 892 1016 572 c 1
 1016 -70 l 1
 836 -70 l 1
EndSplineSet
Validated: 5
Substitution2: "'smcp' Bas-de-casse vers petites capitales lookups0-1" uni0235.sc
Colour: ff00
EndChar

StartChar: uni0236
Encoding: 566 566 540
Width: 740
VWidth: 1000
Flags: HMW
LayerCount: 4
Fore
SplineSet
260 206 m 0
 260 348 370 432 500 432 c 0
 630 432 740 348 740 206 c 0
 740 64 630 -20 500 -20 c 0
 370 -20 260 64 260 206 c 0
440 206 m 0
 440 170 464 140 500 140 c 0
 536 140 560 170 560 206 c 0
 560 242 536 272 500 272 c 0
 464 272 440 242 440 206 c 0
36 -19 m 1
 36 -19 151 432 501 432 c 1
 501 272 l 1
 281 272 189 -107 189 -107 c 1
 36 -19 l 1
260 300 m 25
 260 880 l 1
 50 880 l 1
 50 926 50 982 50 1028 c 1
 122 1028 l 17
 212 1028 272 1092 272 1182 c 9
 272 1320 l 1
 440 1320 l 1
 440 1040 l 1
 720 1040 l 1
 720 880 l 1
 440 880 l 1
 440 300 l 25
 260 300 l 25
EndSplineSet
Substitution2: "'smcp' Bas-de-casse vers petites capitales lookups0-1" uni0236.sc
Colour: ff00
EndChar

StartChar: uni0238
Encoding: 568 568 541
Width: 1908
VWidth: 1000
Flags: HMW
LayerCount: 4
Fore
SplineSet
876 520 m 0
 876 750 758 900 578 900 c 0
 398 900 280 750 280 520 c 0
 280 290 398 140 578 140 c 0
 758 140 876 290 876 520 c 0
864 1480 m 1
 1044 1480 l 1
 1044 920 l 1
 1129 1005 1205 1060 1330 1060 c 0
 1611 1060 1808 832 1808 520 c 0
 1808 208 1611 -20 1330 -20 c 0
 1205 -20 1121 35 1036 120 c 1
 1036 60 1036 0 1036 0 c 1
 872 0 l 1
 872 0 872 60 872 120 c 1
 787 35 703 -20 578 -20 c 0
 297 -20 100 208 100 520 c 0
 100 832 297 1060 578 1060 c 0
 703 1060 779 1005 864 920 c 1
 864 1480 l 1
1032 520 m 0
 1032 290 1150 140 1330 140 c 0
 1510 140 1628 290 1628 520 c 0
 1628 750 1510 900 1330 900 c 0
 1150 900 1032 750 1032 520 c 0
EndSplineSet
Validated: 1
Colour: ff00
EndChar

StartChar: uni0239
Encoding: 569 569 542
Width: 1908
VWidth: 1000
Flags: HMW
LayerCount: 4
Fore
SplineSet
876 520 m 0
 876 290 758 140 578 140 c 0
 398 140 280 290 280 520 c 0
 280 750 398 900 578 900 c 0
 758 900 876 750 876 520 c 0
864 -440 m 1
 1044 -440 l 1
 1044 120 l 1
 1129 35 1205 -20 1330 -20 c 0
 1611 -20 1808 208 1808 520 c 0
 1808 832 1611 1060 1330 1060 c 0
 1205 1060 1121 1005 1036 920 c 1
 1036 980 1036 1040 1036 1040 c 1
 872 1040 l 1
 872 1040 872 980 872 920 c 1
 787 1005 703 1060 578 1060 c 0
 297 1060 100 832 100 520 c 0
 100 208 297 -20 578 -20 c 0
 703 -20 779 35 864 120 c 1
 864 -440 l 1
1032 520 m 0
 1032 750 1150 900 1330 900 c 0
 1510 900 1628 750 1628 520 c 0
 1628 290 1510 140 1330 140 c 0
 1150 140 1032 290 1032 520 c 0
EndSplineSet
Validated: 9
Colour: ff00
EndChar

StartChar: uni0338
Encoding: 824 824 543
Width: 1602
Flags: HMW
LayerCount: 4
Fore
SplineSet
1365 1596 m 1
 1493 1500 l 1
 236 -116 l 1
 108 -20 l 1
 1365 1596 l 1
EndSplineSet
Validated: 1
Colour: ffff
EndChar

StartChar: uni0337
Encoding: 823 823 544
Width: 1196
VWidth: 1000
Flags: HMW
LayerCount: 4
Fore
SplineSet
992 1156 m 1
 1120 1060 l 1
 204 -116 l 1
 76 -20 l 1
 992 1156 l 1
EndSplineSet
Validated: 1
Colour: ff00
EndChar

StartChar: uni023A
Encoding: 570 570 545
Width: 1416
VWidth: 1000
Flags: HMW
LayerCount: 4
Fore
SplineSet
1273 1596 m 1
 1401 1500 l 1
 144 -116 l 1
 16 -20 l 1
 1273 1596 l 1
334 604 m 1
 1060 604 l 1
 1060 436 l 1
 334 436 l 1
 334 604 l 1
708 1230 m 1
 296 0 l 1
 100 0 l 1
 610 1480 l 1
 806 1480 l 1
 1316 0 l 1
 1120 0 l 1
 708 1230 l 1
EndSplineSet
Validated: 5
Colour: ffff
EndChar

StartChar: uni023B
Encoding: 571 571 546
Width: 1514
Flags: HMW
LayerCount: 4
Fore
SplineSet
1365 1596 m 1
 1493 1500 l 1
 236 -116 l 1
 108 -20 l 1
 1365 1596 l 1
1253 1028 m 1
 1170 1215 1002 1332 801 1332 c 0
 511 1332 290 1090 290 740 c 0
 290 390 511 148 801 148 c 0
 1002 148 1170 265 1253 452 c 1
 1414 360 l 1
 1296 128 1069 -20 801 -20 c 0
 406 -20 100 301 100 740 c 0
 100 1179 406 1500 801 1500 c 0
 1069 1500 1296 1352 1414 1120 c 1
 1253 1028 l 1
EndSplineSet
Validated: 5
Colour: ffff
EndChar

StartChar: uni023C
Encoding: 572 572 547
Width: 1142
VWidth: 1000
Flags: HMW
LayerCount: 4
Fore
SplineSet
992 1156 m 1
 1120 1060 l 1
 204 -116 l 1
 76 -20 l 1
 992 1156 l 1
280 520 m 0
 280 300 407 140 598 140 c 0
 739 140 840 207 889 340 c 1
 1042 252 l 1
 959 74 797 -20 598 -20 c 0
 317 -20 100 208 100 520 c 0
 100 832 317 1060 598 1060 c 0
 797 1060 959 966 1042 788 c 1
 889 700 l 1
 840 833 739 900 598 900 c 0
 407 900 280 740 280 520 c 0
EndSplineSet
Validated: 5
Substitution2: "'smcp' Bas-de-casse vers petites capitales lookups0-1" uni023C.sc
Colour: ff00
EndChar

StartChar: uni023D
Encoding: 573 573 548
Width: 1278
Flags: HMW
LayerCount: 4
Fore
SplineSet
670 656 m 1
 0 656 l 1
 0 702 0 778 0 824 c 1
 670 824 l 1
 670 656 l 1
400 1480 m 17
 400 168 l 1
 1138 168 l 1
 1138 0 l 1
 210 0 l 25
 210 1480 l 1
 400 1480 l 17
EndSplineSet
Validated: 5
Colour: ffff
EndChar

StartChar: uni023E
Encoding: 574 574 549
Width: 1398
Flags: HMW
LayerCount: 4
Fore
SplineSet
1264 1596 m 1
 1392 1500 l 1
 135 -116 l 1
 7 -20 l 1
 1264 1596 l 1
794 0 m 25
 604 0 l 25
 604 1312 l 25
 140 1312 l 25
 140 1480 l 25
 1258 1480 l 25
 1258 1312 l 25
 794 1312 l 25
 794 0 l 25
EndSplineSet
Validated: 5
Colour: ffff
EndChar

StartChar: uni023F
Encoding: 575 575 550
Width: 1032
VWidth: 1000
Flags: HMW
LayerCount: 4
Fore
SplineSet
910 1156 m 1
 1038 1060 l 1
 122 -116 l 1
 -6 -20 l 1
 910 1156 l 1
312 755 m 0
 312 674 379 651 532 613 c 0
 755 557 932 473 932 285 c 0
 932 97 762 -20 532 -20 c 0
 302 -20 151 63 100 252 c 1
 253 340 l 1
 278 200 392 140 532 140 c 0
 708 140 752 204 752 285 c 0
 752 366 685 391 532 431 c 0
 309 489 132 567 132 755 c 0
 132 942 302 1060 532 1060 c 0
 762 1060 862 957 924 788 c 1
 771 700 l 1
 735 799 690 900 532 900 c 0
 356 900 312 836 312 755 c 0
EndSplineSet
Validated: 5
Substitution2: "'smcp' Bas-de-casse vers petites capitales lookups0-1" uni023F.sc
Colour: ff00
EndChar

StartChar: uni0240
Encoding: 576 576 551
Width: 1042
Flags: HMW
LayerCount: 4
Fore
SplineSet
270 13 m 1
 140 144 l 1
 206 232 279 267 354 267 c 0
 413 267 473 246 532 212 c 0
 705 112 639 37 739 -21 c 0
 764 -35 789 -45 813 -45 c 0
 846 -45 879 -27 912 21 c 1
 1042 -109 l 1
 976 -197 903 -232 828 -232 c 0
 769 -232 708 -211 649 -177 c 0
 476 -77 542 -2 442 56 c 0
 417 70 393 80 369 80 c 0
 336 80 303 61 270 13 c 1
140 1040 m 1
 884 1040 l 1
 884 896 l 1
 680 880 l 1
 140 880 l 1
 140 1040 l 1
344 160 m 1
 140 144 l 1
 680 880 l 1
 884 896 l 1
 344 160 l 1
EndSplineSet
Colour: ff00
EndChar

StartChar: uni0241
Encoding: 577 577 552
Width: 1192
VWidth: 1000
Flags: HMW
LayerCount: 4
Fore
SplineSet
504 0 m 1
 684 0 l 1
 684 580 l 1
 504 580 l 1
 504 0 l 1
594 420 m 0
 875 420 1092 648 1092 960 c 0
 1092 1272 894 1500 594 1500 c 0
 324 1500 131 1306 100 1032 c 1
 276 978 l 1
 282 1189 396 1340 594 1340 c 0
 796 1340 912 1180 912 960 c 0
 912 740 785 580 594 580 c 0
 594 420 l 0
EndSplineSet
Validated: 5
Colour: ffff
EndChar

StartChar: uni0242
Encoding: 578 578 553
Width: 985
Flags: HMW
LayerCount: 4
Fore
SplineSet
401 0 m 1
 581 0 l 1
 581 427 l 1
 401 427 l 1
 401 0 l 1
491 274 m 0
 714 274 885 443 885 674 c 0
 885 905 728 1074 491 1074 c 0
 277 1074 125 928 100 721 c 1
 267 686 l 1
 271 823 352 921 491 921 c 0
 633 921 714 817 714 674 c 0
 714 531 625 427 491 427 c 0
 491 274 l 0
EndSplineSet
Validated: 5
Substitution2: "'smcp' Bas-de-casse vers petites capitales lookups0-1" uni0242.sc
Colour: ff00
EndChar

StartChar: uni0243
Encoding: 579 579 554
Width: 1353
Flags: HMW
LayerCount: 4
Fore
SplineSet
670 366 m 1
 0 366 l 1
 0 412 0 488 0 534 c 1
 670 534 l 1
 670 366 l 1
777 740 m 1
 777 908 l 17
 902 908 999 987 999 1112 c 0
 999 1237 902 1312 777 1312 c 9
 400 1312 l 1
 400 1480 l 25
 777 1480 l 1
 997 1480 1189 1330 1189 1110 c 0
 1189 890 997 740 777 740 c 1
400 168 m 25
 777 168 l 17
 942 168 1063 289 1063 454 c 0
 1063 619 942 740 777 740 c 9
 400 740 l 25
 400 168 l 25
210 1480 m 1
 400 1480 l 25
 400 908 l 1
 777 908 l 1
 1032 908 1253 709 1253 454 c 0
 1253 199 1032 0 777 0 c 1
 210 0 l 1
 210 1480 l 1
EndSplineSet
Validated: 5
Colour: ffff
EndChar

StartChar: uni0244
Encoding: 580 580 555
Width: 1538
Flags: HMW
LayerCount: 4
Fore
SplineSet
1538 824 m 25
 1538 656 l 25
 0 656 l 25
 0 824 l 25
 1538 824 l 25
400 1480 m 25
 400 600 l 17
 400 350 519 148 769 148 c 0
 1019 148 1138 350 1138 600 c 9
 1138 1480 l 25
 1328 1480 l 25
 1328 600 l 17
 1328 240 1129 -20 769 -20 c 0
 409 -20 210 240 210 600 c 9
 210 1480 l 25
 400 1480 l 25
EndSplineSet
Validated: 5
Colour: ffff
EndChar

StartChar: uni0245
Encoding: 581 581 556
Width: 1356
VWidth: 1000
Flags: HMW
LayerCount: 4
Fore
SplineSet
678 1230 m 1
 1090 0 l 1
 1286 0 l 1
 776 1480 l 1
 580 1480 l 1
 70 0 l 1
 266 0 l 1
 678 1230 l 1
EndSplineSet
Validated: 9
Colour: ffff
EndChar

StartChar: uni0246
Encoding: 582 582 557
Width: 1208
Flags: HMW
LayerCount: 4
Fore
SplineSet
896 1660 m 1
 1069 1660 l 1
 312 -180 l 1
 139 -180 l 1
 896 1660 l 1
973 824 m 17
 973 656 l 9
 330 656 l 17
 330 168 l 1
 1068 168 l 1
 1068 0 l 1
 140 0 l 25
 140 1480 l 1
 1068 1480 l 17
 1068 1312 l 1
 330 1312 l 1
 330 824 l 9
 973 824 l 17
EndSplineSet
Validated: 5
Colour: ffff
EndChar

StartChar: uni0247
Encoding: 583 583 558
Width: 1196
VWidth: 1000
Flags: HMW
LayerCount: 4
Fore
SplineSet
862 1220 m 25
 482 -180 l 25
 334 -180 l 1
 714 1220 l 1
 862 1220 l 25
174 600 m 1
 980 600 l 1
 980 440 l 1
 174 440 l 1
 174 600 l 1
910 340 m 1
 1063 252 l 1
 980 74 797 -20 598 -20 c 0
 317 -20 100 208 100 520 c 0
 100 832 317 1060 598 1060 c 0
 879 1060 1096 832 1096 520 c 0
 1096 493 1094 466 1091 440 c 1
 910 440 l 1
 914 466 916 492 916 520 c 0
 916 740 789 900 598 900 c 0
 407 900 280 740 280 520 c 0
 280 300 407 140 598 140 c 0
 739 140 861 207 910 340 c 1
EndSplineSet
Validated: 5
Substitution2: "'smcp' Bas-de-casse vers petites capitales lookups0-1" uni0247.sc
Colour: ff00
EndChar

StartChar: uni0248
Encoding: 584 584 559
Width: 1237
Flags: HMW
LayerCount: 4
Fore
SplineSet
1237 656 m 1
 567 656 l 1
 567 702 567 778 567 824 c 1
 1237 824 l 1
 1237 656 l 1
290 492 m 1
 290 440 l 1
 290 260 384 148 564 148 c 0
 744 148 838 260 838 440 c 9
 838 1480 l 1
 1028 1480 l 1
 1028 440 l 17
 1028 170 834 -20 564 -20 c 0
 294 -20 100 170 100 440 c 9
 290 492 l 1
EndSplineSet
Validated: 5
Colour: ffff
EndChar

StartChar: uni0249
Encoding: 585 585 560
Width: 670
Flags: HMW
LayerCount: 4
Fore
SplineSet
0 440 m 1
 0 486 0 554 0 600 c 1
 670 600 l 1
 670 440 l 1
 0 440 l 1
207 1372 m 0
 207 1444 263 1500 335 1500 c 0
 407 1500 463 1444 463 1372 c 0
 463 1300 407 1244 335 1244 c 0
 263 1244 207 1300 207 1372 c 0
103 -284 m 1
 115 -291 139 -300 155 -300 c 0
 215 -300 245 -270 245 -210 c 2
 245 0 l 1
 245 138 l 1
 245 1040 l 1
 425 1040 l 1
 425 138 l 1
 425 0 l 1
 425 -210 l 2
 425 -380 325 -460 155 -460 c 0
 123 -460 83 -449 61 -436 c 1
 103 -284 l 1
EndSplineSet
Validated: 5
Substitution2: "'smcp' Bas-de-casse vers petites capitales lookups0-1" uni0249.sc
Colour: ff00
EndChar

StartChar: uni024A
Encoding: 586 586 561
Width: 1686
Flags: HMW
LayerCount: 4
Fore
SplineSet
1312 -140 m 0
 1502 -140 l 0
 1502 -230 1552 -292 1642 -292 c 0
 1658 -292 1673 -290 1686 -286 c 1
 1686 -457 l 1
 1672 -459 1657 -460 1642 -460 c 0
 1464 -460 1312 -318 1312 -140 c 0
1502 1480 m 25
 1502 -140 l 25
 1312 -140 l 1
 1312 1480 l 1
 1502 1480 l 25
290 740 m 0
 290 390 511 148 801 148 c 0
 1091 148 1312 390 1312 740 c 0
 1312 1090 1091 1332 801 1332 c 0
 511 1332 290 1090 290 740 c 0
100 740 m 0
 100 1179 406 1500 801 1500 c 0
 1196 1500 1502 1179 1502 740 c 0
 1502 301 1196 -20 801 -20 c 0
 406 -20 100 301 100 740 c 0
EndSplineSet
Colour: ffff
EndChar

StartChar: uni024B
Encoding: 587 587 562
Width: 1238
VWidth: 1000
Flags: HMW
LayerCount: 4
Fore
SplineSet
864 -137 m 1
 1044 -137 l 1
 1044 -230 1104 -300 1194 -300 c 0
 1210 -300 1225 -298 1238 -294 c 1
 1238 -457 l 1
 1224 -459 1209 -460 1194 -460 c 0
 1016 -460 864 -318 864 -137 c 1
876 520 m 0
 876 750 758 900 578 900 c 0
 398 900 280 750 280 520 c 0
 280 290 398 140 578 140 c 0
 758 140 876 290 876 520 c 0
1044 872 m 1
 1044 -137 l 1
 864 -137 l 1
 864 120 l 1
 779 35 703 -20 578 -20 c 0
 297 -20 100 208 100 520 c 0
 100 832 297 1060 578 1060 c 0
 703 1060 787 1005 872 920 c 1
 872 980 872 1040 872 1040 c 1
 1044 1040 l 1
 1044 1040 1044 974 1044 872 c 1
EndSplineSet
Substitution2: "'smcp' Bas-de-casse vers petites capitales lookups0-1" uni024B.sc
Colour: ff00
EndChar

StartChar: uni024C
Encoding: 588 588 563
Width: 1258
Flags: HMW
LayerCount: 4
Fore
SplineSet
320 572 m 1
 320 740 l 1
 0 740 l 1
 0 694 0 618 0 572 c 1
 320 572 l 1
570 617 m 1
 984 0 l 1
 1198 0 l 1
 700 740 l 1
 570 617 l 1
400 1312 m 25
 682 1312 l 17
 847 1312 968 1191 968 1026 c 0
 968 861 847 740 682 740 c 9
 400 740 l 25
 400 1312 l 25
210 0 m 1
 400 0 l 25
 400 572 l 1
 682 572 l 1
 937 572 1158 771 1158 1026 c 0
 1158 1281 937 1480 682 1480 c 1
 210 1480 l 1
 210 0 l 1
EndSplineSet
Validated: 5
Colour: ffff
EndChar

StartChar: uni024D
Encoding: 589 589 564
Width: 867
VWidth: 1000
Flags: HMW
LayerCount: 4
Fore
SplineSet
0 440 m 1
 0 486 0 554 0 600 c 1
 670 600 l 1
 670 440 l 1
 0 440 l 1
814 849 m 1
 771 883 719 900 648 900 c 0
 468 900 390 791 390 572 c 2
 390 0 l 1
 210 0 l 1
 210 1040 l 1
 378 1040 l 1
 378 920 l 1
 463 1005 563 1060 688 1060 c 0
 756 1060 811 1049 862 1028 c 1
 814 849 l 1
EndSplineSet
Validated: 5
Substitution2: "'smcp' Bas-de-casse vers petites capitales lookups0-1" uni024D.sc
Colour: ff00
EndChar

StartChar: uni024E
Encoding: 590 590 565
Width: 1442
VWidth: 1000
Flags: HMW
LayerCount: 4
Fore
SplineSet
1392 1195 m 25
 1392 1027 l 25
 50 1027 l 25
 50 1195 l 25
 1392 1195 l 25
626 0 m 1
 626 740 l 1
 816 740 l 1
 816 0 l 1
 626 0 l 1
780 628 m 1
 646 666 l 1
 95 1480 l 1
 309 1480 l 1
 721 858 l 1
 1133 1480 l 1
 1347 1480 l 1
 780 628 l 1
EndSplineSet
Colour: ffff
EndChar

StartChar: uni024F
Encoding: 591 591 566
Width: 1104
VWidth: 1000
Flags: HMW
LayerCount: 4
Fore
SplineSet
50 440 m 1
 50 486 50 554 50 600 c 1
 1054 600 l 1
 1054 440 l 1
 50 440 l 1
554 -255 m 1
 509 -385 395 -460 237 -460 c 0
 181 -460 117 -446 72 -428 c 1
 117 -265 l 1
 143 -284 194 -300 237 -300 c 0
 314 -300 366 -267 387 -206 c 1
 460 0 l 1
 95 1040 l 1
 284 1040 l 1
 552 224 l 1
 820 1040 l 1
 1009 1040 l 1
 644 0 l 1
 554 -255 l 1
EndSplineSet
Validated: 5
Substitution2: "'smcp' Bas-de-casse vers petites capitales lookups0-1" uni024F.sc
Colour: ff00
EndChar

StartChar: uni0250
Encoding: 592 592 567
Width: 1140
VWidth: 1000
Flags: HMW
LayerCount: 4
Fore
SplineSet
250 700 m 0
 340 700 l 0
 340 580 420 500 600 500 c 0
 780 500 860 580 860 700 c 0
 860 820 780 900 600 900 c 0
 450 900 340 820 340 700 c 2
 340 400 l 2
 340 220 433 139 601 139 c 0
 781 139 918 245 918 245 c 1
 1000 104 l 1
 1000 104 855 -20 600 -20 c 0
 354 -20 160 82 160 432 c 1
 160 582 l 1
 160 582 160 759 160 872 c 9
 322 920 l 1
 407 1005 515 1060 640 1060 c 0
 895 1060 1040 900 1040 700 c 0
 1040 500 855 340 600 340 c 0
 375 340 250 500 250 700 c 0
112 1060 m 1
 256 1047 340 968 340 813 c 2
 340 533 l 1
 160 533 l 1
 160 813 l 2
 160 873 130 902 70 902 c 0
 112 1060 l 1
EndSplineSet
Validated: 5
Colour: ff00
EndChar

StartChar: uni0251
Encoding: 593 593 568
Width: 1184
VWidth: 1000
Flags: HMW
LayerCount: 4
Fore
SplineSet
876 520 m 0
 876 750 758 900 578 900 c 0
 398 900 280 750 280 520 c 0
 280 290 398 140 578 140 c 0
 758 140 876 290 876 520 c 0
1044 168 m 1
 1044 66 1064 0 1064 0 c 1
 892 0 l 1
 892 0 876 60 876 120 c 1
 791 35 703 -20 578 -20 c 0
 297 -20 100 208 100 520 c 0
 100 832 297 1060 578 1060 c 0
 703 1060 779 1005 864 920 c 1
 864 1040 l 1
 1044 1040 l 1
 1044 168 l 1
EndSplineSet
Validated: 1
Colour: ff00
EndChar

StartChar: uni0252
Encoding: 594 594 569
Width: 1184
VWidth: 1000
Flags: HMW
LayerCount: 4
Fore
SplineSet
308 520 m 0
 308 290 426 140 606 140 c 0
 786 140 904 290 904 520 c 0
 904 750 786 900 606 900 c 0
 426 900 308 750 308 520 c 0
140 168 m 1
 140 1040 l 1
 320 1040 l 1
 320 920 l 1
 405 1005 481 1060 606 1060 c 0
 887 1060 1084 832 1084 520 c 0
 1084 208 887 -20 606 -20 c 0
 481 -20 397 35 312 120 c 1
 312 60 312 0 312 0 c 1
 140 0 l 1
 140 0 140 66 140 168 c 1
EndSplineSet
Validated: 1
Colour: ff00
EndChar

StartChar: uni0253
Encoding: 595 595 570
Width: 1184
VWidth: 1000
Flags: HMW
LayerCount: 4
Fore
SplineSet
308 520 m 0
 308 290 426 140 606 140 c 0
 786 140 904 290 904 520 c 0
 904 750 786 900 606 900 c 0
 426 900 308 750 308 520 c 0
140 1177 m 1
 140 1358 292 1500 470 1500 c 0
 485 1500 500 1499 514 1497 c 1
 514 1334 l 1
 501 1338 486 1340 470 1340 c 0
 380 1340 320 1270 320 1177 c 1
 320 1177 320 980 320 920 c 1
 405 1005 481 1060 606 1060 c 0
 887 1060 1084 832 1084 520 c 0
 1084 208 887 -20 606 -20 c 0
 481 -20 405 35 320 120 c 1
 320 0 l 1
 140 0 l 1
 140 872 l 1
 140 974 140 1177 140 1177 c 1
EndSplineSet
Colour: ff00
EndChar

StartChar: uni0254
Encoding: 596 596 571
Width: 1142
VWidth: 1000
Flags: HMW
LayerCount: 4
Fore
SplineSet
862 520 m 0
 862 300 735 140 544 140 c 0
 403 140 302 207 253 340 c 1
 100 252 l 1
 183 74 345 -20 544 -20 c 0
 825 -20 1042 208 1042 520 c 0
 1042 832 825 1060 544 1060 c 0
 345 1060 183 966 100 788 c 1
 253 700 l 1
 302 833 403 900 544 900 c 0
 735 900 862 740 862 520 c 0
EndSplineSet
Validated: 9
Colour: ff00
EndChar

StartChar: uni0255
Encoding: 597 597 572
Width: 1142
VWidth: 1000
Flags: HMW
LayerCount: 4
Fore
SplineSet
759 291 m 0
 539 291 458 -178 458 -178 c 1
 295 -90 l 1
 295 -90 410 450 759 451 c 0
 889 451 999 367 999 225 c 0
 999 120 940 47 856 16 c 1
 826 5 759 0 759 0 c 0
 759 159 l 0
 790 170 819 189 819 225 c 0
 819 261 795 291 759 291 c 0
856 16 m 1
 799 -5 758 -20 598 -20 c 0
 317 -20 100 208 100 520 c 0
 100 832 317 1060 598 1060 c 0
 797 1060 959 966 1042 788 c 1
 889 700 l 1
 840 833 739 900 598 900 c 0
 407 900 280 740 280 520 c 0
 280 300 407 140 598 140 c 0
 718 140 759 159 759 159 c 1
 856 16 l 1
EndSplineSet
Validated: 5
Colour: ff00
EndChar

StartChar: uni0256
Encoding: 598 598 573
Width: 1238
VWidth: 1000
Flags: HMW
LayerCount: 4
Fore
SplineSet
872 0 m 1
 1044 0 l 1
 1044 -93 1104 -163 1194 -163 c 0
 1210 -163 1225 -161 1238 -157 c 1
 1238 -320 l 1
 1224 -322 1209 -323 1194 -323 c 0
 1016 -323 872 -181 872 0 c 1
876 520 m 0
 876 290 758 140 578 140 c 0
 398 140 280 290 280 520 c 0
 280 750 398 900 578 900 c 0
 758 900 876 750 876 520 c 0
1044 168 m 1
 1044 1480 l 1
 864 1480 l 1
 864 920 l 1
 779 1005 703 1060 578 1060 c 0
 297 1060 100 832 100 520 c 0
 100 208 297 -20 578 -20 c 0
 703 -20 787 35 872 120 c 1
 872 60 872 0 872 0 c 1
 1044 0 l 1
 1044 0 1044 66 1044 168 c 1
EndSplineSet
Colour: ff00
EndChar

StartChar: uni0257
Encoding: 599 599 574
Width: 1238
VWidth: 1000
Flags: HMW
LayerCount: 4
Fore
SplineSet
864 1177 m 1
 864 1358 1016 1500 1194 1500 c 0
 1209 1500 1224 1499 1238 1497 c 1
 1238 1334 l 1
 1225 1338 1210 1340 1194 1340 c 0
 1104 1340 1044 1270 1044 1177 c 1
 864 1177 l 1
876 520 m 0
 876 750 758 900 578 900 c 0
 398 900 280 750 280 520 c 0
 280 290 398 140 578 140 c 0
 758 140 876 290 876 520 c 0
1044 168 m 1
 1044 66 1064 0 1064 0 c 1
 892 0 l 1
 892 0 876 60 876 120 c 1
 791 35 703 -20 578 -20 c 0
 297 -20 100 208 100 520 c 0
 100 832 297 1060 578 1060 c 0
 703 1060 779 1005 864 920 c 1
 864 1177 l 1
 1044 1177 l 1
 1044 168 l 1
EndSplineSet
Colour: ff00
EndChar

StartChar: uni0258
Encoding: 600 600 575
Width: 1196
VWidth: 1000
Flags: HMW
LayerCount: 4
Fore
SplineSet
1022 600 m 1
 216 600 l 1
 216 440 l 1
 1022 440 l 1
 1022 600 l 1
286 340 m 1
 133 252 l 1
 216 74 399 -20 598 -20 c 0
 879 -20 1096 208 1096 520 c 0
 1096 832 879 1060 598 1060 c 0
 317 1060 100 832 100 520 c 0
 100 493 102 466 105 440 c 1
 286 440 l 1
 282 466 280 492 280 520 c 0
 280 740 407 900 598 900 c 0
 789 900 916 740 916 520 c 0
 916 300 789 140 598 140 c 0
 457 140 335 207 286 340 c 1
EndSplineSet
Validated: 5
Colour: ff00
EndChar

StartChar: uni0259
Encoding: 601 601 576
Width: 1196
VWidth: 1000
Flags: HMW
LayerCount: 4
Fore
SplineSet
1022 440 m 1
 216 440 l 1
 216 600 l 1
 1022 600 l 1
 1022 440 l 1
286 700 m 1
 133 788 l 1
 216 966 399 1060 598 1060 c 0
 879 1060 1096 832 1096 520 c 0
 1096 208 879 -20 598 -20 c 0
 317 -20 100 208 100 520 c 0
 100 547 102 574 105 600 c 1
 286 600 l 1
 282 574 280 548 280 520 c 0
 280 300 407 140 598 140 c 0
 789 140 916 300 916 520 c 0
 916 740 789 900 598 900 c 0
 457 900 335 833 286 700 c 1
EndSplineSet
Validated: 5
Colour: ff00
EndChar

StartChar: uni025A
Encoding: 602 602 577
Width: 1455
VWidth: 1000
Flags: HMW
LayerCount: 4
Fore
SplineSet
1116 698 m 1
 1261 781 l 1
 1261 673 1321 558 1411 558 c 0
 1427 558 1442 560 1455 564 c 1
 1455 401 l 1
 1441 399 1426 398 1411 398 c 0
 1202 398 1122 606 1116 698 c 1
210 333 m 1
 207 459 l 1
 280 518 l 1
 1261 781 l 1
 1239 690 l 1
 1302 626 l 1
 210 333 l 1
280 518 m 1
 281 299 408 140 598 140 c 0
 789 140 916 300 916 520 c 0
 916 740 789 900 598 900 c 0
 457 900 335 833 286 700 c 1
 133 788 l 1
 216 966 399 1060 598 1060 c 0
 879 1060 1096 832 1096 520 c 0
 1096 208 879 -20 598 -20 c 0
 332 -20 124 184 102 470 c 1
 280 518 l 1
EndSplineSet
Colour: ff00
EndChar

StartChar: uni025B
Encoding: 603 603 578
Width: 1013
Flags: HMW
LayerCount: 4
Fore
SplineSet
508 618 m 1
 387 618 322 680 322 762 c 0
 322 844 387 900 508 900 c 0
 629 900 700 823 700 741 c 0
 872 788 l 1
 851 937 723 1060 508 1060 c 0
 293 1060 142 932 142 774 c 0
 142 683 182 600 281 549 c 1
 156 493 100 398 100 290 c 0
 100 117 269 -20 508 -20 c 0
 732 -20 885 78 913 252 c 1
 741 299 l 0
 729 204 652 140 508 140 c 0
 364 140 279 208 279 303 c 0
 279 398 364 471 508 471 c 1
 557 471 573 471 573 471 c 25
 573 618 l 25
 573 618 556 618 508 618 c 1
EndSplineSet
Validated: 9
Colour: ff00
EndChar

StartChar: uni025C
Encoding: 604 604 579
Width: 1013
Flags: HMW
LayerCount: 4
Fore
SplineSet
505 618 m 1
 626 618 691 680 691 762 c 0
 691 844 626 900 505 900 c 0
 384 900 313 823 313 741 c 0
 141 788 l 1
 162 937 290 1060 505 1060 c 0
 720 1060 871 932 871 774 c 0
 871 683 831 600 732 549 c 1
 857 493 913 398 913 290 c 0
 913 117 744 -20 505 -20 c 0
 281 -20 128 78 100 252 c 1
 272 299 l 0
 284 204 361 140 505 140 c 0
 649 140 734 208 734 303 c 0
 734 398 649 471 505 471 c 1
 456 471 440 471 440 471 c 25
 440 618 l 25
 440 618 457 618 505 618 c 1
EndSplineSet
Validated: 1
Colour: ff00
EndChar

StartChar: uni025D
Encoding: 605 605 580
Width: 1272
Flags: HMW
LayerCount: 4
Fore
SplineSet
505 618 m 1
 626 618 691 680 691 762 c 0
 691 844 626 900 505 900 c 0
 384 900 313 823 313 741 c 0
 141 788 l 1
 162 937 290 1060 505 1060 c 0
 720 1060 871 932 871 774 c 0
 871 683 831 600 732 549 c 1
 857 493 913 398 913 290 c 0
 913 117 744 -20 505 -20 c 0
 281 -20 128 78 100 252 c 1
 272 299 l 0
 284 204 361 140 505 140 c 0
 649 140 734 208 734 303 c 0
 734 398 649 471 505 471 c 1
 456 471 440 471 440 471 c 25
 440 618 l 25
 440 618 457 618 505 618 c 1
933 698 m 1
 1078 781 l 1
 1078 673 1138 558 1228 558 c 0
 1244 558 1259 560 1272 564 c 1
 1272 401 l 1
 1258 399 1243 398 1228 398 c 0
 1019 398 939 606 933 698 c 1
754 694 m 1
 1078 781 l 1
 1056 690 l 1
 1119 626 l 1
 679 508 l 1
 754 694 l 1
EndSplineSet
Validated: 5
Colour: ff00
EndChar

StartChar: uni025E
Encoding: 606 606 581
Width: 1106
VWidth: 1000
Flags: HMW
LayerCount: 4
Fore
SplineSet
598 1060 m 0
 813 1060 964 932 964 774 c 0
 964 683 924 600 825 549 c 1
 950 493 1006 398 1006 290 c 0
 1006 117 837 -20 598 -20 c 0
 317 -20 100 208 100 520 c 0
 100 832 317 1060 598 1060 c 0
598 900 m 0
 407 900 280 740 280 520 c 0
 280 300 407 140 598 140 c 0
 742 140 831 208 831 303 c 0
 831 398 742 471 598 471 c 1
 549 471 533 471 533 471 c 25
 533 618 l 25
 533 618 550 618 598 618 c 1
 719 618 789 680 789 762 c 0
 789 844 719 900 598 900 c 0
EndSplineSet
Validated: 1
Colour: ff00
EndChar

StartChar: uni025F
Encoding: 607 607 582
Width: 670
Flags: HMW
LayerCount: 4
Fore
SplineSet
0 440 m 1
 0 486 0 554 0 600 c 1
 670 600 l 1
 670 440 l 1
 0 440 l 1
103 -284 m 1
 115 -291 139 -300 155 -300 c 0
 215 -300 245 -270 245 -210 c 2
 245 0 l 1
 245 138 l 1
 245 1040 l 1
 425 1040 l 1
 425 138 l 1
 425 0 l 1
 425 -210 l 2
 425 -380 325 -460 155 -460 c 0
 123 -460 83 -449 61 -436 c 1
 103 -284 l 1
EndSplineSet
Validated: 5
Colour: ff00
EndChar

StartChar: uni0260
Encoding: 608 608 583
Width: 1238
VWidth: 1000
Flags: HMW
LayerCount: 4
Fore
SplineSet
1044 1040 m 1
 1044 1133 1104 1203 1194 1203 c 0
 1210 1203 1225 1201 1238 1197 c 1
 1238 1360 l 1
 1224 1362 1209 1363 1194 1363 c 0
 1016 1363 872 1221 872 1040 c 1
 872 1040 872 980 872 920 c 1
 787 1005 703 1060 578 1060 c 0
 297 1060 100 832 100 520 c 0
 100 208 297 -20 578 -20 c 0
 703 -20 779 35 864 120 c 1
 864 80 l 0
 864 -150 746 -300 566 -300 c 0
 425 -300 324 -233 275 -100 c 1
 122 -188 l 1
 205 -366 367 -460 566 -460 c 0
 847 -460 1044 -250 1044 80 c 0
 1044 872 l 1
 1044 974 1044 1040 1044 1040 c 1
876 520 m 0
 876 290 758 140 578 140 c 0
 398 140 280 290 280 520 c 0
 280 750 398 900 578 900 c 0
 758 900 876 750 876 520 c 0
EndSplineSet
Colour: ff00
EndChar

StartChar: uni0261
Encoding: 609 609 584
Width: 1184
VWidth: 1000
Flags: HMW
LayerCount: 4
Fore
SplineSet
566 -460 m 0
 367 -460 205 -366 122 -188 c 1
 275 -100 l 1
 324 -233 425 -300 566 -300 c 0
 746 -300 864 -150 864 80 c 0
 864 120 l 1
 779 35 703 -20 578 -20 c 0
 297 -20 100 208 100 520 c 0
 100 832 297 1060 578 1060 c 0
 703 1060 787 1005 872 920 c 1
 872 980 872 1040 872 1040 c 1
 1044 1040 l 1
 1044 1040 1044 974 1044 872 c 1
 1044 80 l 0
 1044 -250 847 -460 566 -460 c 0
876 520 m 0
 876 750 758 900 578 900 c 0
 398 900 280 750 280 520 c 0
 280 290 398 140 578 140 c 0
 758 140 876 290 876 520 c 0
EndSplineSet
Validated: 1
Colour: ff00
EndChar

StartChar: uni0262
Encoding: 610 610 585
Width: 1211
Flags: HMW
LayerCount: 4
Fore
SplineSet
921 703 m 1
 875 803 775 914 625 914 c 0
 421 914 280 753 280 520 c 0
 280 287 421 125 625 125 c 0
 775 125 871 236 917 336 c 1
 1030 256 l 1
 943 71 823 -36 625 -36 c 0
 333 -36 100 199 100 520 c 0
 100 841 333 1075 625 1075 c 0
 823 1075 983 974 1070 789 c 1
 921 703 l 1
891 277 m 1
 891 363 l 1
 588 363 l 1
 588 523 l 1
 1071 523 l 1
 1071 0 l 1
 899 0 l 1
 899 132 l 1
 891 277 l 1
EndSplineSet
Validated: 5
Colour: ff00
EndChar

StartChar: uni0263
Encoding: 611 611 586
Width: 1148
Flags: HMW
LayerCount: 4
Fore
SplineSet
831 -65 m 1
 849 -96 869 -147 869 -207 c 0
 869 -337 754 -460 574 -460 c 0
 394 -460 279 -337 279 -207 c 0
 279 -147 306 -96 324 -65 c 1
 473 188 l 1
 70 1040 l 1
 278 1040 l 1
 574 381 l 1
 870 1040 l 1
 1078 1040 l 1
 675 188 l 1
 831 -65 l 1
648 -72 m 1
 574 50 l 1
 506 -72 l 1
 490 -102 459 -138 459 -178 c 0
 459 -239 511 -301 574 -301 c 0
 637 -301 689 -239 689 -178 c 0
 689 -138 664 -102 648 -72 c 1
EndSplineSet
Validated: 1
Colour: ff00
EndChar

